<svg xmlns="http://www.w3.org/2000/svg" width="1024" height="1024" preserveAspectRatio="none" style="display:block" viewBox="0 0 2048 2048"><path fill="#FAFAFA" d="M0 0h2048v2048H0z"/><path fill="#0d0a08" d="M1065.01 434.952c48.67-33.355 97.15-48.958 156.52-49.26a269.12 269.12 0 0 1 190.88 79.073 288.4 288.4 0 0 1 51.94 71.522c39.06 76.541 31.8 147.143 31.78 230.428 4.65.116 9.62.035 14.3.046 15.21-.616 45-1.081 58.91 5.871 72.7 18.863 118.96 89.017 118.18 162.515 84.25 4.609 146.45 32.711 203.09 94.203 63.58 69 80.07 147.53 75.46 238.04-1.3 25.57.91 52.89-.58 78.92a286.06 286.06 0 0 1-95.91 199.01c-51.91 45.74-113.79 68.82-182.75 69.85-6.1 27.16-33.05 49.88-60.08 54.15-14.15 5.5-179.78 2.21-203.71 2.69-53.89.07-112.02 1.2-165.54-.16l-19.37.11q-37.845.24-75.69-.12c-71.68 1.1-146.31.23-218.137.06-12.42.2-24.842.2-37.262-.01l-8.699.13H589.773c-24.042-.44-49.041-.15-73.16-.22-9.316.69-55.593.82-62.914-.67a72.4 72.4 0 0 1-26.774-7.52c-21.919-10.99-31.198-25.29-38.755-47.56-19.93-.26-41.595-.41-61.264-3.07a279.22 279.22 0 0 1-157.239-77.99A283.9 283.9 0 0 1 83.87 1332l.029-77.64c.048-24.55-.511-52.94 3.423-77.14 9.347-57.5 37.308-113.18 78.613-154.27 45.532-45.293 100.86-73.779 164.905-80.994 18.667-2.102 38.362-1.757 57.161-1.794 5.789-46.303 22.734-85.663 56.143-118.836a189.45 189.45 0 0 1 116.803-53.628c20.48-1.724 55.661-.684 77.204-.692-.022-94.337-9.821-170.91 46.109-253.989 89.279-132.616 247.424-165.525 380.75-78.065"/><path fill="#9e9e9e" d="M557.582 770.316c16.175-1.927 55.896-.816 73.434-.746l132.179.019 179.795-.008q38.61-.577 77.22-.519c21.77-.023 43.52-.703 65.06 3.12 29.64 5.26 57.78 19.823 81.34 38.239 37.92 29.648 64.42 75.42 69.92 123.348 1.87 16.233 1.39 34.064 1.34 50.548l-.15 65.103.11 206.58-.1 244.36.18 69.61c.03 6.7-.79 19.87.06 26.23 4.54 33.84-21.88 69.64-56.44 72.97-23.03 2.22-54.51.88-79.71.91H946.856l.561-243.01-.171-60.67c-.068-23.71.911-41.11-4.049-64.41-16.958-79.65-89.769-127.82-168.851-126.96-4.99.06-16.275-.29-21.031.63-11.698.08-23.03.11-34.724.74-7.292 1.54-5.432.12-9.801 5.06-76.096 18.46-122.435 75.02-120.651 154.59.48 21.42.029 44.55.052 66.11l.454 185.43c.061 12.88-1.457 75.17 1.128 84.43-24.042-.44-49.041-.15-73.16-.22-9.316.69-55.593.82-62.914-.67 6.588-.42 14.322-.42 21.01-.59-37.89-.87-80.224-15.45-83.916-61.53-.849-10.61-.302-22.16-.347-32.85l-.236-76.1q-.518-159.645.577-319.29l.094-164.07c-.039-26.072-.926-60.032.796-85.304 1.65-24.209 18.025-62.31 32.407-82.235 31.049-43.018 71.817-68.384 123.757-77.54.891-.368.795-.354 1.734-.292l6.221-.707c.903-.445.805-.451 1.786-.306"/><path fill="#0d0a08" d="M578.708 1202.23c49.97-32.36 82.085-26.24 139.883-25.83-7.292 1.54-5.432.12-9.801 5.06-76.096 18.46-122.435 75.02-120.651 154.59.48 21.42.029 44.55.052 66.11l.454 185.43c.061 12.88-1.457 75.17 1.128 84.43-24.042-.44-49.041-.15-73.16-.22-3.316-1.18-5.6-1.07-9.084-1.25 11.584-1.17 32.646-1.08 44.815-1.21-29.693-13.75-44.485-29.57-45.751-63.27-24.251-12.1-29.281-32.91-28.552-57.79.792-27.02-2.302-55.65 2.409-82.32 2.47-13.98 14.924-24.86 26.429-31.95l.107-87.64c-20.119-12.65-25.661-23.62-25.835-47.56l-.055-36.82c-.151-23.49-2.698-45.95 15.749-64.07 10.839-10.65 27.627-16.57 42.759-15.83 17.996.87 27.57 7.9 39.104 20.14"/><path fill="#9e9e9e" d="M662.277 1179.28c12.997-.64 31.599-.3 44.876-.3-3.168.81-5.952 1.7-9.181 2.47-27.158 8.12-48.104 19.09-68.549 39.37a150.17 150.17 0 0 0-40.218 73.99c-4.65 21.04-3.497 43.57-3.44 65.17l.167 65.39.045 244.74c-24.251-.51-42.05-2.63-59.929-20.63-20.729-20.86-17.188-47.18-17.151-74.25l.127-64.17.666-117.12c.009-19.46-1.02-42.59-.353-61.56a161.77 161.77 0 0 1 51.516-112.65c28.623-26.56 62.27-41.75 101.424-40.45"/><path fill="#795548" d="M662.277 1179.28c12.997-.64 31.599-.3 44.876-.3-3.168.81-5.952 1.7-9.181 2.47-6.352-4.02-31.676 1.43-35.695-2.17"/><path fill="#3c1f15" d="M527.845 1185.23c20.551-1.54 34.441 1.54 48.034 18.43-39.2 30.06-60.517 64.95-67.997 113.84-1.183 9.13-1.45 16.48-1.628 25.65-17.934-12.65-23.73-26.54-22.235-48.46 3.051-44.73-15.284-95.4 43.826-109.46M503.967 1437.52l2.169 1.7c1.018 13.78 1.152 157.67-.996 162.43-3.65-1.2-7.752-5.09-10.762-7.75-10.954-12.66-13.465-21.78-13.476-38.37-.017-25.59-.538-51.12.175-76.72.52-18.66 9.664-29.58 22.89-41.29"/><path fill="#0d0a08" d="M894.795 934.363c48.3-3.075 54.186 45.639 51.033 81.067-1.222 13.73 1.529 28.84-1.077 43.1a49.6 49.6 0 0 1-9.118 21.21c-9.752 13-21.14 17.11-36.29 19.2-41.765-.73-53.646-29.91-52.035-66.16 1.835-41.29-11.333-91.783 47.487-98.417"/><path fill="#522919" d="M890.592 937.22c51.145-3.308 55.109 39.138 52.475 77.34-.962 13.95 1.703 29.46-.857 43.59a47.5 47.5 0 0 1-6.815 17.22c-7.889 12.16-18.14 17.38-31.651 20.49-49.925 3.05-56.358-36.81-53.76-75.16.971-14.34-1.315-29.804.882-44.405a47.8 47.8 0 0 1 6.226-17.719c8.037-13.426 19.262-18.053 33.5-21.356"/><path fill="#0d0a08" d="M1078.77 1182.36c12.45-.63 22.57 2.93 32.38 10.25 9.22 6.87 17.62 23.68 17.51 34.72-.17 17.43 2.37 68.54-1.02 83.18a46.7 46.7 0 0 1-9.86 19.76c-9.43 11.08-21.77 16-35.9 17.2-60.91-2.54-49.91-56.6-50.86-98.7-.8-35.13 7.32-61.42 47.75-66.41"/><path fill="#522919" d="M1074.77 1185.21c49.86-4.23 54.41 41.14 51.79 77.41-1 13.89 1.51 29.04-.6 43.27a44.8 44.8 0 0 1-5.96 16.78c-7.44 12.21-18.33 18.19-31.89 21.22-49.44 5.97-56.47-34.89-54.34-71.86 2.18-38.01-9.68-75.15 41-86.82"/><path fill="#0d0a08" d="M1078.98 1438.35c35.87 1.91 50.78 24.78 49.17 58.89-1.99 42.3 12.69 101.7-48.52 106.35-24.13-1.2-47.21-16.49-48.57-42.52-1.41-27.07-2.42-58.43.73-85.22 2.62-22.35 26.51-35.42 47.19-37.5"/><path fill="#522919" d="M1073.77 1441.23c40.45-2.84 54.34 26.39 51.56 62.15-1.43 18.4 2.06 41.44-1.21 59.61a48 48 0 0 1-7.84 19c-8.24 11.77-19.14 16.31-32.61 18.75-57.45 3.42-50.78-52.72-50.7-89.79.08-36.12-.96-59.62 40.8-69.72"/><path fill="#0d0a08" d="M1078.38 934.364c59.86-1.741 50.78 60.906 50.85 100.346.01 7.5.32 16.09-.92 23.43a49.3 49.3 0 0 1-8.71 20.93c-8.92 12.28-20.34 17.58-34.78 20.06-13.28.07-24.46-2.31-35.57-10.79-26.11-19.95-16.65-58.7-18.39-86.82-2.11-34.086 8.43-63.128 47.52-67.156"/><path fill="#522919" d="M1073.75 937.167c51.17-3.262 55.54 37.481 53.11 76.023-.87 13.88 1.49 29.34-.65 43.34a46.3 46.3 0 0 1-7.6 19.23c-7.71 11.33-18.14 17.34-31.27 20.09-11.45.52-20.39.12-30.85-5.86a44.16 44.16 0 0 1-20.69-27.06c-5.4-19.92-1.85-65.106-.94-86.983.85-20.26 19.9-34.474 38.89-38.78"/><path fill="#0d0a08" d="M527.401 934.306c24.917-1.659 46.947 14.845 50.675 40.118 2.278 15.798.458 32.546 1.13 48.376 1.599 37.68-.687 69.6-45.78 76.09-45.287 1.94-54.088-34.85-52.373-70.56 1.901-39.596-9.254-86.693 46.348-94.024"/><path fill="#522919" d="M523.578 937.241c11.002-1.205 20.284-.463 30.135 5.236a45.59 45.59 0 0 1 21.35 29.409c2.325 10.043 2.691 75.754.833 86.264a48.4 48.4 0 0 1-6.925 17.77c-7.703 11.89-18.078 17.12-31.395 19.94-61.859 3.32-54.623-51.19-53.945-93.06.141-8.703-.244-18 1.184-26.587a49.3 49.3 0 0 1 6.219-17.098c7.9-13.192 18.415-18.352 32.544-21.874"/><path fill="#0d0a08" d="M707.226 934.206c59.893-2.651 55.081 50.414 54.539 90.764-.481 35.79 1.892 63.59-41.316 73.29-12.493 1.04-23.175-.11-34.119-7.27a49.03 49.03 0 0 1-20.897-31.35c-4.223-21.02-1.165-61.949-.369-84.142.756-21.063 22.078-37.493 42.162-41.292"/><path fill="#522919" d="M703.338 937.26c10.774-1.332 21.186-.649 31.025 4.343 10.629 5.393 18.538 15.245 22.053 26.578 3.593 11.584 3.976 73.809 2.042 88.009a52.6 52.6 0 0 1-5.987 18.52c-6.367 11.64-17.029 16.63-29.063 20.18-47.184 8.64-59.702-31.69-56.646-68.88 3.038-36.994-10.9-73.544 36.576-88.75"/><path fill="#795548" d="M1510.43 766.761c15.21-.616 45-1.081 58.91 5.871 2.07 3.274 20.75 9.548 26.3 12.475 59.51 31.401 89.06 83.976 89.7 149.994-14.73-.301-29.29-.565-44.05.103-55.6 2.517-100.38-8.552-144.92 34.479a112.7 112.7 0 0 0-34.32 79.817c-.61 31.18 11.5 61.26 33.54 83.32 25.4 25.52 61.42 36.59 96.53 35.17 29.98-1.22 62.54.66 92.01-.98l.09 134.72c.04 19.3.92 47.45-.25 66.25-.92 5.7-1.55 11.46-2.23 17.2-5.79.74-13.58.88-19.56 1.14-.45-55.17-38.54-103.55-89.02-123.27a141 141 0 0 0-37.5-9.34c-14.26-1.48-31.26-.9-45.84-.81l-65.56.27c-15.07.09-30.13.08-45.19-.01-12.81-.16-25.13-.93-37.86.58-12.55 1.51-24.8 4.92-36.32 10.13-33.77 15.17-51.26 37.41-63.84 70.99-1.54-89.62-.35-183.72-.32-273.58l.1-70.607c.05-21 .62-40.433-2.23-61.376a184.3 184.3 0 0 0-21.67-64.087c-28.82-52.118-72.57-79.571-128.3-95.44q67.83-1.04 135.66-.238 81.015.404 162.03-.154l69.85.084c9.31.02 48.43 1.029 54.26-2.701"/><path fill="#522919" d="M736.652 1181.4c1.572-3.51-1.096-4.3 4.547-3.4.682 2.5 1.66 2.05 3.67 5.42 2.595 1.11 14.599 5.76 16.858 6.06 43.77 17.38 81.062 56.16 89.866 102.78 6.341 33.58 3.866 77.56 3.814 112.37l.109 154.64c-.174 24.59-3.686 54.94 4.129 77.62 8.225 23.88 34.568 27.77 38.697 35.13H589.773c-2.585-9.26-1.067-71.55-1.128-84.43l-.454-185.43c-.023-21.56.428-44.69-.052-66.11-1.784-79.57 44.555-136.13 120.651-154.59 11.146-1.19 16.818-1.91 27.862-.06"/><path fill="#0d0a08" d="M736.652 1181.4c1.572-3.51-1.096-4.3 4.547-3.4.682 2.5 1.66 2.05 3.67 5.42-2.878-.81-5.357-1.33-8.217-2.02"/><path fill="#9e9e9e" d="M1240.84 1607.34v-164.02c-.04-29.44-.25-59.23.02-88.58.23-25.7 14.77-50.94 33.56-67.98 26.54-24.07 56.42-32.58 91.68-31.02 7.72 1.1 14.63 1.97 22.21 3.81 24.45 8.55 39.61 16.92 57.61 35.83 37.16 39.02 32.24 83.36 32.31 133.32-35.67 47.5-34.43 100.09.64 147.74-.17 19.5 1.14 38.68-8.54 56.36-11.97 21.86-35.9 38.03-61.3 37.06-1.1-.04-1.22.11-2.44.44 5.58.33 11.15.55 16.74.67l-.29 1.04c-53.89.07-112.02 1.2-165.54-.16 2.7-.19 7.65-.14 9.6-1.39-8.09-.95-17.95-.81-26.23-.92-.47-19.09 1.38-43.76-.03-62.2"/><path fill="#3c1f15" d="M741.199 1178c5.643.6 14.389.05 20.226-.25 55.508-2.82 111.289 15.45 147.268 59.45 18.606 22.75 31.222 49.02 35.298 78.36 2.664 21.77.78 47.08.879 69.43.366 59.02.331 118.05-.106 177.07-.185 23.36-.244 46.72-.179 70.09.043 6.24.873 30.9.285 36.02a50 50 0 0 1-.567 3.73c-12.42.2-24.842.2-37.262-.01l-8.699.13c-4.129-7.36-30.472-11.25-38.697-35.13-7.815-22.68-4.303-53.03-4.129-77.62l-.109-154.64c.052-34.81 2.527-78.79-3.814-112.37-8.804-46.62-46.096-85.4-89.866-102.78-2.259-.3-14.263-4.95-16.858-6.06-2.01-3.37-2.988-2.92-3.67-5.42"/><path fill="#0d0a08" d="m761.727 1189.48 1.83-1.75c4.875 1.08 8.42 3.41 12.791 5.51 42.001 20.19 75.123 64.51 80.049 111.3 3.205 30.45 1.768 64.38 1.754 95.3l.095 165.24c-.199 49.79-10.979 86.61 48.087 104.62l.708 2.19-8.699.13c-4.129-7.36-30.472-11.25-38.697-35.13-7.815-22.68-4.303-53.03-4.129-77.62l-.109-154.64c.052-34.81 2.527-78.79-3.814-112.37-8.804-46.62-46.096-85.4-89.866-102.78"/><path fill="#795548" d="m1481.35 1579.21 1.48 1.46c39.35 38.4 76.34 35.52 126.79 34.52 24.29-.47 50.54.31 75.28-.03-6.62 22.14-19.46 35.09-39.55 45.86-5.91 3.17-13.36 4.27-18.6 8.3-14.15 5.5-179.78 2.21-203.71 2.69l.29-1.04c5.66.35 10.42-2.11 15.37-4.58 38.44-19.21 42.87-49.21 42.65-87.18"/><path fill="#FAFAFA" d="M1684.13 1167.01c17.47 3.04 30.72 10.04 41.23 24.73a64.2 64.2 0 0 1 10.98 25.76c5.44 28.37.7 84.55.17 115.22-.44 24.75-29.42 46.6-52.4 52.15l-.14-16.89c1.17-18.8.29-46.95.25-66.25z"/><path fill="#795548" d="M1240.84 1607.34c1.41 18.44-.44 43.11.03 62.2 8.28.11 18.14-.03 26.23.92-1.95 1.25-6.9 1.2-9.6 1.39l-19.37.11q-37.845.24-75.69-.12c11.82-2.64 22.31 1.17 33.31-3.58 21.89-9.44 32.05-20.91 41.68-41.68.4 14.75-.09 29.48.82 44.23l1.31-.27c2.18-6.88-.06-51.37 1.28-63.2"/><path fill="#65f3a4" d="M1628.17 1388.65c11.84.07 23.68.03 35.51-.13 23.78-.38 41.29-4.56 58.7-22.08 22.6-22.73 17.6-52.34 17.92-81.44.18-17.26-.11-34.58-.12-51.84 2.08-31.1-22.83-66.49-55.64-68.13-43.97-2.2-66.65 7.25-102.07-26.93-72.7-70.17-25.5-206.043 80.19-200.482 17.17.903 35.28-.413 52.55 1.903 66.93 7.956 121.1 37.929 168.34 85.579.63.27.61.47 1 1.08 46.04 50.94 75.44 110.96 78.67 180.43 1.86 39.98-.45 80.38.63 120.27.27 3.25 1.72 14.5-.61 16.82a281.9 281.9 0 0 1-90.72 195.63c-63.04 57.63-128.47 75.09-210.95 73.35-40.53-.86-65.55.79-95.74-33.57-55.59-62.03-28.7-160.04 48.94-187.38 4.24-1.3 9.03-2.16 13.4-3.08"/><path fill="#264f3b" d="M1963.85 1326.88c.27 3.25 1.72 14.5-.61 16.82-.34-4.15.16-12.69.61-16.82"/><path fill="#65f3a4" d="M905.389 388.819c3.033-.874 6.79-2.49 9.319-.058q3.706.085 7.411.229c73.784 2.917 138.551 35.329 188.961 89.683 36.73 39.604 66.49 99.863 66.34 155.46-.06 18.634-15.47 36.164-29 48.47-25.49 23.173-56.05 34.618-90.71 33.049-40.05-1.812-79.491-25.884-98.705-61.143-6.278-11.382-8.591-26.352-18.008-35.837-28.885-29.093-69.723-2.526-76.916 31.609-3.428 16.273-2.238 32.938-2.222 49.31l.123 67.427-221.102-.1-.117-76.172c-.091-28.092-.891-50.653 5.059-78.55 11.469-53.769 35.796-99.211 73.252-139.071a263.98 263.98 0 0 1 186.315-84.306"/><path fill="#264f3b" d="M905.389 388.819c3.033-.874 6.79-2.49 9.319-.058-3.426.351-5.917.177-9.319.058"/><path fill="#65f3a4" d="M360.395 942.795c3.207-.891 22.875-2.435 23.678-.151-.305.404-.496.436-.902.694a121.61 121.61 0 0 0-63.349 69.422 123.79 123.79 0 0 0 4.261 93.37c15.815 33.44 34.448 46.49 65.945 62.39-45.234 1.87-80.817 23.51-80.5 73.22.18 28.31.498 56.78.436 85.09.114 12.64 4.635 24.24 12.386 34.12.71.54.596.39.993 1.17 15.004 19.27 40.986 23.87 63.88 24.06l.895 227.24c-18.502-.14-37.915.12-56.235-2.06a279.1 279.1 0 0 1-156.537-74.23 280.8 280.8 0 0 1-88.622-200.01c-.49-24.6-.15-49.34-.364-73.96.29-18.21-.625-36.62.315-54.81 7.668-148.32 127.208-262.977 273.72-265.555"/><path fill="#264f3b" d="M360.395 942.795c3.207-.891 22.875-2.435 23.678-.151-.305.404-.496.436-.902.694-7.303-.597-15.257-.23-22.776-.543"/><path fill="#65f3a4" d="M1214.4 388.425c2.36-.155 4.73-.233 7.1-.236a265.5 265.5 0 0 1 187.98 77.201 282.03 282.03 0 0 1 81.76 169.144c4.02 36.411 2.52 93.874 2.64 131.897l-149.63.103q-36.255.372-72.51.147c.14-20.321 1.87-105.607-2.71-119.822a63.2 63.2 0 0 0-32.63-37.182c-21.53-10.339-36.7-6.992-57.88.507-13.09-76.668-50.88-127.667-111.15-173.758 48.09-32.527 88.51-45.458 147.03-48.001"/><path fill="#795548" d="M1390.09 1256.23c25.52-.86 52.38-.06 78.05-.39 56.34-.74 101.9-4.83 147.28 36.28 28.07 25.44 41.22 56.69 43.16 93.95-11.92-.25-24.37-.09-36.33-.11-55.35.34-100.05-5.63-141.24 38.77.12-27.49 1.96-58.97-6.22-84.98a120.86 120.86 0 0 0-56.29-69.79c-9.53-5.38-18.48-8.45-27.62-13.3z"/><path fill="#522919" d="M1585.74 938.491c13.42-.197 26.83-.206 40.24-.027-86.67 30.231-109.43 143.956-40.95 205.646 10.26 9.24 21.03 14.28 33.34 20.13-14.2 1.04-29.39.88-43.62.68-26.54-.95-55.35-13.31-74.72-31.42a111.1 111.1 0 0 1-35.54-79.25 109.69 109.69 0 0 1 30.03-79.17c26.72-28.011 54.27-35.691 91.22-36.589M1530.12 1606.95c-80.18-26.48-99.86-127.63-41.69-186.36 34.58-34.91 76.42-31.71 121.64-31.95-1.68 2.17-10.29 6.47-13.1 7.87-51.16 25.55-75.34 92.92-56.07 146.02 12.7 35 34.97 53.54 67.4 69.08-20.06 3.23-58.95 1.93-78.18-4.66M952.209 647.509c13.057 24.739 27.811 42.011 53.111 55.402a127.14 127.14 0 0 0 96.9 9.467c32.63-10.167 56.05-31.108 73.51-59.863l1.14.07c1.66 7.36-.32 23.366 3.12 28.107l-.13 85.715-.81-.32c-7.3 2.04-83.97.952-95.6.649-12.32.454-26.32-.352-38.98-.317l-92.646.565c.157-40.201-.675-79.079.385-119.475"/><path fill="#3c1f15" d="M1176.83 766.022c.09-2.474.13-5.043.32-7.497.09-1.135.36-2.391.36-3.548-.01-.878-.04-1.836.15-2.698.06-.286.17-.788.49-.881.04-.013.28-.07.31.063.61 2.661.5 12.257.59 14.626-7.3 2.04-83.97.952-95.6.649 7.31-1.469 27.73-.97 35.91-.959 19.16-.122 38.32-.04 57.47.245"/><path fill="#FAFAFA" d="m383.662 1171.41 2.846.34c.37.41.74.83 1.111 1.24-.187 60.59-.41 153.24-.514 210.61-22.387.03-36.285-2.69-54.603-15.74-12.133-11.49-20.871-25.8-20.07-42.48 1.082-22.53-2.895-83.76 1.419-102.7a62.4 62.4 0 0 1 14.64-28.04c14.334-15.81 34.432-22.08 55.171-23.23M1178.85 612.356c21.14-7.182 36.17-10.696 57.49-.047a59.89 59.89 0 0 1 30 34.345c4.75 13.98 3.23 100.085 3.07 120.209-13.35.066-80.74 2.014-89.55-.456l.13-85.715c-.03-21.225.61-47.54-1.14-68.336M910.725 608.134c11.044.408 19.848 4.148 28.001 11.66 15.024 13.841 11.02 42.821 11.013 62.171q.012 42.548-.44 85.093l-44.799.046-40.445-.063.077-68.517c-.009-12.83-.863-31.57 1.363-43.669a64.2 64.2 0 0 1 9.978-24.485c8.784-12.901 20.25-19.416 35.252-22.236"/><path fill="#522919" d="M386.803 943.934c2.038 2.191 1.349 19.498 1.351 23.223l.007 45.263-.179 152.41c-19.026-10.22-25.586-13.16-40.706-28.71a124.6 124.6 0 0 1-17.911-24.91 120.38 120.38 0 0 1-9.604-90.74c11.239-37.813 33.889-58.577 67.042-76.536"/></svg>