<svg xmlns="http://www.w3.org/2000/svg" width="1024" height="1024" preserveAspectRatio="none" style="display:block" viewBox="0 0 2048 2048"><path fill="#FAFAFA" d="M0 0h2048v2048H0z"/><path fill="#0a0a07" d="M1141.71 667.534c-6.19-3.607-11.83-6.844-17.22-11.58-24.4-21.439-29.61-60.027-13.17-87.675a65.92 65.92 0 0 1 40.63-30.572c17.47-4.435 36.64-1.228 51.99 8.127a67.74 67.74 0 0 1 31.16 42.849 68.49 68.49 0 0 1-8.81 52.501c-13.03 20.323-32.17 30.372-55.76 32.692l-.57 2.148c16.03 2.364 32.99 6.713 48.72 10.584 59.3 14.599 107.87 32.421 160.34 63.13a593.8 593.8 0 0 1 276.93 32.86c51.78 19.142 119.62 58.303 143.26 109.713 31.13 7.899 59.19 19.921 86.42 37.255 39.46 25.113 81.01 68.507 70.1 119.544-10.91 51.01-59.72 81.54-101.75 105.76-6.18 3.56-6.6 13.54-1.62 18.39 4.8 4.06 10.85 6.68 16.48 9.39 51.39 24.79 114.05 79.09 100.66 143.17-12.02 53.89-61.94 88.72-108.11 112.69-12.29 6.38-26.08 10.3-37.8 17.58-5.89 3.65-7.54 6.53-8.93 13.07-3.06 14.48 11.01 19.6 19.94 27.87 8.08 7.63 15.33 16.1 21.61 25.27 45.45 67.58.95 134.64-59.24 173.12-110.65 70.75-250.99 93.59-380.43 89.22-44.67-1.5-85.57-8.88-129.06-17.25-18.79 13.56-41.9 29.66-62.13 40.99-76.84 43.05-165.84 69.86-253.171 81.53-139.939 18.69-291.072 5.71-419.197-56.93-36.873-18.03-59.727-34.28-91.799-58.54-68.941-5.96-115.762-14.77-181.154-40.64-118.429-46.85-218.874-154.64-83.086-255.29 15.49-11.51 46.029-22.48 28.519-46.81-3.564-3.59-11.128-8.5-15.597-10.48-89.286-39.62-174.662-125.91-85.834-216.22 27.484-27.94 53.35-40.59 89.786-56.26-36.89-21.11-77.813-48.95-91.26-90.98-27.902-87.207 63.171-141.989 130.665-166.63 40.476-81.561 132.566-117.406 216.915-135.103 18.922-3.969 39.269-3.387 57.648-7.97 4.524-1.128 20.611-11.107 25.76-13.85a456 456 0 0 1 48.785-22.73c44.222-17.291 89.274-29.515 135.883-38.004 5.919-.057 16.397-5.91 21.485-6.012 24.431-.493 46.911-3.101 71.083-6.436 3.409-23.286 7.124-37.078 22.31-55.995 18.842-23.47 45.176-36.594 75.048-39.555a113.19 113.19 0 0 1 82.401 25.245 103.4 103.4 0 0 1 37.02 70.214c23.26.069 65.92 5.53 89.63 8.587 3.24.593 5.93.828 9.18 1.138l-.06-.878z"/><path fill="#9e9e9e" d="M1169.96 676.024c-.73-.148-4.99-.914-5.31-1.603.67-.521 4.78-.473 5.88-.545z"/><path fill="#4eac50" d="M1048.11 663.949c89.5 2.497 193.27 25.46 275.73 60.124 19.26 8.098 37.03 18.219 55.08 28.691 18.1-3.547 42.79-4.217 61.35-5.013 2.01-1.679 9.45-1.758 11.45.002 66.67 2.206 122.3 9.638 186.22 31.347 59.76 20.295 130.89 56.683 159.69 115.279 18.74 5.456 35.25 10.468 52.35 18.464 124.48 58.212 146.02 158.587 19.05 230.807-8.15 4.64-20.23 7.28-22.51 17.6a14.09 14.09 0 0 0 4.28 13.58c6.67 6.04 21.26 11.8 29.58 16.53 47.07 25.98 102.67 80.29 85.38 139.3-18.7 63.87-85.24 97.44-141.41 121.97-13.74 6-17.2 22.28-6.78 33.13 5.85 6.1 13.4 11.71 19.75 17.99 7.21 7.15 13.61 15.06 19.09 23.6 13.63 21.48 20.14 49.07 13.65 73.92-19.21 73.6-110.65 118.49-176.18 141.43-129.98 45.53-273.01 51.67-406.88 21.78-19.81 14.47-44.53 32.36-66.36 43.9-197.48 104.47-459.6 118.53-663.381 23.85-34.568-16.06-65.495-37.72-95.33-60.35-67.484-5.48-116.035-14.99-179.197-39.77-113.243-44.44-218.357-148.05-88.007-248.55 10.411-8.03 31.663-17.67 36.616-30.14 10.16-25.6-22.226-34.54-38.56-44.05-37.564-19.51-77.007-46.99-94.903-86.88a91.12 91.12 0 0 1-1.845-71.55c20.404-52.61 74.852-80.58 123.029-101.76-38.148-22.01-79.765-48.66-94.049-92.79-26.913-83.144 63.095-141.147 130.361-163.16 36.622-78.782 131.139-117.024 211.639-133.8 20.434-4.259 41.267-4.076 61.311-8.602 4.077-.921 16.995-9.056 21.117-11.375a415 415 0 0 1 29.876-15.329c47.282-21.557 108.59-39.763 159.861-48.021-2.854 3.314-6.201 6.977-8.577 10.624-15.135 23.23-10.039 53.631 14.121 68.498a47.17 47.17 0 0 0 36.436 5.582c27.372-6.685 40.463-34.08 32.905-60.326-4.671-16.219-14.802-23.379-28.525-31.089 14.537-1.474 30.246-3.778 44.835-5.627a416 416 0 0 0-.06 4.026c-.31 31.877 8.575 58.489 31.454 81.544a107.25 107.25 0 0 0 75.962 31.369 110.61 110.61 0 0 0 78.801-32.52c23.98-24.286 31.66-51.075 31.58-84.235"/><path fill="#2e5229" d="M1440.27 747.751c2.01-1.679 9.45-1.758 11.45.002-3.8.399-7.64.399-11.45-.002"/><path fill="#0a0a07" d="M1172.61 795.584c-6.03-18.76-5.9-37.683 8.34-53.114a45.48 45.48 0 0 1 31.68-14.648 47.39 47.39 0 0 1 34.64 13.112c22.66 21.891 18.21 50.67-3.17 71.313 53.31 13.299 88.89 28.131 133.48 61.679q1.605-.027 3.21-.025c60.22-.065 134.26 21.705 177.36 65.463 25.63 26.025 33.84 47.369 33.61 82.916 52.65 14.51 123.95 50.56 134.24 110.23 1.53 8.82.82 16.55-.13 25.4.06 9.54.73 25.46-.69 34.49-2.62 41.58-42.15 73.34-76.97 89.59-4.76 2.22-11.5 4.98-15.45 8.27-.23 1.23-.92 7.38-.09 7.87 38.92 22.92 74.78 59.89 54.52 109.06-16.69 40.47-63.88 61.73-103.71 78.43 3.23 4.38 6.74 8.76 9.34 13.52 19.01 34.83-2.56 64.07-34.17 79.09-55.5 26.38-118.31 18.4-174.7.21-48.89 33.85-123.94 67.42-182.48 79.04 3.1 6.54 5.19 11.48 5.52 18.82.93 20.64-18.2 37.92-38.47 37.33a35.72 35.72 0 0 1-25.26-11.52c-8.59-9.31-10.59-19.56-9.92-31.62-9.29 2.42-20.28 5.01-29.78 5.8-28.17 29.13-60.96 31.15-93.77 8.37-11.659.19-19.57-.01-31.228-.84 1.537 4.64 2.738 9.4 3.596 14.22a61.1 61.1 0 0 1-10.71 46.38 66.04 66.04 0 0 1-43.267 26.55 64.24 64.24 0 0 1-47.739-11.74c-19.34-14.21-27.952-38.24-24.926-61.7 1.779-13.79 7.741-23.66 15.853-34.53-17.554-5.05-36.633-8.93-53.756-14.75-2.128 5.57-4.289 10.29-7.658 15.19a56.88 56.88 0 0 1-37.913 24.14 63.2 63.2 0 0 1-46.504-10.61c-15.501-10.94-21.558-24.94-24.52-42.83-46.38-1.17-92.653-.77-133.651-26.43-23.577-14.75-43.503-40.09-36.166-69.55 2.821-11.33 8.106-19.23 14.483-28.85-44.001-11.71-89.529-20.88-131.771-38.44-28.589-11.89-60.387-33.54-72.28-63.43-18.793-47.24 12.397-91.06 56.53-108.01-62.429-26.79-110.192-62.81-101.401-136.95 2.605-21.97-.008-32.08 12.455-53.34 25.52-43.53 78.162-66.94 125.044-80.1-1.958-50.596 19.879-79.039 60.958-107.236 48.597-33.357 102.278-44.416 159.977-46.651 32.835-33.619 97.078-55.263 141.997-66.739 20.853-44.65 66.999-48.236 101.326-15.555a860 860 0 0 1 109.941-8.883c5.83-12.017 12.8-21.461 25.25-27.434a52.49 52.49 0 0 1 40.04-1.871c15.66 5.703 25.52 17.455 32.3 32.106 21.77 1.831 45.01 5.203 66.56 8.807"/><path fill="#2e5229" d="M1725.87 1157.91c.06 9.54.73 25.46-.69 34.49-.53-7.81-1.09-27.21.69-34.49"/><path fill="#FAFAFA" d="M900.556 795.39c37.645-4.596 68.064-8.357 106.784-8.862-3.31 22.257-.79 43.024 18.42 57.993a51.23 51.23 0 0 0 38.2 10.507 52.27 52.27 0 0 0 34.42-20.423c10.5-14.213 11.09-28.443 8.54-44.953 21.99 1.861 44.8 5.37 66.7 8.493 18.44 26.876 40.57 31.382 68.99 16.346 50.73 12.664 91.9 28.6 133.62 61.775 72.31 2.717 151.33 21.835 196.23 84.54 14.61 20.411 16.87 39.314 16.54 63.624 14.83 3.03 38.33 12.98 52.3 19.56 32.78 15.42 67.12 41 79.16 76.81a75.35 75.35 0 0 1-4.65 57.78c-17.11 33.94-59.72 59.05-94.72 70.44 10.41 25 12.5 57.96-1.87 82.01-30.63 51.25-100.61 74.33-156.84 82.97-27.22 4.18-53.94-.08-79.96 9.72-29.2 7.63-50.45 24.59-76.93 37.31-58.4 28.05-127.34 38.83-191.56 42.07-19.6.98-39.55-1.83-59.03-1.33-22.01.57-43.84 1.66-65.592 1.5a397 397 0 0 1-112.005-17.62c-51.048-15.83-72.896-39.52-131.28-48.34-89.789-13.56-174.053.6-256.632-45.05-44.204-24.44-87.011-74.97-57.188-127.05-24.588-6.53-45.397-14.02-67.337-26.42-48.36-27.34-85.618-78.5-51.211-132.33 24.881-38.92 79.463-65.04 123.54-75.28-.271-4.07-.422-8.16-.454-12.24-.455-48.795 34.56-80.915 74.004-103.958 43.744-25.554 94.56-36.706 144.92-37.056 35.217-33.895 92.863-54.765 139.791-66.099-2.934 19.151-1.702 27.051 6.466 44.633-10.962 4.193-21.734 8.256-32.436 12.923-6.805 2.968-22.188 11.943-28.245 13.063-24.033 4.443-41.883 3.546-65.732 12.021-24.062 8.552-31.385 21.746-51.468 33.143-13.372 6.613-27.444 13.76-41.322 19.152-13.407 5.209-24.02 7.624-36.419 15.351-23.407 14.587-35.004 32.926-41.213 59.267-30.8 12.84-59.837 34.2-73.573 65.52a86.1 86.1 0 0 0-.963 67.24c12.433 30.94 44.03 55.67 73.977 68.34 3.445 21.03 11.704 36.97 26.006 52.63.647.26.66.48 1.109 1.07 3.421 2.14 4.004 2.71 6.156 6.25 14.731 12.94 28.714 21.24 47.536 27.28 25.12 8.07 41.837 8.66 62.563 26.01.781.37.634.28 1.211.94 30.901 31.83 50.243 39.75 95.481 48.12 9.252 1.71 24.794 1.76 32.586 4.85 12.074 4.8 24.943 12.63 37.143 18.15a273.35 273.35 0 0 0 108.948 24.37c38.064.6 75.581-8.86 113.613-11.67 24.48-1.81 47.2 2.61 70.65 2.67 8.54-.89 14.19-.12 21.83-.66-3.68-.18-11.83 1.12-14.05-1.25-24.14-.37-51.01-4.77-74.81-3.62-14.39.7-35.39 3.63-49.902 5.97-45.244 7.83-87.969 9.03-132.799-2.99-30.813-8.27-54.183-20.84-82.241-34.49-2.542-1.24-18.345-1.99-22.699-2.61-22.757-3.25-44.921-8.41-65.548-18.88-21.04-10.03-34.456-32.01-52.445-41.16-27.756-14.12-55.139-12.78-82.563-32.68-26.079-18.93-39.911-38.61-45.981-70.1-31.063-14.3-61.382-36.14-74.118-69.19a83.17 83.17 0 0 1 1.954-64.16c13.741-30.23 42.974-52.29 73.399-63.91 6.321-31.558 23.273-52.521 52.924-65.98 7.53-3.417 15.836-5.258 23.371-8.428 14.791-6.222 29.557-13.022 43.792-20.434 17.549-10.563 25.34-22.688 46.613-31.021 25.134-9.846 44.591-7.542 69.882-13.333 4.165-.953 20.478-9.976 25.779-12.295 11.111-4.86 22.216-9.225 33.515-13.721a58.22 58.22 0 0 0 34.935 26.367 57.45 57.45 0 0 0 43.735-6.117c30.773-18.19 36.946-52.813 18.453-83.068"/><path fill="#0a0a07" d="M1510.47 1023.65c-3.3-25.971-13.09-43.036-33.65-59.908-24.07-19.756-53.33-20.8-80.62-33.442-10.85-4.997-19.6-13.335-29.34-20.056-14.79-10.203-33.11-15.935-50.14-20.831-24.84-7.143-49.59-10.793-75.3-12.914-2.33-.192-4.63-.657-5.93-2.583 2.23-1.559 42.41 4.232 47.41 5.181 28.85 5.473 60.48 13.028 85.48 28.747 9.76 6.135 17.26 15.155 28 19.785 38.92 16.767 74.52 15.689 101.4 54.418 8.92 12.844 12.95 24.503 15.6 39.923 18.97 6.05 45.84 30.42 57.5 46.59 26 36.03 22.86 77.15-5.19 111.07-16.31 19.72-28.58 26.8-50.94 39.48-6.38 32.27-19.3 52.42-46.73 71.46-22.47 15.6-47.16 19.5-71.22 32.53-18.44 9.08-30.06 31.17-47.2 40.96-14.16 8.1-40.23 18.07-56.27 20.1-27.08 3.43-40.78 10.22-64.84 21.15-22.77 10.33-62.65 17.79-88.19 17.82-2.37-.26-4.72-.53-7.11-.59l.42-.02-1.76.01h.03l.03.05c2.56-.49 3.9-.68 6.51-1.47 30.73-1.65 59.33-6.47 88.15-17.87 11.33-4.49 23.75-11.38 34.83-15.02 9.1-2.98 23.27-4.5 33.06-6.7 18.09-4.07 38.16-10.35 54.16-19.89 17.54-10.47 28.15-31.56 47.24-41.05 35.71-17.76 64.57-19.43 92.86-51.15a94.57 94.57 0 0 0 23.34-51.88c7.3-4.03 15.05-8.15 21.78-12.5 41.79-27.05 68.37-78.6 40.92-125.42-13.33-22.74-39.68-46.89-64.29-55.98"/><path fill="#474a48" d="M1115.31 1421.24c5.2-.46 17.44-.24 23.11-.13-2.61.79-3.95.98-6.51 1.47l-.03-.05h-.03l1.76-.01-.42.02c2.39.06 4.74.33 7.11.59-7.9 1.27-24.88 1.26-32.77.02 8.54-.89 14.19-.12 21.83-.66-3.68-.18-11.83 1.12-14.05-1.25M531.643 1276.18c3.421 2.14 4.004 2.71 6.156 6.25-3.206-2.67-3.693-2.94-6.156-6.25"/><path fill="#0a0a07" d="M1130.38 861.195c41-4.597 77.84 21.336 81.84 64.11.73 7.879-.07 14.429-1.01 22.284 23.85 4.183 37.26 6.297 60.29 13.058 43.32 12.719 49.33 31.028 79.93 54.573 27.48 21.14 54.83 28.74 73.36 65.15a91.51 91.51 0 0 1 4.92 69.65c-13.27 39.7-47.23 55.05-78.04 78.63-19.97 15.29-38.8 36.75-61.92 47.97-31.76 15.42-67.15 22.5-100.53 33.43-23.76 7.86-40.75 18.02-66.39 22.37-31.26 4.9-63.12 1.92-94.86 1.7-29.564-.21-60.827 3.41-89.905 2.49-19.997-.64-47.875-6.41-66.226-12.54-12.089-4.27-23.33-11.07-35.128-14.52-14.214-4.14-29.704-6.86-44.162-10.54a280.3 280.3 0 0 1-73.918-30.66c-13.47-7.91-33.729-27.59-43.262-32.44-70.363-35.74-129.483-99.64-69.554-175.95 16.827-21.42 43.237-33.74 65.859-48.63 13.121-9.59 23.403-24.254 37.041-33.054 43.058-27.783 105.793-35.43 156.833-39.759l.087-.949.169-1.579c.498-5 .776-7.675 2.88-12.401a41.93 41.93 0 0 1 24.705-22.604c23.155-8.057 44.135 6.037 51.328 28.306 29.082-.018 57.583-2.533 86.593-2.455 13.42.036 26.91.364 40.33.613 3.33-36.666 23.72-57.932 58.74-66.253"/><path fill="#694421" d="M945.886 932.193c10.549-.073 21.856-.065 32.364-.942 31.28-2.61 62.14-1.618 93.52-1.18-.04 13.311.89 22.739 7.07 34.923a71.23 71.23 0 0 0 41.73 35.736c40.26 12.95 78.82-11.167 90.83-50.701 33.91 8.6 71.37 9.365 101.81 34.652 15.31 12.718 24.75 24.159 41.75 36.409-17.91 5.48-36.18 12.47-53.98 18.56l-111.01 37.77c.78 8.59 1.82 15.87 2.38 24.78.95 2.54.51 5.06.47 7.89.35 6.52.79 13.03 1.33 19.54 10.36 10.64 21.16 20.19 32.43 29.85-19.78 12.4-40.63 29.59-59.45 43.62-26.96-2-58.88-3.1-85.38-6.16-14.7 10.72-32.7 20.45-45.58 30.03a5204 5204 0 0 1-85.387-36.82c-9.463-4.16-29.829-12.31-37.831-17.52a783 783 0 0 0-25.885 12.98c-1.289 1.97-5.469 3.23-7.78 4.05-1.812 1.01-1.783.93-3.747 1.62-2.184-3.6 7.729-45.87 9.273-53.26-50.677-20.1-101.187-42.19-151.841-62.83l-60.167-24.56c-10.218-4.2-25.429-9.95-34.79-15.15 10.949-7.9 25.118-14.13 35.971-22.69 14.123-11.12 27.671-26.902 42.793-36.6 34.639-22.214 108.437-31.805 149.066-34.62 1.565 9.002 4.354 16.049 10.546 23.029a40.37 40.37 0 0 0 29.661 13.673 39.36 39.36 0 0 0 28.582-11.592c10.062-10.063 11.137-21.246 11.252-34.487"/><path fill="#52351a" d="M1192.35 1102.2c.95 2.54.51 5.06.47 7.89-.73-3.65-1.14-4.37-.47-7.89M879.287 1189.66l.458-.31c2.816-1.93 4.052-2.61 7.322-3.74-1.289 1.97-5.469 3.23-7.78 4.05"/><path fill="#030efc" d="M1021.59 1061.37c38.34-2.31 71.32 26.81 73.78 65.13 2.46 38.33-26.53 71.43-64.84 74.04-38.531 2.63-71.858-26.56-74.333-65.1s26.845-71.75 65.393-74.07M912.119 997.638c28.041-4.509 54.436 14.542 58.985 42.582 4.549 28.03-14.466 54.45-42.494 59.04-28.086 4.6-54.574-14.46-59.133-42.55s14.543-54.55 42.642-59.072M1024.47 953.408c25.53-4.202 49.71 12.831 54.35 38.28 4.64 25.452-11.98 49.922-37.34 54.992a47.42 47.42 0 0 1-45.273-15.6 47.4 47.4 0 0 1-8.588-47.102 47.42 47.42 0 0 1 36.851-30.57M1127.81 1025.46c16.98-1.1 31.62 11.81 32.64 28.79 1.03 16.98-11.95 31.55-28.94 32.49-16.87.94-31.32-11.94-32.34-28.8-1.01-16.86 11.79-31.37 28.64-32.48M812.851 1004.54c12.624-1.45 24.063 7.54 25.629 20.15 1.565 12.61-7.328 24.13-19.926 25.8-12.75 1.69-24.436-7.33-26.021-20.1-1.584-12.76 7.541-24.37 20.318-25.85M1126.92 1115.08c12.54-1.63 24.01 7.26 25.56 19.81s-7.42 23.97-19.98 25.43c-12.45 1.45-23.73-7.41-25.27-19.85-1.53-12.44 7.26-23.78 19.69-25.39M913.329 1119c19.651-.67 27.157 18.67 7.473 29.08-18.151.24-26.605-18.59-10.436-27.46l1.383-.74z"/><path fill="#694421" d="m624.003 1045.91 168.243 69.94c21.604 9.03 56.537 21.33 75.686 31.02-3.761 17.55-5.906 34.74-10.099 52.1-44.296 22.16-96.333 43.79-138.751 66.87a212.6 212.6 0 0 1-27.187-20.38c-1.162-.76-1.217-.7-2.023-1.77l-1.265-1.11c-13.708-11.84-31.895-20.74-47-30.83-28.557-19.07-54.253-46.59-56.98-82.41-2.643-34.7 14.22-61.38 39.376-83.43M1368.44 1031.98c14.83.51 46.54 34.39 53.67 48.66 23.17 46.37 1.29 102.25-44.31 125.38-18.56-9.69-55.61-21.24-77.06-29.57-42.13-15.53-62.06-18.74-92.83-54.08l-3.23-35.29zM910.552 1189.93c2.327-.13 107.668 45.33 116.128 49.94-17.41 26.25-42.276 65.58-57.454 93.03-29.15 4.22-75.37-3-102.805-13.72-7.072-2.88-20.167-9.6-26.944-11.39-36.021-9.52-71.382-14.63-104.303-34.03a7724 7724 0 0 0 175.378-83.83M1087.44 1211.82c15.93 2.1 32.01 3.05 48.04 4.09 9.05.58 18.59.61 27.46 2.45 12.56 2.61 89.5 53.63 103.02 65.11-25.71 8.98-49.06 14.8-74.38 22.82-34.77 11.02-53.31 25.39-92.78 26.04-2.76 1.02-8.03.56-11.06.47l-1.43.01c-3.01.08-8.35.53-11.11-.48-30.86-.84-58.65.05-88.963-.28l.824-1.12c19.339-26.52 36.449-65.51 58.149-90.34 5.08-5.82 34.06-24.31 42.23-28.77"/><path fill="#52351a" d="M1087.74 1332.8c4.07-.62 7.07-1.29 11.06-.47-2.76 1.02-8.03.56-11.06.47M1075.2 1332.33c4.01-.78 7.05-.07 11.11.48-3.01.08-8.35.53-11.11-.48"/><path fill="#030efc" d="M1132.3 864.09c37.74-5.388 72.69 20.894 77.99 58.651s-21.06 72.644-58.83 77.859c-37.65 5.19-72.39-21.068-77.68-58.701-5.28-37.632 20.9-72.439 58.52-77.809"/><path fill="#FAFAFA" d="M1357.2 1023.19c2.08.58 8.29 4.77 10.51 6.17-54.33 18.33-111.48 38.57-165.92 55.75 1.34 13.21 2.47 26.44 3.41 39.68 5.44 5.31 26.69 25.85 32.11 28.68 41.64 21.76 97.05 34.75 138.88 54.53l-8.78 5.93c-13.76-4.07-30.68-10.87-44.36-16.04a3982 3982 0 0 0-84.83-31.78c-19.37 12.79-43.17 32.81-62.46 43.69 34.64 20.99 70.91 48.11 105.22 67.76-3.91 1.78-8.19 3.32-12.22 4.86-10.36-9.5-92-63.16-102.72-66.06-10.62-2.87-23.03-2.62-34.01-3.36-15.26-.96-30.5-2.2-45.71-3.72-10.54 5.55-34.38 21.86-43.78 29.55-3.67 3.01-14.28 20.4-17.3 25.21q-11.955 18.84-23.61 37.89c-5.544 9.21-11.524 20.24-17.706 28.81-2.714 1.72-7.707 1.25-11.155 1.28 8.847-13.87 17.49-28.93 26.257-43.06 10.174-16.4 21.684-33.91 31.234-50.53-11.11-5.91-32.76-14.28-45.254-19.63a3192 3192 0 0 1-73.025-32.42c-13.944 6.2-29.411 14.37-43.392 21.12l-77.289 36.86c-19.918 8.68-39.767 18.54-59.356 28-3.187-1.58-6.543-3.59-9.659-5.36 13.959-7.56 33.709-16.21 48.35-23.14l89.909-42.85c1.813-13.66 7.837-42.42 11.099-55.78-23.308-10.43-50.498-20.16-74.521-30.14l-170.699-70.95 9.151-6.9c8.894 5.11 26.586 11.91 36.449 15.98l66.912 27.38c46.893 19.04 95.959 41.07 142.556 59.04-4.257 17.31-8.014 39.95-11.51 57.81a641 641 0 0 1 42.041-21.08c40.446 16.86 84.253 38.52 124.628 53.53 13.57-7.78 33.68-20.9 46.22-29.83 28.18 2.38 56.6 3.79 84.85 6.07 21.3-16.51 41.72-30.9 63.23-46.86-11.39-8.63-23.73-20.61-33.94-30.63-2.01-14.11-2.67-34-4.34-49.45 53.22-19.23 110.59-37.74 164.53-56.01"/><path fill="#694421" d="m1238.27 1168.7 126.55 47.28c-23.38 15.38-41.02 34.67-65.34 51.64-5.79 4.02-12.46 10.47-19.55 6.24-33.47-19.99-64.94-43.76-98.17-64.05 16.24-11.17 41.47-28.95 56.51-41.11"/><path fill="#030efc" d="M901.582 901.61a37.28 37.28 0 1 1 7.915 74.13c-20.301 1.885-38.35-12.889-40.515-33.162s12.359-38.524 32.6-40.968"/><path fill="#010212" d="M961.174 843.383c15.207-4.296 31.013 4.57 35.275 19.787s-4.641 31.003-19.867 35.23c-15.178 4.213-30.902-4.654-35.15-19.822s4.584-30.912 19.742-35.195"/><path fill="#030efc" d="M964.699 845.315c14.178-2.476 27.675 7.022 30.132 21.203 2.456 14.181-7.059 27.665-21.244 30.102-14.157 2.433-27.609-7.06-30.061-21.214s7.023-27.619 21.173-30.091"/><path fill="#9e9e9e" d="M549.79 1507.83c-71.775-19.12-229.62-42.23-208.658-147.33 5.532-27.74 36.232-49 60.113-60.09 6.637 2.62 12.656 5.14 19.56 7 2.399 14.43.561 24.81.771 38.67 1.254 82.78 122.903 124.18 192.298 127.04 7.806-.31 23.745-1.12 30.716.71 14.084.66 27.476 1.35 41.576 1.16-21.382 50.37 29.352 90.07 72.757 69.84a54.31 54.31 0 0 0 28.05-30.55c2.652-7.36 3.319-13.66 3.286-21.42a319 319 0 0 1 33.131 14.98c-4.096 23.97-1.451 45.97 13.098 66.23a84 84 0 0 0 55.312 33.85c40.758 6.59 80.527-18.34 91.031-58.55 10.676.37 21.729-.23 32.429-.61 2.13-1.72 5.9-.77 9.1-.61l10.86-.42c2.69-1.54 13.16-.79 16.2-.6l3.5.01c3.63-.26 22.23-1.15 24.84.6 47.89 2.06 72.67-.41 119.65-8.46-2.11 12.22-2.16 22.33 3.5 33.82a40.24 40.24 0 0 0 23.97 20.77c45.83 14.95 74.66-33.82 51.05-75.1 42.17-14.49 86.55-54.88 135.33-56.01 1.23-.95 1.51-.97 3.2-.96 3.87 0 7.74.11 11.6.32l8.25-.41c1.54-1.24 1.59-.93 3.44-.42l9.34-.57c1.1-.81 1.24-.71 2.58-.38 54.92-6.39 122.16-26.41 158.22-70.89 24.57-30.3 18.05-53.66 21.3-88.02 9.07 5.25 18.86 10.54 26.6 17.61 82.05 74.93-6.22 141.95-79.42 165.21 22.08 26.2 29.01 55.78-1.47 79.21-53.76 41.33-133.7 31.49-193.23 12.1-49.79 33.72-124.78 68.55-184.12 78.92-24.63-19.66-52.68-17.6-65.51 13.42-9.03 2.07-19.53 4.76-28.59 5.95 20.12-30.08 14.95-70.03-16.1-90.6a67.46 67.46 0 0 0-50.8-10.29 60.65 60.65 0 0 0-38.42 25.83 66.35 66.35 0 0 0-10.042 50.22c2.704 12.85 8.709 23.15 17.112 33.05-10.515-.01-19.508.31-29.946-1.4-10.184-18.06-22.414-29.55-42.935-35.2a63.1 63.1 0 0 0-49.009 6.49c-4.591 2.69-7.879 5.52-11.883 8.96-17.029-4.5-38.89-9.64-55.277-14.8 7.51-35.36-8.811-65.1-45.33-72.52a59.6 59.6 0 0 0-45.963 9.07c-17.69 12.14-24.48 28.38-26.285 48.98-26.777-.91-50.658-.35-78.172-5.88-38.428-7.72-91.077-31.28-90.119-78.1.295-14.4 9.436-28.28 17.509-39.83"/><path fill="#474a48" d="M613.874 1473.12c7.806-.31 23.745-1.12 30.716.71-7.259.28-24.052.62-30.716-.71M1054.92 1547.14c3.63-.26 22.23-1.15 24.84.6-4.96.46-20.04 0-24.84-.6M1413.26 1462.76c1.23-.95 1.51-.97 3.2-.96 3.87 0 7.74.11 11.6.32-4.63.8-10.12 1.15-14.8.64M1035.22 1547.73c2.69-1.54 13.16-.79 16.2-.6-4.32.54-11.86 1.09-16.2.6M1015.26 1548.76c2.13-1.72 5.9-.77 9.1-.61-3.87.7-5.15.99-9.1.61M1436.31 1461.71c1.54-1.24 1.59-.93 3.44-.42-1.57.83-1.59.63-3.44.42M1449.09 1460.72c1.1-.81 1.24-.71 2.58-.38-1.1.6-1.13.45-2.58.38"/><path fill="#FAFAFA" d="M1627.51 1321.74c9.67 86.41-101.81 127.31-170.31 135.6-27.66 3.35-46.76.59-74.25 8.69-40.3 11.88-68.6 36.3-107.26 50.84-50.15 15.63-109.82 29.62-162.7 29-41.8-.48-80.03-1.24-122.001 1.07-33.636 1.85-78.754-9.29-111.477-17.45-26.916-6.71-51.852-23.71-77.082-34.76-33.774-14.23-75.066-18.25-111.516-21.72-24.198-2.51-50.903.02-74.818-2.33-69.058-6.77-162.439-31.16-188.492-102.74-3.804-14.51-3.871-24.82-2.969-39.57 11.383 28.35 29.049 45.2 54.99 61.14 37.921 23.31 88.268 37.01 132.626 40.66 16.363 1.34 35.536 1.11 52.272 1.74a600 600 0 0 1 83.173 8.37c42.682 7.52 56.064 15.09 93.124 33.74 41.587 20.92 103.331 31.72 149.891 31.97 20.409.11 43.429-1.56 64.349-1.72 19.57-.16 40.86 1.77 60.14 1.08 49.23-1.77 102.65-10 149.61-25.03 11.8-3.78 30.86-10.9 41.02-16.49 28.85-15.88 52.35-31.01 84.67-40.03 19.67-5.48 38.03-4.12 58.52-5.81a311.3 311.3 0 0 0 76.38-16.69c42.56-14.77 81.91-37.99 102.11-79.56"/><path fill="#030efc" d="M1045.02 1574.61c33.86-4.41 64.87 19.54 69.16 53.42s-19.76 64.8-53.65 68.98c-33.74 4.16-64.48-19.75-68.753-53.47s19.533-64.55 53.243-68.93M909.3 1646.65c33.777-5.27 65.384 17.97 70.438 51.78 5.055 33.8-18.374 65.27-52.213 70.11-33.544 4.8-64.672-18.38-69.683-51.89s17.976-64.78 51.458-70M751.638 1574.76c30.814-5.17 59.95 15.72 64.941 46.56 4.99 30.85-16.072 59.86-46.944 64.67-30.618 4.77-59.342-16.08-64.291-46.67s15.734-59.43 46.294-64.56M843.424 774.106c30.184-5.053 58.742 15.345 63.75 45.537s-15.431 58.719-45.63 63.684c-30.137 4.954-58.592-15.435-63.591-45.564-4.998-30.129 15.349-58.615 45.471-63.657M825.601 1509.4a370.4 370.4 0 0 0 154.568 39.97c-4.997 18.24-9.822 24.49-22.959 37.66a184 184 0 0 1-5.432 4.22c-16.684 12.47-39.845 17.15-60.259 13.96a80.05 80.05 0 0 1-52.883-32.84c-13.82-19.34-16.872-39.94-13.035-62.97M1048.38 754.938c26.7-4.711 52.16 13.114 56.87 39.812 4.71 26.699-13.12 52.159-39.82 56.866-26.69 4.706-52.15-13.118-56.86-39.813s13.11-52.154 39.81-56.865M1207.89 731.197c24.23-4.061 47.19 12.219 51.37 36.43 4.19 24.211-11.97 47.254-36.16 51.564-24.37 4.343-47.61-11.963-51.83-36.351s12.21-47.553 36.62-51.643M688.762 1475.46c26.569 1.15 74.261 6.67 98.364 17.98 9.023 4.24-11.369 35.3-16.832 40.9-16.41 13.07-35.604 17.2-55.413 9.24a49.63 49.63 0 0 1-27.683-27.35c-5.79-14.35-4.08-26.99 1.564-40.77"/><path fill="#FAFAFA" d="M298.879 1174.98c.077-2.51.279-4.21.549-6.68l.686.27 1.13 4.58c14.409 37.6 46.497 62.3 82.476 78.31a310 310 0 0 0 44.096 15.39c-6.444 14.74-6.741 21.66-7.332 37.91-34.268-12.59-63.947-24.49-90.886-50.55-25.534-24.69-30.747-44.56-30.719-79.23"/><path fill="#030efc" d="M1274.37 1520.03c8.56 3.38 10.22 28.3 8.91 36.48a52.2 52.2 0 0 1-9.6 22.87c-12.01 15.99-37.03 18.39-53.61 8.61l-1.58-.9c-15.99-12.03-20.2-29.34-16.57-48.18 6.67-1.77 13.43-2.95 20.09-4.61l20.13-4.89c11.23-2.77 21.27-5.92 32.23-9.38M1160.24 1645.27c17.89-5.39 36.75 4.8 42.05 22.71s-4.98 36.72-22.92 41.93c-17.81 5.18-36.46-5.01-41.73-22.8-5.26-17.79 4.84-36.49 22.6-41.84"/><path fill="#FAFAFA" d="m1720.45 1174.94 1.73-3.79.73.15.45 4.64c-.8 16.11-.1 24.45-6.93 40.16-14.43 33.17-51.84 57.71-84.26 70.34-1.04-15.98-2.6-20.75-7.26-35.93.68-.23 1.35-.46 2.02-.71 37.93-13.81 75.86-37.17 93.52-74.86"/><path fill="#0a0a07" d="M1105.81 679.481c20.96-2.659 40.11 12.163 42.79 33.118 2.69 20.955-12.11 40.122-33.07 42.829-20.98 2.712-40.19-12.117-42.88-33.107-2.68-20.989 12.17-40.178 33.16-42.84"/><path fill="#030efc" d="M1104.89 682.571c19.36-3.139 37.61 9.976 40.81 29.324 3.19 19.348-9.87 37.636-29.2 40.891-19.43 3.269-37.81-9.858-41.02-29.289s9.97-37.775 29.41-40.926"/><path fill="#0a0a07" d="M1048.35 1733.57c17.22-3.51 34.04 7.55 37.65 24.75 3.6 17.2-7.37 34.08-24.55 37.78-17.31 3.72-34.35-7.35-37.98-24.68s7.53-34.31 24.88-37.85"/><path fill="#030efc" d="M1052.31 1735.72c16.07-1.47 30.31 10.33 31.85 26.39 1.54 16.07-10.19 30.36-26.25 31.96-16.16 1.62-30.55-10.2-32.1-26.36s10.33-30.51 26.5-31.99M801.181 1766.65c9.171 3.59 9.042.55 15.724 11.4 5.53 8.98-4.487 22.57-12.156 22.44-7.923-.08-16.243-.25-19.062-10.02l-.51-1.83c-3.375-11.9 5.309-19.28 16.004-21.99M925.06 567.513c57.887-7.669 111.07 32.933 118.93 90.795 7.86 57.861-32.57 111.177-90.408 119.224-58.103 8.084-111.72-32.573-119.614-90.702-7.894-58.13 32.937-111.613 91.092-119.317M1161.58 539.326c36.03-4.187 68.61 21.668 72.72 57.704s-21.81 68.565-57.86 72.598c-35.94 4.022-68.34-21.807-72.44-57.735s21.66-68.392 57.58-72.567M763.942 669.849c24.637-2.88 46.951 14.743 49.858 39.377 2.907 24.635-14.691 46.968-39.322 49.902-24.67 2.939-47.045-14.693-49.957-39.366s14.745-47.028 39.421-49.913"/><path fill="#010212" d="M1012.56 356.877c55.66-7.251 106.59 32.193 113.49 87.9s-32.86 106.385-88.61 112.936c-55.258 6.494-105.391-32.841-112.231-88.056s32.18-105.594 87.351-112.78"/><path fill="#030efc" d="M1012.17 359.69c53.9-7.541 103.7 30.043 111.24 83.943 7.53 53.899-30.06 103.699-83.96 111.225-53.891 7.525-103.679-30.057-111.211-83.946s30.043-103.682 83.931-111.222"/><path fill="#0a0a07" d="M960.861 197.314c34.76-5.877 67.709 17.504 73.649 52.255 5.93 34.75-17.39 67.742-52.133 73.734-34.822 6.006-67.908-17.387-73.857-52.219s17.5-67.879 52.341-73.77"/><path fill="#030efc" d="M1032.67 265.143c-2.57 32.894-30.74 57.833-63.705 56.387-32.963-1.446-58.848-28.757-58.526-61.75s26.734-59.793 59.719-60.596c32.982-.803 60.672 24.681 62.592 57.619 1.58 2.554 1.53 5.806-.08 8.34"/><path fill="#03083c" d="M1032.75 256.803c1.58 2.554 1.53 5.806-.08 8.34.22-2.775.25-5.562.08-8.34"/><path fill="#0a0a07" d="M838.479 306.959c32.385-5.169 62.876 16.751 68.292 49.095s-16.27 63.002-48.572 68.665c-32.652 5.725-63.716-16.249-69.191-48.944s16.735-63.591 49.471-68.816"/><path fill="#030efc" d="M846.976 308.941c31.236-.596 57.138 24.05 58.093 55.276s-23.392 57.41-54.606 58.724a57.03 57.03 0 0 1-50.777-26.783 57.028 57.028 0 0 1 47.29-87.217"/><path fill="#010212" d="M1126.7 277.627a47.33 47.33 0 0 1 44.01 18.196 47.325 47.325 0 0 1-32.27 75.713c-25.77 2.939-49.1-15.413-52.32-41.15s14.88-49.267 40.58-52.759"/><path fill="#030efc" d="M1133.42 279.925c24.38.142 44.15 19.795 44.44 44.174.29 24.38-19.01 44.494-43.38 45.213a44.7 44.7 0 0 1-39.63-21.651 44.71 44.71 0 0 1-.54-45.155 44.71 44.71 0 0 1 39.11-22.581"/><path fill="#0a0a07" d="M776.137 521.542c24.073-3.943 46.788 12.367 50.745 36.438s-12.34 46.795-36.408 50.767c-24.089 3.974-46.835-12.339-50.796-36.43s12.366-46.828 36.459-50.775"/><path fill="#030efc" d="M778.904 523.755c22.787-2.502 43.31 13.888 45.91 36.665 2.599 22.776-13.702 43.369-36.468 46.067-22.904 2.713-43.649-13.709-46.265-36.625-2.615-22.915 13.896-43.59 36.823-46.107"/><path fill="#0a0a07" d="M1103.38 150.665c22.41-4.141 43.98 10.518 48.38 32.88 4.41 22.361-10 44.104-32.31 48.768a41.6 41.6 0 0 1-39.74-13.233 41.63 41.63 0 0 1-8.1-41.102 41.61 41.61 0 0 1 31.77-27.313"/><path fill="#030efc" d="M1107.74 152.762c21.44-1.839 40.32 14.041 42.18 35.481 1.85 21.439-14.01 40.329-35.45 42.204-21.46 1.877-40.38-14.01-42.24-35.476-1.86-21.465 14.04-40.368 35.51-42.209"/><path fill="#0a0a07" d="M1183.02 418.681c22.02-4.433 43.44 9.914 47.73 31.965 4.28 22.052-10.21 43.376-32.29 47.513-21.87 4.099-42.95-10.224-47.19-32.068-4.25-21.845 9.94-43.02 31.75-47.41"/><path fill="#030efc" d="M1188.32 420.683c20.86-1.462 38.95 14.283 40.37 35.143 1.43 20.861-14.35 38.918-35.21 40.306-20.81 1.385-38.82-14.343-40.24-35.152-1.42-20.808 14.28-38.838 35.08-40.297"/><path fill="#010212" d="M849.536 167.797c18.22-3.386 35.804 8.413 39.578 26.556s-7.645 35.976-25.703 40.138a34.07 34.07 0 1 1-13.875-66.694"/><path fill="#030efc" d="M848.953 170.752c16.933-3.826 33.748 6.847 37.493 23.798s-7.009 33.715-23.978 37.377c-16.854 3.638-33.479-7.027-37.198-23.863s6.866-33.511 23.683-37.312"/><path fill="#010212" d="M862.313 465.818c16.893-4.651 34.336 5.372 38.824 22.309s-5.703 34.283-22.682 38.608c-16.75 4.267-33.811-5.757-38.238-22.465-4.428-16.708 5.431-33.864 22.096-38.452"/><path fill="#030efc" d="M865.553 467.854c15.349-2.75 30.105 7.192 33.321 22.45s-6.274 30.309-21.427 33.986a28.852 28.852 0 1 1-11.894-56.436"/><path fill="#010212" d="M981.028 84.404c14.538-3.206 28.952 5.88 32.332 20.379 3.37 14.499-5.54 29.018-20 32.566a27.18 27.18 0 0 1-26.249-7.745 27.181 27.181 0 0 1 13.917-45.2"/><path fill="#030efc" d="M981.53 87.342a24.38 24.38 0 0 1 23.51 7.404 24.37 24.37 0 0 1 5.02 24.127 24.36 24.36 0 0 1-18.59 16.177c-13.045 2.453-25.655-5.985-28.362-18.98-2.708-12.995 5.482-25.767 18.422-28.728"/></svg>