<svg xmlns="http://www.w3.org/2000/svg" width="1024" height="1024" preserveAspectRatio="none" style="display:block" viewBox="0 0 2048 2048"><defs><linearGradient id="a" x1="1372.82" x2="1378.86" y1="1331.23" y2="1332.6" gradientUnits="userSpaceOnUse"><stop class="stop0" offset="0" stop-color="#521e01"/><stop class="stop1" offset="1" stop-color="#371202"/></linearGradient></defs><path fill="#081503" d="M0 0h2048v2048H0V0"/><path fill="#FAFAFA" d="M0 0h2048v968.239c-15.35-60.812-43-94.466-101.5-118.718-11.36-3.699-36.36-8.703-43.86-11.79.31-4.255.2-4.534-.66-8.746l.35-3.406c4.62-3.225 13.95-6.814 19.58-10.116 22.42-13.128 41.1-35.356 47.25-60.927 6.38-26.522 3.75-54.401-10.21-77.974a105.03 105.03 0 0 0-64.25-48.485c-27.71-6.985-57.35-3.65-82.07 10.947-22.37-7.935-48.04-14.086-71.87-14.25-3.2-.786-7.17-.534-10.59-.557l-.77-6.495c-4.12-1.561-13.04-.657-17.65-1.576-16.04-3.202-35.78-12.436-48.36-22.432A99.1 99.1 0 0 1 1626.1 527c-3.27-29.356 4.16-51.479 22.28-73.973l.92-1.17c4.76-5.633 7-7.81 12.55-12.7l1.92-1.538c6.88-7.082 23.1-13.421 24.99-17.203-17.14 6.851-34.26 19.662-45.1 34.622-19.48-8.356-45.97-18.841-67.18-20.273-8.27-3.147-36.74-2.703-46.32-1.848-17.16.066-31.65 2.88-48.23 6.971-3.15.777-8.47 2.692-10.84 1.578l-1.33-2.273c-.22-3.549-1.43-7.868-2.57-11.262-15.71-46.465-48.49-77.756-91.43-99.125-4.12-1.925-8.36-3.617-12.57-5.354-14.6-9.136-68.98-17.896-86.38-14.647-16.68.11-60.33 7.753-73.55 16.829-4.6-9.55-6.78-16.678-12.66-26.749-18.94-32.433-46.94-55.357-80.54-71.174-53.99-23.189-112.153-25.417-167.109-3.702a167.87 167.87 0 0 0-93.037 91.723 151 151 0 0 0-3.785 10.082c-3.303-1.289-10.127-4.171-13.289-4.904-16.567-7.132-62.586-15.045-80.085-12.123-65.367.709-131.992 36.829-158.782 98.237l1.292 1.132c-3.508 9.035-12.043 29.25-10.889 38.164 1.738 1.98.929 1.44 3.268 2.516 42.133 18.145 67.885 45.288 87.155 86.093l-1.109 1.691c1.997 8.067 3.385 12.792 3.492 21.186-19.169 29.781-25.063 53.188-18.56 89.205 1.274 7.054 10.159 31.281 15.142 34.712l-1.186 1.461c-3.96 4.972-7.375 12.758-11.421 17.999-14.369 18.612-31.489 32.898-51.753 44.412-5.777 4.838-5.071 11.096-8.397 19.078-9.738 23.372-27.694 44.387-50.763 55.163-7.408 3.733-27.761 10.993-35.653 9.249-2.87.78-4.743.929-6.704 3.117l-.085 1.897c3.758 3.746 13.438 3.885 18.853 4.31l-.655 1.169c-26.428-1.47-75.628-1.717-98.661 12.401l-1.147.007-.443.749c-.817 23.879-.051 59.171.417 83.447-.321 13.933-.735 37.623.041 51.459-.063 22.849.206 46.979-.413 69.749-6.175 6.9-12.931 14.16-17.196 22.44l-.973 2.21c-9.438-2.9-18.554-7.1-28.093-9.98-7.373-2.22-38.23-7.71-41.38-11.16-1.407-1.22-.563-1.06-2.186-.06-5.035 1.32-23.429-1.21-30.316-1.06-35.11.78-79.997 11.43-108.885 31.85-2.259 1.56-4.519 3.22-6.879 4.61-27.885 15.52-54.123 57.37-62.9 87.48l-.466 1.65c-.355.69-.314.9-.437 1.73a129.8 129.8 0 0 0-5.24 36.41c.284 7.36.363 12.66-.013 19.99.448 5.29.947 10.59 1.497 15.87l.358 1.67c1.095 5 2.356 11.59 3.666 16.39l.401 1.63c2.438 6.98 4.918 14.58 7.862 21.32 9.303 20.34 21.757 35.59 37.346 51.66 1.289 7.73 2.533 34.9.176 41.42l-.349 1.77c-10.142-.41-69.498 1.49-73.635-1.23l-.622-5.09c2.294-32.38-1.14-75.77.542-110.36-1.422-35.8-.062-83.05-.129-119.43-43.141-17.65-76.1-55.3-90.535-99.17-3.332-10.12-4.632-19.47-7.408-29.52V0"/><path fill="#081503" d="m593.973 407.024 1.292 1.132c-3.508 9.035-12.043 29.25-10.889 38.164 1.738 1.98.929 1.44 3.268 2.516 42.133 18.145 67.885 45.288 87.155 86.093l-1.109 1.691c1.997 8.067 3.385 12.792 3.492 21.186-19.169 29.781-25.063 53.188-18.56 89.205 1.274 7.054 10.159 31.281 15.142 34.712l-1.186 1.461c-3.96 4.972-7.375 12.758-11.421 17.999-14.369 18.612-31.489 32.898-51.753 44.412-5.777 4.838-5.071 11.096-8.397 19.078-9.738 23.372-27.694 44.387-50.763 55.163-7.408 3.733-27.761 10.993-35.653 9.249-2.87.78-4.743.929-6.704 3.117l-.085 1.897c3.758 3.746 13.438 3.885 18.853 4.31l-.655 1.169c-26.428-1.47-75.628-1.717-98.661 12.401l-1.147.007-.443.749c-.817 23.879-.051 59.171.417 83.447-.321 13.933-.735 37.623.041 51.459-.063 22.849.206 46.979-.413 69.749-6.175 6.9-12.931 14.16-17.196 22.44l-.973 2.21c-9.438-2.9-18.554-7.1-28.093-9.98-7.373-2.22-38.23-7.71-41.38-11.16-1.407-1.22-.563-1.06-2.186-.06-5.035 1.32-23.429-1.21-30.316-1.06-35.11.78-79.997 11.43-108.885 31.85-2.259 1.56-4.519 3.22-6.879 4.61-27.885 15.52-54.123 57.37-62.9 87.48l-.466 1.65c-.355.69-.314.9-.437 1.73a129.8 129.8 0 0 0-5.24 36.41c.284 7.36.363 12.66-.013 19.99.448 5.29.947 10.59 1.497 15.87l.358 1.67c1.095 5 2.356 11.59 3.666 16.39l.401 1.63c2.438 6.98 4.918 14.58 7.862 21.32 9.303 20.34 21.757 35.59 37.346 51.66 1.289 7.73 2.533 34.9.176 41.42l-.349 1.77c-10.142-.41-69.498 1.49-73.635-1.23l-.622-5.09c2.294-32.38-1.14-75.77.542-110.36-1.422-35.8-.062-83.05-.129-119.43-43.141-17.65-76.1-55.3-90.535-99.17-3.332-10.12-4.632-19.47-7.408-29.52v-55.238c9.664-37.092 11.737-53.297 38.517-84.173 31.304-32.524 61.76-45.639 105.805-54.12l-.222-11.943c-15.804-6.276-31.948-17.321-43.247-30.034a101 101 0 0 1-25.516-73.481c.314-4.125.615-6.005 1.513-10.047.717-8.567 5.226-21.395 8.996-29.09a101.9 101.9 0 0 1 60.407-52.215c31.517-10.404 60.735-5.326 89.596 9.398 17.875-7.804 35.744-11.51 55.012-13.95 7.003-.886 20.415-.16 25.988-2.646.292-2.997.755-1.769-.823-3.947l-9.295-1.048c-58.744-6.952-102.332-57.547-93.567-117.474 13.426-91.779 134.962-120.02 190.125-45.296 22.377-11.859 58.832-21.682 84.138-22.238 7.464-1.038 22.579-1.491 29.939.013 22.879.318 42.863 5.709 64.148 13.25 3.481-15.34 6.418-24.61 12.459-39.127"/><path fill="#2e7d32" d="m98.523 851.012 1.39-.192c58.219-23.16 110.443-15.307 166.844 7.758a96.88 96.88 0 0 0-52.405 52.316c-31.849 74.507 26.236 153.326 105.878 145.596 3.411-.33 13.345-2.01 15.961-1.92-.126 2.14-.186 4.12-.225 6.27-5.035 1.32-23.429-1.21-30.316-1.06-35.11.78-79.997 11.43-108.885 31.85-2.259 1.56-4.519 3.22-6.879 4.61-27.885 15.52-54.123 57.37-62.9 87.48l-.466 1.65c-.355.69-.314.9-.437 1.73a129.8 129.8 0 0 0-5.24 36.41c.284 7.36.363 12.66-.013 19.99.448 5.29.947 10.59 1.497 15.87l.358 1.67c1.095 5 2.356 11.59 3.666 16.39l.401 1.63c2.438 6.98 4.918 14.58 7.862 21.32 9.303 20.34 21.757 35.59 37.346 51.66 1.289 7.73 2.533 34.9.176 41.42l-.349 1.77c-10.142-.41-69.498 1.49-73.635-1.23l-.622-5.09c2.294-32.38-1.14-75.77.542-110.36-1.422-35.8-.062-83.05-.129-119.43-43.141-17.65-76.1-55.3-90.535-99.17-3.332-10.12-4.632-19.47-7.408-29.52v-55.238c9.664-37.092 11.737-53.297 38.517-84.173l1.519.975c14.72-17.861 36.56-29.806 56.937-39.735z"/><path fill="#ffc107" d="M96.973 852.259q1.125 152.031.288 304.071a159.08 159.08 0 0 1-85.102-88.8c-22.285-56.31-12.635-129.518 27.877-175.536 14.72-17.861 36.56-29.806 56.937-39.735"/><path fill="#2e7d32" d="M350.304 1048.29c-49.57 20.38-106.476-.74-130.749-48.526-24.273-47.782-7.77-106.195 37.917-134.212 45.688-28.017 105.233-16.239 136.815 27.062l3.242.103c-3.068-4.661-13.819-14.251-13.398-18.124 2.172-1.107 11.553-7.111 13.14-8.72l6.025-3.719c4.571-2.379 17.809-9.724 22.453-9.419-.817 23.879-.051 59.171.417 83.447-.321 13.933-.735 37.623.041 51.459-.063 22.849.206 46.979-.413 69.749-6.175 6.9-12.931 14.16-17.196 22.44l-.973 2.21c-9.438-2.9-18.554-7.1-28.093-9.98-7.373-2.22-38.23-7.71-41.38-11.16-1.407-1.22-.563-1.06-2.186-.06.039-2.15.099-4.13.225-6.27l2.685-1.21c5.364-1.41 9.038-2.64 14.17-4.48z"/><path fill="#ffc107" d="M403.296 862.154c4.571-2.379 17.809-9.724 22.453-9.419-.817 23.879-.051 59.171.417 83.447-.321 13.933-.735 37.623.041 51.459-.063 22.849.206 46.979-.413 69.749-6.175 6.9-12.931 14.16-17.196 22.44l-.973 2.21c-9.438-2.9-18.554-7.1-28.093-9.98-7.373-2.22-38.23-7.71-41.38-11.16-1.407-1.22-.563-1.06-2.186-.06.039-2.15.099-4.13.225-6.27l2.685-1.21c5.364-1.41 9.038-2.64 14.17-4.48 7.531-2.85 17.441-8.71 23.855-13.56a101.87 101.87 0 0 0 39.317-67.585c3.241-25.243-2.96-54.67-18.689-75.018-3.068-4.661-13.819-14.251-13.398-18.124 2.172-1.107 11.553-7.111 13.14-8.72z"/><path fill="#103108" d="m336.191 1054.57 2.685-1.21c-.122 3.26-.066 4.44-.724 7.54-1.407-1.22-.563-1.06-2.186-.06.039-2.15.099-4.13.225-6.27"/><path fill="#16480a" d="m394.287 892.614 3.242.103c15.729 20.348 21.93 49.775 18.689 75.018a101.87 101.87 0 0 1-39.317 67.585c-6.414 4.85-16.324 10.71-23.855 13.56l-2.742-.59a102 102 0 0 0 16.599-8.66 104 104 0 0 0 9.005-6.52q.683-.555 1.355-1.11c1.189-1 2.355-2.02 3.497-3.07 38.529-35.384 44.351-94.054 13.527-136.316"/><path fill="#2e7d32" d="M273.153 423.832a102.82 102.82 0 0 1 79.014-4.206c12.648 4.406 25.205 11.726 34.978 20.933 5.066 4.289 6.414 5.494 10.672 10.755l.423.839 1.921 2.128c15.883 20.376 28.898 61.907 18.098 86.621l1.723 1.189c-10.048 29.848-25.013 51.965-54.286 66.311a73 73 0 0 1-3.312 1.52l-2.017-1.302c-16.025 6.061-46.009 12.208-62.332 6.223l-1.695-.219c-16.713-3.745-33.64-11.69-46.451-23.166-1.161-.627-2.007-1.613-3.03-2.57-2.474-1.961-4.432-4.268-6.577-6.589l-1.358-1.547c-13.785-13.822-23.613-38.616-24.239-58.016l-.727-1.071c-.413-3.738-1.371-14.271.739-17.297.071-5.03.016-5.647 1.352-10.403l.201-1.72c3.835-15.098 9.307-26.672 19.304-38.531l1.73-2.061 1.841-2.219c3.185-4.342 4.024-4.983 8.298-8.322 2.286-2.275 4.867-4.04 7.455-5.984.712-1.149 2.329-1.842 3.712-2.702l1.157-.919c3.63-2.794 6.928-4.252 10.993-6.313zM514.591 829.085c-29.978.207-54.901-5.331-78.337-24.599-68.106-55.994-35.277-169.689 55.3-177.11 93.501-7.661 149.61 93.602 89.799 165.735-2.65 3.227-3.972 5.165-7.268 7.658-1.823 2.069-1.687 2.086-3.822 3.75l-1.707.957-1.86 1.645c-4.314 3.561-15.177 9.768-16.452 12.715-7.408 3.733-27.761 10.993-35.653 9.249M152.568 630.215c25.448-7.078 56.378-3.565 79.418 9.553a101.1 101.1 0 0 1 46.718 60.417c14.755 54.877-16.817 108.843-71.768 124.679-19.404 5.593-53.803 5.2-71.161-6.336-1.093-.014-1.699-.609-2.864-1.26l-2.47-1.494-2.175-1.181c-3.616-2.252-6.772-4.484-10.229-6.931l-1.231-.904-4.874-4.249-2.062-1.712c-2.036-1.761-3.828-3.737-5.705-5.678-1.567-1.029-2.86-3.125-4.081-4.733l-1.86-1.98-.761-1.335c-13.895-15.681-22.032-43.751-20.28-64.422-.657-.797-.15-.264-1.847-1.208.315-4.125.616-6.005 1.514-10.047l1.638-.284c2.506-16.222 8.085-28.468 17.314-41.789l1.283-1.508c3.358-5.576 10.941-12.392 15.773-16.719 1.068-1.542 3.241-2.776 4.897-3.946.613-.817 2.85-2.059 3.856-2.695l1.198-.885c10.099-6.733 16.641-9.329 28.124-12.901z"/><path fill="#2e7d32" d="M487.427 432.888c7.464-1.038 22.579-1.491 29.939.013 6.26 2.177 14.874 2.611 21.825 3.784 16.114 2.718 29.274 6.192 44.388 12.359-.694 70.504.172 141.618.081 212.194-20.372-22.328-44.744-35.167-75.385-36.537a113.05 113.05 0 0 0-58.65 13.346c-6.744 3.648-15.497 9.806-21.675 15.011l-1.86-.194-2.301-.66c.456-8.69.28-18.528.18-27.262-.313-27.498 1.37-55.506-3.195-82.708l1.583-1.067c-.446-4.238.408-10.345.819-14.711 1.562-16.578-.068-32.54-6.376-48.032-2.168-5.322-10.712-17.238-10.837-21.974 1.928-2.238 3.256-2.387 6.052-3.334 17.514-6.982 27.332-11.099 46.566-14.887 7.846-1.545 22.289-3.373 28.846-5.341"/><path fill="#16480a" d="M422.357 541.167c4.353 10.703 3.797 95.17 3.733 111.697l-2.301-.66c.456-8.69.28-18.528.18-27.262-.313-27.498 1.37-55.506-3.195-82.708z"/><path fill="#2e7d32" d="M293.572 627.337c19.065-3.095 55.328-.412 73.913 4.577l1.665.579c11.249 2.364 20.348 6.042 31.022 10.32-.155 22.371-.497 44.353-1.142 66.702-1.438 49.832 1.93 101.559-.348 151.344-.797 2.162-.938 2.725-1.411 5.014-1.587 1.609-10.968 7.613-13.14 8.72l-2.148-.977c-3.575-.229-15.756-9.794-21.965-12.774-31.69-15.214-59.215-14.767-91.736-3.821-15.984-6.796-29.254-11.96-46.283-15.807l.101-19.091c43.915-23.537 68.904-60.588 61.037-112.129-4.55-29.814-20.563-51.582-44.768-68.978 9.923-4.502 17.24-6.946 27.809-9.264.282-.154 2.055-.315 2.448-.364 6.695-1.808 15.515-3.312 22.417-3.686.86-.603 1.074-.331 2.529-.365"/><path fill="#16480a" d="m381.983 873.616 1.077-.702c4.611-2.95 11.17-6.492 14.473-10.648l1.149-1.407c-.797 2.162-.938 2.725-1.411 5.014-1.587 1.609-10.968 7.613-13.14 8.72z"/><path fill="#381902" d="M587.644 448.836c42.133 18.145 67.885 45.288 87.155 86.093l-1.109 1.691c1.997 8.067 3.385 12.792 3.492 21.186-19.169 29.781-25.063 53.188-18.56 89.205 1.274 7.054 10.159 31.281 15.142 34.712l-1.186 1.461c-3.96 4.972-7.375 12.758-11.421 17.999-14.369 18.612-31.489 32.898-51.753 44.412-3.843-3.95-1.178-27.213-3.419-37.428-4.383-19.977-9.77-29.305-20.815-45.895l-.191-135.178c-.021-23.27-.226-47.115.21-70.403.064-3.43.68-5.043 2.455-7.855"/><path fill="#ffc107" d="m419.982 542.091.792.143c4.565 27.202 2.882 55.21 3.195 82.708.1 8.734.276 18.572-.18 27.262-3.466-1.137-16.047-7.656-20.592-9.798-19.286-8.585-38.914-13.985-59.957-16.289-5.905-.646-19.707-.48-23.243-4.083 2.453-3.019 31.882-8.216 42.387-12.112a73 73 0 0 0 3.312-1.52c29.273-14.346 44.238-36.463 54.286-66.311"/><path fill="#381902" d="M403.296 862.154c-4.558-9.224-1.961-86.378-1.491-102.863 13.882 36.75 39.861 58.435 78.033 69.386 5.913 1.696 22.384 1.295 26.152 5.586-3.101 2.255-18.792 2.189-24.004 2.637a221 221 0 0 0-28.092 4.159c-7.062 1.501-23.758 4.872-27.702 10.927l-.443.749c-4.644-.305-17.882 7.04-22.453 9.419M403.197 642.406c4.545 2.142 17.126 8.661 20.592 9.798.389 7.093.564 5.948-4.212 11.922-8.17 10.218-12.846 20.726-17.405 32.812-.252-9.445-1.218-47.328 1.025-54.532"/><path fill="#2e7d32" d="M218.96 823.151c.838 1.291.847 1.68.788 3.301a657 657 0 0 1-.648 14.173c-14.675-3.303-31.545-6.248-46.599-6.323-7.808-.039-16.456 1.542-24.481 1.941-2.226-2.188-1.42-5.96-1.729-9.966 24.479 4.774 48.971 7.783 72.669-3.126M1012.34 0h22.35c19.41 4.526 36.55 8.525 52.41 21.566 12.02 8.267 23.21 22.281 29.58 35.353a101.33 101.33 0 0 1 5.76 76.608c-.75 2.301-1.64 4.422-2.63 6.62-8.34 18.887-24.26 38.81-42.66 48.601-19.77 11.616-45.27 17.03-69.11 13.087-.39-.163-.77-.326-1.15-.488-7.014-.395-16.34-2.827-22.97-5.194a102.1 102.1 0 0 1-57.252-51.904c-24.221-51.343-1.031-110.552 50.174-134.015C986.389 5.308 1001.48 2.569 1012.34 0M1688.76 420.416c9.94-6.022 33.53-9.271 45.01-7.772a104.23 104.23 0 0 1 72.47 32.835c20.29 21.697 28.16 46.327 26.96 75.729a99.7 99.7 0 0 1-33.08 69.451c-13.93 12.717-34.28 23.355-53.09 25.843-5.87 1.242-11.64 1.802-17.63 1.22-4.12-1.561-13.04-.657-17.65-1.576-16.04-3.202-35.78-12.436-48.36-22.432A99.1 99.1 0 0 1 1626.1 527c-3.27-29.356 4.16-51.479 22.28-73.973l.92-1.17c4.76-5.633 7-7.81 12.55-12.7l1.92-1.538c6.88-7.082 23.1-13.421 24.99-17.203M1236.52 108.705a104.04 104.04 0 0 1 101.74.991 104 104 0 0 1 39.24 39.815 104.1 104.1 0 0 1 11.87 34.8c1.49 9.833 1.57 19.83.23 29.685-5.59 41.055-35 74.88-74.89 86.114-39.88 11.233-82.62-2.266-108.82-34.367s-30.85-76.686-11.85-113.505a104.08 104.08 0 0 1 42.48-43.533M702.885 114.1c32.819-22.501 76.835-21.515 110.986-2.652 16.126 9.338 29.104 21.869 37.896 38.423 17.744 32.44 18.038 75.724-4.005 106.298-8.408 12.448-18.214 23.311-31.62 30.564-30.202 17.819-69.372 21.989-101.087 5.274-55.728-23.28-74.961-90.395-46.252-142.237 1.897-3.665 4.084-6.509 6.47-9.858 8.041-10.966 16.146-18.638 27.612-25.812M1447.22 282.829c20.38-44.743 62.02-65.406 110.05-61.411 25.5 3.923 44.76 13.075 63.1 31.606 3.96 4.439 7.55 7.983 10.01 13.466 6.22 5.283 13.34 24.529 15.18 32.412 20.03 85.539-66.78 151.72-145.41 117.263-4.69-2.057-11.44-5.362-15.32-8.439-17.48-11.689-29.41-25.471-37.84-44.836-11.59-25.644-11.12-54.482.23-80.061M449.12 234.531c6.396-4.167 14.549-7.533 21.854-9.68a105.96 105.96 0 0 1 79.924 8.262c49.149 25.896 69.788 88.866 43.577 137.985a99.95 99.95 0 0 1-59.509 48.842 108.94 108.94 0 0 1-84.208-8.101 101.39 101.39 0 0 1-49.552-60.785c-1.796-6.219-3.464-15.538-3.244-22.011-1.933-8.08.18-20.402 1.931-28.46 1.002-9.037 6.866-20.796 11.255-28.662 8.435-15.632 22.762-28.525 37.972-37.39"/><path fill="#FAFAFA" d="M0 1030.43c2.776 10.05 4.076 19.4 7.408 29.52 14.436 43.87 47.394 81.52 90.536 99.17.066 36.38-1.294 83.63.128 119.43-1.683 34.59 1.752 77.98-.542 110.36l.622 5.09c4.137 2.72 63.493.82 73.635 1.23l.349-1.77c2.357-6.52 1.113-33.69-.176-41.42-15.589-16.07-28.043-31.32-37.346-51.66-2.944-6.74-5.424-14.34-7.862-21.32l-.401-1.63c-1.31-4.8-2.571-11.39-3.666-16.39l-.358-1.67c-.55-5.28-1.049-10.58-1.497-15.87.376-7.33.297-12.63.013-19.99a129.8 129.8 0 0 1 5.24-36.41c.123-.83.082-1.04.437-1.73l.466-1.65c8.777-30.11 35.015-71.96 62.9-87.48 2.36-1.39 4.62-3.05 6.879-4.61 28.888-20.42 73.775-31.07 108.885-31.85 6.887-.15 25.281 2.38 30.316 1.06 1.623-1 .779-1.16 2.186.06 3.15 3.45 34.007 8.94 41.38 11.16 9.539 2.88 18.655 7.08 28.093 9.98l.604 1.06a104.36 104.36 0 0 0-8.429 79.94 103.87 103.87 0 0 0 51.586 62.53c25.715 13.58 53.382 15.57 81.019 6.8 13.179-4.17 33.268-14.76 42.342-25.35l3.1-.67c-5.031 6.98-5.47 49.7-2.185 57.51 3.166 1.14 5.599 2.26 8.629 3.68l4.51 2.09c-1.488 10.13-.852 36.92-.844 48.38l.053 91.09c0 12.76 1.023 29.95-1.968 42.08l.157 2.98c2.321 1.19 2.678 1.84 4.542 3.72 20.411-34.91 46.049-57.99 83.265-73.63 11.025-4.05 17.422-6.87 28.951-9.62l1.594-.42c9.661-2.9 32.243-4.78 37.131-7.37 2.513-.69 9.072-.8 12.007-.94l.129 1.65c6.239 1.39 17.924 1.53 25.183 2.44a201.4 201.4 0 0 1 66.622 19.68c-.527 43.92-.664 87.85-.412 131.77.063 20.83 1.629 72.03-2.622 89.94-.362.67-.306.82-.411 1.65-.644 3-1.466 7.55-2.352 10.37-.118.82-.128 1.89-.528 2.42-.314 8.76-2.675 16.74-2.364 25.01l.536.43 1.458-4.59c-.182 29.94 1.192 50.01 12.926 78.44l-1.208 1.28c17.056 37.23 48.798 73.74 88.473 87.36l.099 13.72c-.287 43.73-.327 87.47-.121 131.2.043 23.37-.782 53.16.205 76.07-.185 3.72-.971 8.17.868 11.17 2.995 1.95 7.49 1.81 11.215 2.09H0z"/><path fill="#2e7d32" d="M417.064 1263.77c34.928-19.48 93.197-18.6 131.122-7.85a222 222 0 0 1 27.703 10.11l-.227-2.17c3.166 1.14 5.599 2.26 8.629 3.68l4.51 2.09c-1.488 10.13-.852 36.92-.844 48.38l.053 91.09c0 12.76 1.023 29.95-1.968 42.08l.157 2.98c-.536 14.71-8.131 25.04-11.634 40.22-.357.69-.279.78-.359 1.66l-1.681 6.32-.298 1.68c-2.807 17.09-4.443 46.29-.002 63.24.23 1.2.531 2.18.479 3.36 3.72 14.24 8.58 28.31 11.352 42.36.131.67.528 1.41.83 2.03 1.022 10.95.365 29.8.301 41.25l-.398 77.25c-.028 14.89 1.92 72.75-.585 82.41-5.766 1.64-75.858 1.12-80.894-.35l-.067-165-.041-49.98c.002-5.24 1.153-22.23-1.239-25.35-3.874-.61-2.193-.93-5.383.22-1.078 4.98-.377 44.92-.351 52.8l.528 141.59c.032 9.22 1.141 38.31-.684 46.05-4.626 1.24-77.968.67-80.604-.63.487-19.78-.171-41.3-.199-61.29l.026-115.59c-.028-12.11-1.251-57.3.751-65.86a884 884 0 0 0-26.116-12.91l-.016 70.12-80.792.08.315-146.1c-.029-21.28-1.508-59.03.357-79.02.203-5.11.868-5.72-1.868-8.7-1.859 0-2.321-.08-4.157-.3 2.63-.37 5.252-.78 7.865-1.25l.085-.47c.265-1.56.256-2.24.893-3.63 1.384-7.07 2.614-12.37 4.532-19.3.152-.84.081-.99.527-1.67 2.057-6.99 4.129-12.37 6.789-19.18l2.105.42c13.016-25.26 25.351-44.89 48.399-62.78 5.861-4.55 12.894-8.8 18.356-13.2l13.564-7.25 2.031-.97 6.834-2.7z"/><path fill="#ffc107" d="M415.75 1263.74c-1.162 16.61-.212 34.28-.28 51.01-.344 84.72 1.552 170.14-.117 254.79-48.157-23.71-77.94-52.19-95.605-104a224 224 0 0 1-3.441-11.24l-1.838.24c-.592-3.28-.78-3.98-1.884-7.13-.767 1.28-1.7 9.72-1.992 11.83-.974-18.06-.349-36.36-.798-54.52.203-5.11.868-5.72-1.868-8.7-1.859 0-2.321-.08-4.157-.3 2.63-.37 5.252-.78 7.865-1.25l.085-.47c.265-1.56.256-2.24.893-3.63 1.384-7.07 2.614-12.37 4.532-19.3.152-.84.081-.99.527-1.67 2.057-6.99 4.129-12.37 6.789-19.18l2.105.42c13.016-25.26 25.351-44.89 48.399-62.78 5.861-4.55 12.894-8.8 18.356-13.2l13.564-7.25 2.031-.97z"/><path fill="#0a0902" d="m324.461 1350.22 2.105.42c-14.417 34.78-17.561 66.75-10.259 103.66l-1.838.24c-.592-3.28-.78-3.98-1.884-7.13-.767 1.28-1.7 9.72-1.992 11.83-.974-18.06-.349-36.36-.798-54.52.203-5.11.868-5.72-1.868-8.7-1.859 0-2.321-.08-4.157-.3 2.63-.37 5.252-.78 7.865-1.25l.085-.47c.265-1.56.256-2.24.893-3.63 1.384-7.07 2.614-12.37 4.532-19.3.152-.84.081-.99.527-1.67 2.057-6.99 4.129-12.37 6.789-19.18M584.291 1267.54l4.51 2.09c-1.488 10.13-.852 36.92-.844 48.38l.053 91.09c0 12.76 1.023 29.95-1.968 42.08.636-15.34 1.046-176.96-1.373-180.78z"/><path fill="#103108" d="M575.662 1263.86c3.166 1.14 5.599 2.26 8.629 3.68l.378 2.86c-3.434-1.5-5.558-2.53-8.78-4.37z"/><path fill="#2e7d32" d="M741.682 1366.84c2.513-.69 9.072-.8 12.007-.94l.129 1.65c6.239 1.39 17.924 1.53 25.183 2.44a201.4 201.4 0 0 1 66.622 19.68c-.527 43.92-.664 87.85-.412 131.77.063 20.83 1.629 72.03-2.622 89.94-.362.67-.306.82-.411 1.65-.644 3-1.466 7.55-2.352 10.37-.118.82-.128 1.89-.528 2.42-.314 8.76-2.675 16.74-2.364 25.01l.536.43 1.458-4.59c-.182 29.94 1.192 50.01 12.926 78.44l-1.208 1.28c-1.991-3.66-3.386-8.04-4.825-11.99-.74-2.15-1.888-4.43-2.848-6.53l.011 7.17.073 229.09-80.268.15c.047-28.12 1.556-243.96-1.194-248.09l-1.435-.92c-4.42 1.16-4.581 7.64-4.65 11.63-.243 13.95.024 27.95.101 41.91l.044 70.43.22 83.01c.026 12.47-.447 29.02.093 41.26-7.801 1.27-74.541 1.57-81.714.1 1.55-82.81-1.634-166.64.289-249.58.042-1.8-4.16-3.14-5.613-3.82a168.9 168.9 0 0 1-57.741-41.61 148 148 0 0 1-12.915-16.84c-1.869-2.8-11.476-19.79-12.672-20.19l-.716 3.46c-.302-.62-.699-1.36-.83-2.03-2.772-14.05-7.632-28.12-11.352-42.36.052-1.18-.249-2.16-.479-3.36-4.441-16.95-2.805-46.15.002-63.24l.298-1.68 1.681-6.32c.08-.88.002-.97.359-1.66 3.503-15.18 11.098-25.51 11.634-40.22 2.321 1.19 2.678 1.84 4.542 3.72 20.411-34.91 46.049-57.99 83.265-73.63 11.025-4.05 17.422-6.87 28.951-9.62l1.594-.42c9.661-2.9 32.243-4.78 37.131-7.37"/><path fill="#ffc107" d="m674.006 1384.25.101 214.77c.01 27.76-.321 55.86.602 83.59.11 3.31-.004 4.8-1.728 7.12l-2.456-.39-1.595.87a168.9 168.9 0 0 1-57.741-41.61 148 148 0 0 1-12.915-16.84c-1.869-2.8-11.476-19.79-12.672-20.19l-.716 3.46c-.302-.62-.699-1.36-.83-2.03-2.772-14.05-7.632-28.12-11.352-42.36.052-1.18-.249-2.16-.479-3.36-4.441-16.95-2.805-46.15.002-63.24l.298-1.68 1.681-6.32c.08-.88.002-.97.359-1.66 3.503-15.18 11.098-25.51 11.634-40.22 2.321 1.19 2.678 1.84 4.542 3.72 20.411-34.91 46.049-57.99 83.265-73.63"/><path fill="#081503" d="M586.199 1454.16c2.321 1.19 2.678 1.84 4.542 3.72-35.671 74.92-21.706 159.47 46.352 211.75 10.827 8.31 21.309 13.63 33.432 19.71l-1.595.87a168.9 168.9 0 0 1-57.741-41.61 148 148 0 0 1-12.915-16.84c-1.869-2.8-11.476-19.79-12.672-20.19l-.716 3.46c-.302-.62-.699-1.36-.83-2.03-2.772-14.05-7.632-28.12-11.352-42.36.052-1.18-.249-2.16-.479-3.36-4.441-16.95-2.805-46.15.002-63.24l.298-1.68 1.681-6.32c.08-.88.002-.97.359-1.66 3.503-15.18 11.098-25.51 11.634-40.22"/><path fill="#2e7d32" d="M335.966 1060.84c1.623-1 .779-1.16 2.186.06 3.15 3.45 34.007 8.94 41.38 11.16 9.539 2.88 18.655 7.08 28.093 9.98l.604 1.06a104.36 104.36 0 0 0-8.429 79.94 103.87 103.87 0 0 0 51.586 62.53c25.715 13.58 53.382 15.57 81.019 6.8 13.179-4.17 33.268-14.76 42.342-25.35l3.1-.67c-5.031 6.98-5.47 49.7-2.185 57.51l.227 2.17c-9-3.98-18.255-7.36-27.703-10.11-37.925-10.75-96.194-11.63-131.122 7.85l-1.314-.03-6.834 2.7-2.031.97-13.564 7.25c-5.462 4.4-12.495 8.65-18.356 13.2-23.048 17.89-35.383 37.52-48.399 62.78l-2.105-.42c-2.66 6.81-4.732 12.19-6.789 19.18-.446.68-.375.83-.527 1.67-1.918 6.93-3.148 12.23-4.532 19.3-.637 1.39-.628 2.07-.893 3.63l-.085.47c-2.613.47-5.235.88-7.865 1.25 1.836.22 2.298.3 4.157.3-2.278.45-2.717.62-4.906 1.33-2.837 3.75-1.789 209.1-1.783 232.45l-81.17.01-.065-157.44c-.013-14.88-1.043-64.93.77-77.29l-43.864-.1-2.283.66-2.839-.41.349-1.77c2.357-6.52 1.113-33.69-.176-41.42-15.589-16.07-28.043-31.32-37.346-51.66-2.944-6.74-5.424-14.34-7.862-21.32l-.401-1.63c-1.31-4.8-2.571-11.39-3.666-16.39l-.358-1.67c-.55-5.28-1.049-10.58-1.497-15.87.376-7.33.297-12.63.013-19.99a129.8 129.8 0 0 1 5.24-36.41c.123-.83.082-1.04.437-1.73l.466-1.65c8.777-30.11 35.015-71.96 62.9-87.48 2.36-1.39 4.62-3.05 6.879-4.61 28.888-20.42 73.775-31.07 108.885-31.85 6.887-.15 25.281 2.38 30.316 1.06"/><path fill="#ffc107" d="m226.987 1078.08.708 306.96c-41.272-16.44-70.694-46.27-91.17-85.32l-.773-1.84c-36.122-87.75 3.12-183.69 91.235-219.8"/><path fill="#081503" d="M335.966 1060.84c1.623-1 .779-1.16 2.186.06 3.15 3.45 34.007 8.94 41.38 11.16 9.539 2.88 18.655 7.08 28.093 9.98l.604 1.06a104.36 104.36 0 0 0-8.429 79.94 103.87 103.87 0 0 0 51.586 62.53c25.715 13.58 53.382 15.57 81.019 6.8 13.179-4.17 33.268-14.76 42.342-25.35l3.1-.67c-5.031 6.98-5.47 49.7-2.185 57.51l.227 2.17c-9-3.98-18.255-7.36-27.703-10.11-37.925-10.75-96.194-11.63-131.122 7.85l-1.314-.03-6.834 2.7-2.031.97-13.564 7.25-.394-1.54 4.922-3.5c.265-.45 2.637-93 .823-98.29-12.05-35.15.458-57.42-.851-90.9-8.415-3.34-14.042-5.38-22.71-7.85l-1.62-.43c-5.369-1.59-8.751-2.54-14.372-3.56l-1.645-.5c-38.585-9.59-91.683-6.43-128.391 9.23l-2.096.76c-88.115 36.11-127.357 132.05-91.235 219.8l.773 1.84-1.911.66c-2.944-6.74-5.424-14.34-7.862-21.32l-.401-1.63c-1.31-4.8-2.571-11.39-3.666-16.39l-.358-1.67c-.55-5.28-1.049-10.58-1.497-15.87.376-7.33.297-12.63.013-19.99a129.8 129.8 0 0 1 5.24-36.41c.123-.83.082-1.04.437-1.73l.466-1.65c8.777-30.11 35.015-71.96 62.9-87.48 2.36-1.39 4.62-3.05 6.879-4.61 28.888-20.42 73.775-31.07 108.885-31.85 6.887-.15 25.281 2.38 30.316 1.06"/><path fill="#381902" d="M402.355 1177.61c20.165 34.9 40.224 51.95 80.85 60.75 8.696 1.89 15.312-.2 20.561 1.38 1.413 2.77 1.135 1.31.57 4.59-5.304 4.22-16.068 1.53-23.196 2-22.612 1.48-52.083 7.45-72.248 18.45l.024 1.66-2.031.97c-3.868-.09-3.576.61-5.562-1.43-1.002-11.15-.396-30.55-.313-42.22.094-13.26-.5-33.7 1.345-46.15"/><path fill="#2e7d32" d="M571.458 1214.01c1.868 1.39 1.496 3.12 1.331 5.48-1.004 14.25-.258 28.58.028 42.85-15.743-6.39-33.673-12.37-50.715-13.66-3.621-.63-15.168-.03-15.566-4.38-.55-6.01 7.93-5.49 12.942-6.42 15.539-2.91 31.048-9.03 43.929-18.07a445 445 0 0 0 8.051-5.8"/><path fill="#103108" d="m226.987 1078.08 2.096-.76-.112 111.27c.013 15.95-.916 43.02.049 58.07-1.414 28.6-.12 61.01-.415 89.82-.094 9.21-.118 42.96 1.138 50.98-16.056-1.66-38.315-19.53-50.49-29.38-.271 11.33-.218 24.61-.894 35.76 11.112-1.47 26.498-1.11 38.006-1.18 2.702.04 1.835-.03 4.593-1.34l-.048-2.74c.793 3.41.882 3.18-.137 6.5l-43.864-.1-2.283.66-2.839-.41.349-1.77c2.357-6.52 1.113-33.69-.176-41.42-15.589-16.07-28.043-31.32-37.346-51.66l1.911-.66c20.476 39.05 49.898 68.88 91.17 85.32z"/><path fill="#d1c7cc" d="M174.626 1395.64c-.499-4.1-1.605-39.94.393-40.75l.037.12 1.343.38c1.104 4.1.482 33.09.51 39.59z"/><path fill="#16480a" d="m392.013 1272.82.914.3.394 1.54c-5.462 4.4-12.495 8.65-18.356 13.2-23.048 17.89-35.383 37.52-48.399 62.78l-2.105-.42c3.87-13.3 17.842-31.01 26.111-42.05 9.814-13.1 25.51-23.7 38.671-33.29z"/><path fill="#081503" d="M846.129 325.814a151 151 0 0 1 3.785-10.082 167.87 167.87 0 0 1 93.037-91.723c54.956-21.715 113.119-19.487 167.109 3.702 33.6 15.817 61.6 38.741 80.54 71.174 5.88 10.071 8.06 17.199 12.66 26.749 13.22-9.076 56.87-16.719 73.55-16.829 17.4-3.249 71.78 5.511 86.38 14.647 4.21 1.737 8.45 3.429 12.57 5.354 42.94 21.369 75.72 52.66 91.43 99.125 1.14 3.394 2.35 7.713 2.57 11.262-.82 7.2 3.69 22.91 3.99 30.889.9 23.871.5 49.685-2.61 73.396-1.33 10.198-6.82 24.236-8.99 34.618-.25 1.223.77 3.605 1.25 4.803l-1.56-.016c1.59 22.293-.64 50.12.36 73.013l-1.9 2.722 2.5 1.002c-6.18 8.604-8.3 10.324-13.36 20.275-5.87 11.517-9.73 18.264-11.92 31.727-1.53 9.406-.15 14.266-.62 23.102-.7-.592-1.46-1.188-2.18-1.765a100.76 100.76 0 0 0 34.03 70.436c17.98 15.892 36.05 23.198 59.41 26.689l.82 2.013c-21.07.049-41.05 6.03-61.27 11.133-.73.183-2.56-1.278-3.02-1.696-2.29-9.843-13.82-25.868-19.93-33.938-26.53-35.042-78.11-65.838-122.13-70.836-6.28-2.703-32.59-3.947-40.05-3.732-21.93-.962-48.27 7.388-69.06 14.08-3.43 1.104-2.31 1.377-4.39-.614l-1.59-5.345c-1.37 3.675-.33 5.764-2.61 12.161-31.83 15.239-50.42 26.97-71.93 56.254-4.06 1.752-2.48 2.03-5.4.933l-1.06-6.611a99.39 99.39 0 0 1-42.12 64.734c-33.18 22.801-79.46 26.341-114.061 6.575-4.41-2.52-9.049-5.698-13.389-7.912-.322-.768-13.929-14.09-16.651-17.176-.202 5.451 4.283 19.402 5.583 26.351 1.653 8.838 3.009 17.698 4.558 26.512-3.469 1.479-9.703 3.683-12.112 6.177l1.097.671c1.205 11.189.757 28.328.764 39.988l.042 66.304.274 219.35c.013 12.29-1.579 69.92.368 77.35l-1.483-.47c-.398 9.93-19.363 28.11-19.583 55.53l-.695 3.54c-.19 27.65 5.046 42.68 20.122 65.8 1.08 2.28.914 2.47 2.917 3.9-1.316 3.22-1.736 53.39-1.329 59.05l-1.548-2.77c-1.56 2.29-1.189 2.78-1.478 5.8l.408.91c-41.001 22.48-68.349 43.53-86.987 88.25-6.098 16.21-12.102 36.91-12.309 54.32l-1.458 4.59-.536-.43c-.311-8.27 2.05-16.25 2.364-25.01.4-.53.41-1.6.528-2.42.886-2.82 1.708-7.37 2.352-10.37.105-.83.049-.98.411-1.65 4.251-17.91 2.685-69.11 2.622-89.94-.252-43.92-.115-87.85.412-131.77a201.4 201.4 0 0 0-66.622-19.68c-7.259-.91-18.944-1.05-25.183-2.44l-.129-1.65c-2.935.14-9.494.25-12.007.94-4.888 2.59-27.47 4.47-37.131 7.37l-1.594.42c-11.529 2.75-17.926 5.57-28.951 9.62-37.216 15.64-62.854 38.72-83.265 73.63-1.864-1.88-2.221-2.53-4.542-3.72l-.157-2.98c2.991-12.13 1.968-29.32 1.968-42.08l-.053-91.09c-.008-11.46-.644-38.25.844-48.38l-4.51-2.09c-3.03-1.42-5.463-2.54-8.629-3.68-3.285-7.81-2.846-50.53 2.185-57.51l-3.1.67c-9.074 10.59-29.163 21.18-42.342 25.35-27.637 8.77-55.304 6.78-81.019-6.8a103.87 103.87 0 0 1-51.586-62.53 104.36 104.36 0 0 1 8.429-79.94l-.604-1.06.973-2.21c4.265-8.28 11.021-15.54 17.196-22.44.619-22.77.35-46.9.413-69.749-.776-13.836-.362-37.526-.041-51.459-.468-24.276-1.234-59.568-.417-83.447l.443-.749 1.147-.007c23.033-14.118 72.233-13.871 98.661-12.401l.655-1.169c-5.415-.425-15.095-.564-18.853-4.31l.085-1.897c1.961-2.188 3.834-2.337 6.704-3.117 7.892 1.744 28.245-5.516 35.653-9.249 23.069-10.776 41.025-31.791 50.763-55.163 3.326-7.982 2.62-14.24 8.397-19.078 20.264-11.514 37.384-25.8 51.753-44.412 4.046-5.241 7.461-13.027 11.421-17.999l1.186-1.461c-4.983-3.431-13.868-27.658-15.142-34.712-6.503-36.017-.609-59.424 18.56-89.205-.107-8.394-1.495-13.119-3.492-21.186l1.109-1.691c-19.27-40.805-45.022-67.948-87.155-86.093-2.339-1.076-1.53-.536-3.268-2.516-1.154-8.914 7.381-29.129 10.889-38.164l-1.292-1.132c26.79-61.408 93.415-97.528 158.782-98.237 17.499-2.922 63.518 4.991 80.085 12.123 3.162.733 9.986 3.615 13.289 4.904"/><path fill="#381902" d="M917.091 805.971c-1.483-31.662-.435-53.62 19.65-79.303l.72 1.731c-27.187 38.947-25.329 83.922 2.858 121.708-.202 5.451 4.283 19.402 5.583 26.351 1.653 8.838 3.009 17.698 4.558 26.512-3.469 1.479-9.703 3.683-12.112 6.177l1.097.671c1.205 11.189.757 28.328.764 39.988l.042 66.304.274 219.35c.013 12.29-1.579 69.92.368 77.35l-1.483-.47c-.398 9.93-19.363 28.11-19.583 55.53l-.695 3.54c-.19 27.65 5.046 42.68 20.122 65.8 1.08 2.28.914 2.47 2.917 3.9-1.316 3.22-1.736 53.39-1.329 59.05l-1.548-2.77c-1.56 2.29-1.189 2.78-1.478 5.8l.408.91c-41.001 22.48-68.349 43.53-86.987 88.25-6.098 16.21-12.102 36.91-12.309 54.32l-1.458 4.59-.536-.43c-.311-8.27 2.05-16.25 2.364-25.01.4-.53.41-1.6.528-2.42.886-2.82 1.708-7.37 2.352-10.37.105-.83.049-.98.411-1.65 4.251-17.91 2.685-69.11 2.622-89.94-.252-43.92-.115-87.85.412-131.77a201.4 201.4 0 0 0-66.622-19.68c-7.259-.91-18.944-1.05-25.183-2.44l-.129-1.65c-2.935.14-9.494.25-12.007.94-4.888 2.59-27.47 4.47-37.131 7.37l-1.594.42c-11.529 2.75-17.926 5.57-28.951 9.62-37.216 15.64-62.854 38.72-83.265 73.63-1.864-1.88-2.221-2.53-4.542-3.72l-.157-2.98c2.991-12.13 1.968-29.32 1.968-42.08l-.053-91.09c-.008-11.46-.644-38.25.844-48.38l-4.51-2.09c-3.03-1.42-5.463-2.54-8.629-3.68-3.285-7.81-2.846-50.53 2.185-57.51 7.167-4.88 18.002-23.94 21.165-32.27 5.501-11.81 7.298-27.45 7.886-40.38.25-5.48-.733-10.92 2.139-15.42 12.611-12.57 24.351-23.7 40.106-32.4 7.161-3.96 15.394-6.93 22.361-10.74l1.671-.93c1.507-3.14-.509.49 1.674-1.88 7.025-7.63 10.598-30.88 11.852-39.88-32.827-36.94-41.143-71.128-23.688-118.638 3.261-6.597 5.717-10.868 9.593-17.143a88 88 0 0 0 1.517-2.093c2.015-1.386 3.496-2.279 5.585-3.506 19.71-22.206 41.914-36.339 72.297-38.326a107.03 107.03 0 0 1 79.424 27.178c27.144 24.028 36.535 59.355 31.74 94.491l1.483.389c1.396-3.823 2.337-4.859 4.711-8.263-2.705-6.296-2.675-11.537-2.935-18.188 1.237-19.768-14.705-41.534-18.397-56.885-2.822-11.733-1.023-52.153-1.004-64.963.022-15.581-2.078-60.955 2.123-73.623 25.727 12.572 50.384 30.209 67.941 53.091"/><path fill="#2e7d32" d="m673.175 1074.21 6.355-1.71c-1.105 12.39-.568 34.91-.488 47.95.087 14.19-.677 34.85.137 48.57-.038 6.63-.246 14.16.007 20.71-2.645 3.69-6.089 8.22-8.447 11.99l.78 1.81c1.731-2.64 3.795-5.07 5.777-7.54l.836-1a100.8 100.8 0 0 1 66.227-39.79c28.548-4.17 58.723 1.81 81.879 19.51a103.54 103.54 0 0 1 40.03 69.64c7.509 59.59-34.143 112.23-94.02 116.99-10.814.86-22.307 1.56-32.805-1.87l.509 2.4c3.623.55 10.246 1.12 13.063 2.92l.674 1.11c-2.935.14-9.494.25-12.007.94-4.888 2.59-27.47 4.47-37.131 7.37l-1.594.42c-11.529 2.75-17.926 5.57-28.951 9.62-37.216 15.64-62.854 38.72-83.265 73.63-1.864-1.88-2.221-2.53-4.542-3.72l-.157-2.98c2.991-12.13 1.968-29.32 1.968-42.08l-.053-91.09c-.008-11.46-.644-38.25.844-48.38l-4.51-2.09c-3.03-1.42-5.463-2.54-8.629-3.68-3.285-7.81-2.846-50.53 2.185-57.51 7.167-4.88 18.002-23.94 21.165-32.27 5.501-11.81 7.298-27.45 7.886-40.38.25-5.48-.733-10.92 2.139-15.42 12.611-12.57 24.351-23.7 40.106-32.4 7.161-3.96 15.394-6.93 22.361-10.74z"/><path fill="#ffc107" d="m673.175 1074.21 6.355-1.71c-1.105 12.39-.568 34.91-.488 47.95.087 14.19-.677 34.85.137 48.57-.038 6.63-.246 14.16.007 20.71-2.645 3.69-6.089 8.22-8.447 11.99-30.21 51.5-16.117 116.35 36.5 147.72 9.206 5.49 22.1 10.65 32.713 12.43 3.623.55 10.246 1.12 13.063 2.92l.674 1.11c-2.935.14-9.494.25-12.007.94-4.888 2.59-27.47 4.47-37.131 7.37l-1.594.42c-11.529 2.75-17.926 5.57-28.951 9.62-37.216 15.64-62.854 38.72-83.265 73.63-1.864-1.88-2.221-2.53-4.542-3.72l-.157-2.98c2.991-12.13 1.968-29.32 1.968-42.08l-.053-91.09c-.008-11.46-.644-38.25.844-48.38l-4.51-2.09c-3.03-1.42-5.463-2.54-8.629-3.68-3.285-7.81-2.846-50.53 2.185-57.51 7.167-4.88 18.002-23.94 21.165-32.27 5.501-11.81 7.298-27.45 7.886-40.38.25-5.48-.733-10.92 2.139-15.42 12.611-12.57 24.351-23.7 40.106-32.4 7.161-3.96 15.394-6.93 22.361-10.74z"/><path fill="#381902" d="M588.801 1269.63c48.157 24.71 77.135 57.2 94.709 108.59 16.848-5.3 40.5-11.72 58.172-11.38-4.888 2.59-27.47 4.47-37.131 7.37l-1.594.42c-11.529 2.75-17.926 5.57-28.951 9.62-37.216 15.64-62.854 38.72-83.265 73.63-1.864-1.88-2.221-2.53-4.542-3.72l-.157-2.98c2.991-12.13 1.968-29.32 1.968-42.08l-.053-91.09c-.008-11.46-.644-38.25.844-48.38"/><path fill="#2e7d32" d="M679.708 891.07c19.71-22.206 41.914-36.339 72.297-38.326a107.03 107.03 0 0 1 79.424 27.178c27.144 24.028 36.535 59.355 31.74 94.491l-.678 1.763c.026-.067-3.008 11.854-3.123 11.152.624 3.808-11.764 23.952-11.764 23.952-8.429 19.66-39.229 37.14-59.168 42.3a110.47 110.47 0 0 1-84.806-12.5c-31.539-18.79-47.94-50.669-47.62-87.021.188-21.299 6.779-37.625 17.464-55.594l-.868-1.796a88 88 0 0 0 1.517-2.093c2.015-1.386 3.496-2.279 5.585-3.506"/><path fill="#103108" d="M679.708 891.07c-2.539 3.968-2.763 4.078-6.234 7.395l-.868-1.796a88 88 0 0 0 1.517-2.093c2.015-1.386 3.496-2.279 5.585-3.506"/><path fill="#2e7d32" d="M663.013 913.812c3.261-6.597 5.717-10.868 9.593-17.143l.868 1.796c-10.685 17.969-17.276 34.295-17.464 55.594-.32 36.352 16.081 68.231 47.62 87.021a110.47 110.47 0 0 0 84.806 12.5c19.939-5.16 50.739-22.64 59.168-42.3l1.431 1.62c-9.118 16.41-9.294 52.79-9.009 71.39l10.178 5.86c-4.983 6.78-3.209 86.96-3.021 101.59 28.598 44.56 30.028 87.39.019 132.13.573 8.02-.011 17.89-.051 26.12l.064 46.03-.163 129.13c-.056 20.36-.549 40.79.178 61.13.128 3.57 1.065 4.2 4.007 6.07-6.098 16.21-12.102 36.91-12.309 54.32l-1.458 4.59-.536-.43c-.311-8.27 2.05-16.25 2.364-25.01.4-.53.41-1.6.528-2.42.886-2.82 1.708-7.37 2.352-10.37.105-.83.049-.98.411-1.65 4.251-17.91 2.685-69.11 2.622-89.94-.252-43.92-.115-87.85.412-131.77a201.4 201.4 0 0 0-66.622-19.68c-7.259-.91-18.944-1.05-25.183-2.44l-.129-1.65-.674-1.11c-2.817-1.8-9.44-2.37-13.063-2.92l-.509-2.4c10.498 3.43 21.991 2.73 32.805 1.87 59.877-4.76 101.529-57.4 94.02-116.99a103.54 103.54 0 0 0-40.03-69.64c-23.156-17.7-53.331-23.68-81.879-19.51a100.8 100.8 0 0 0-66.227 39.79l-.836 1c-1.982 2.47-4.046 4.9-5.777 7.54l-.78-1.81c2.358-3.77 5.802-8.3 8.447-11.99-.253-6.55-.045-14.08-.007-20.71-.814-13.72-.05-34.38-.137-48.57-.08-13.04-.617-35.56.488-47.95l-6.355 1.71c1.507-3.14-.509.49 1.674-1.88 7.025-7.63 10.598-30.88 11.852-39.88-32.827-36.94-41.143-71.128-23.688-118.638"/><path fill="#081503" d="M663.013 913.812c3.261-6.597 5.717-10.868 9.593-17.143l.868 1.796c-10.685 17.969-17.276 34.295-17.464 55.594-.32 36.352 16.081 68.231 47.62 87.021a110.47 110.47 0 0 0 84.806 12.5c19.939-5.16 50.739-22.64 59.168-42.3l1.431 1.62c-9.118 16.41-9.294 52.79-9.009 71.39l10.178 5.86c-4.983 6.78-3.209 86.96-3.021 101.59 28.598 44.56 30.028 87.39.019 132.13.573 8.02-.011 17.89-.051 26.12l.064 46.03-.163 129.13c-.056 20.36-.549 40.79.178 61.13.128 3.57 1.065 4.2 4.007 6.07-6.098 16.21-12.102 36.91-12.309 54.32l-1.458 4.59-.536-.43c-.311-8.27 2.05-16.25 2.364-25.01.4-.53.41-1.6.528-2.42.886-2.82 1.708-7.37 2.352-10.37.105-.83.049-.98.411-1.65 4.251-17.91 2.685-69.11 2.622-89.94-.252-43.92-.115-87.85.412-131.77a201.4 201.4 0 0 0-66.622-19.68c-7.259-.91-18.944-1.05-25.183-2.44l-.129-1.65-.674-1.11c-2.817-1.8-9.44-2.37-13.063-2.92l-.509-2.4c10.498 3.43 21.991 2.73 32.805 1.87 59.877-4.76 101.529-57.4 94.02-116.99a103.54 103.54 0 0 0-40.03-69.64c-23.156-17.7-53.331-23.68-81.879-19.51a100.8 100.8 0 0 0-66.227 39.79l-.836 1c-1.982 2.47-4.046 4.9-5.777 7.54l-.78-1.81c2.358-3.77 5.802-8.3 8.447-11.99-.253-6.55-.045-14.08-.007-20.71 1.06-15.82 1.207-30.45 1.357-46.33.099 16.51-.578 46.12.688 61.59l.261 1.25c2.758-.48 6.4-4.94 8.702-7.06 33.6-30.89 85.695-34.83 125.3-13.48 12.674 6.84 20.545 14.47 30.192 25.38-.92-10.09-.458-26.52-.399-36.89.077-21.19.292-42.39.644-63.58l-.884-.54c-53.373-27.52-106.648-33.34-163.325-17.7-.821 3.61-1.104 4.69-1.235 8.34-.247-2.04-.561-5.62-.95-7.5l-6.355 1.71c1.507-3.14-.509.49 1.674-1.88 7.025-7.63 10.598-30.88 11.852-39.88-32.827-36.94-41.143-71.128-23.688-118.638"/><path fill="#2e7d32" d="M841.593 1023.75c.471 2.33-2.485 24.53-2.767 29.27-.611 10.29-.749 19.84-.832 30.21-52.43-23.45-102.672-30.23-157.978-12.99 3.34-12.61 6.638-23.91 8.387-36.88a112.13 112.13 0 0 0 74.807 25.9c32.04-.69 56.592-12.83 78.383-35.51M845.837 1325.56c-1.134 19.23-.49 42.09-.57 61.57-23.374-11.23-51.066-19.8-77.156-20.24-10.356-.98-12.934-3.2-.81-2.59 34.017-2.38 55.833-13.94 78.536-38.74"/><path fill="#ffc107" d="M869.363 966.539c25.393-29.607 33.661-37.12 68.831-55.957.411 93.088 1.932 190.808.112 283.498-5.198-10.96-8.723-21.83-14.5-32.67-17.336-32.54-42.29-53.39-73.602-71.26l-10.178-5.86c-.285-18.6-.109-54.98 9.009-71.39l-1.431-1.62s12.388-20.144 11.764-23.952c.115.702 3.149-11.219 3.123-11.152l.678-1.763 1.483.389c1.396-3.823 2.337-4.859 4.711-8.263"/><path fill="#16480a" d="m863.169 974.413 1.483.389c-2.044 12.274-7.847 28.238-15.617 38.098l-1.431-1.62s12.388-20.144 11.764-23.952c.115.702 3.149-11.219 3.123-11.152z"/><path fill="#FAFAFA" d="M938.655 1289.91c.016 8.01.038 14.49.755 22.43-.398 9.93-19.363 28.11-19.583 55.53l-.695 3.54c-.19 27.65 5.046 42.68 20.122 65.8-.842 17.53-.239 41.91-.433 60.23-8.39-26.53-22.808-51.8-41.771-72.27-6.168-6.66-27.893-26.72-36.839-28.2-2.107-2.05-2.584-2.24-3.471-4.9 3.243-.93 5.35-2.35 8.263-3.96 39.924-22.08 61.598-55.02 73.652-98.2"/><path fill="#0a0902" d="M860.211 1396.97c-1.992-.3-11.642-3.92-10.306-5.51.016-.01 6.165.12 6.835.61.887 2.66 1.364 2.85 3.471 4.9"/><path fill="#2e7d32" d="M1276.81 308.805c17.4-3.249 71.78 5.511 86.38 14.647 4.21 1.737 8.45 3.429 12.57 5.354 42.94 21.369 75.72 52.66 91.43 99.125 1.14 3.394 2.35 7.713 2.57 11.262-.82 7.2 3.69 22.91 3.99 30.889.9 23.871.5 49.685-2.61 73.396-1.33 10.198-6.82 24.236-8.99 34.618-.25 1.223.77 3.605 1.25 4.803l-1.56-.016c1.59 22.293-.64 50.12.36 73.013l-1.9 2.722 2.5 1.002c-6.18 8.604-8.3 10.324-13.36 20.275-5.87 11.517-9.73 18.264-11.92 31.727-1.53 9.406-.15 14.266-.62 23.102-.7-.592-1.46-1.188-2.18-1.765-.31-3.301-.4-6.381-.55-9.68-27.7-20.399-32.93-26.598-50.96-55.498l-.48-.757c-.71-1.41.06-1.434 1.25-2.187l.57-4.565c8.6-23.162 6.6-58.13-4.26-80.365-7.01-14.339-19.8-28.865-32.77-38.125a109.09 109.09 0 0 0-81.52-18.225c-21.09 3.779-48.34 17.609-60.74 35.481l-2.73-.167c2.96-7.125.33-205.885.23-231.511l.5-1.726c13.22-9.076 56.87-16.719 73.55-16.829"/><path fill="#381902" d="M1375.76 328.806c42.94 21.369 75.72 52.66 91.43 99.125 1.14 3.394 2.35 7.713 2.57 11.262-.82 7.2 3.69 22.91 3.99 30.889.9 23.871.5 49.685-2.61 73.396-1.33 10.198-6.82 24.236-8.99 34.618-.25 1.223.77 3.605 1.25 4.803l-1.56-.016c1.59 22.293-.64 50.12.36 73.013l-1.9 2.722 2.5 1.002c-6.18 8.604-8.3 10.324-13.36 20.275-5.87 11.517-9.73 18.264-11.92 31.727-1.53 9.406-.15 14.266-.62 23.102-.7-.592-1.46-1.188-2.18-1.765-.31-3.301-.4-6.381-.55-9.68-27.7-20.399-32.93-26.598-50.96-55.498l-.48-.757c-.71-1.41.06-1.434 1.25-2.187l.57-4.565 5.64-3.436c-.41-3.33.63-19.644.96-23.864 2.35-29.914-3.55-46.689-19.57-71.802 1.36-59.985-1.52-166.485.56-230.328.04-1.087 2.15-1.476 3.62-2.036"/><path fill="#ffc107" d="M1390.19 656.836c21.13-9.124 46.08-32.966 58.72-52.093 3.86-5.835 8.29-15.589 11.99-20.603l.94-1.257c1.59 22.293-.64 50.12.36 73.013l-1.9 2.722 2.5 1.002c-6.18 8.604-8.3 10.324-13.36 20.275-5.87 11.517-9.73 18.264-11.92 31.727-1.53 9.406-.15 14.266-.62 23.102-.7-.592-1.46-1.188-2.18-1.765-.31-3.301-.4-6.381-.55-9.68-27.7-20.399-32.93-26.598-50.96-55.498l-.48-.757c-.71-1.41.06-1.434 1.25-2.187l.57-4.565z"/><path fill="#16480a" d="m1460.3 658.618 2.5 1.002c-6.18 8.604-8.3 10.324-13.36 20.275-5.87 11.517-9.73 18.264-11.92 31.727-1.53 9.406-.15 14.266-.62 23.102-.7-.592-1.46-1.188-2.18-1.765-.31-3.301-.4-6.381-.55-9.68-27.7-20.399-32.93-26.598-50.96-55.498l-.48-.757c-.71-1.41.06-1.434 1.25-2.187 17.01 30.245 23.9 35.97 50.04 55.989 3.89-26.709 9.11-40.648 26.28-62.208"/><path fill="#081503" d="M1203.26 325.634c13.22-9.076 56.87-16.719 73.55-16.829l.28.803c-23.78 2.718-50.33 6.215-72.14 16.795.67 75.67-.03 151.809 1.15 227.291 6.31-5.945 11.72-11.077 18.98-15.822 47.96-31.339 108.55-21.897 144.72 21.662l-.14-153.618c-.06-24.173-.01-48.35-.13-72.519-.04-8.715-3.52-5.31-6.34-9.945 4.21 1.737 8.45 3.429 12.57 5.354-1.47.56-3.58.949-3.62 2.036-2.08 63.843.8 170.343-.56 230.328 16.02 25.113 21.92 41.888 19.57 71.802-.33 4.22-1.37 20.534-.96 23.864l-5.64 3.436c8.6-23.162 6.6-58.13-4.26-80.365-7.01-14.339-19.8-28.865-32.77-38.125a109.09 109.09 0 0 0-81.52-18.225c-21.09 3.779-48.34 17.609-60.74 35.481l-2.73-.167c2.96-7.125.33-205.885.23-231.511z"/><path fill="#2e7d32" d="M752.755 308.787c17.499-2.922 63.518 4.991 80.085 12.123l.287 1.468c4.16 1.701 8.871 3.484 12.869 5.422l-.123 231.125c-20.555-24.018-42.841-38.363-75.217-40.856a108.25 108.25 0 0 0-79.764 25.654 100 100 0 0 0-10.366 10.301c-1.803-8.267-2.369-10.552-2.599-18.98l-1.861-.103-1.267-.012c-19.27-40.805-45.022-67.948-87.155-86.093-2.339-1.076-1.53-.536-3.268-2.516-1.154-8.914 7.381-29.129 10.889-38.164l-1.292-1.132c26.79-61.408 93.415-97.528 158.782-98.237"/><path fill="#ffc107" d="M593.973 407.024c26.79-61.408 93.415-97.528 158.782-98.237l.361.808c-17.838 2.035-59.73 7.139-73.49 18.186-.663 2.162-.767 1.798-.781 3.966-3.418 56.905.177 116.991-1.048 174.147-.183 8.548-.15 19.593.478 28.051l-.348 1.099-1.861-.103-1.267-.012c-19.27-40.805-45.022-67.948-87.155-86.093-2.339-1.076-1.53-.536-3.268-2.516-1.154-8.914 7.381-29.129 10.889-38.164z"/><path fill="#103108" d="M593.973 407.024c26.79-61.408 93.415-97.528 158.782-98.237l.361.808c-17.838 2.035-59.73 7.139-73.49 18.186-.663 2.162-.767 1.798-.781 3.966-3.418 56.905.177 116.991-1.048 174.147-.183 8.548-.15 19.593.478 28.051l-.348 1.099-1.861-.103.124-206.432c-37.472 16.047-63.119 43.506-80.925 79.647z"/><path fill="#2e7d32" d="M418.57 1069.23c19.598-23.17 42.345-35.63 72.963-38.05a106.21 106.21 0 0 1 77.86 26.02c27.767 24.1 36.516 49.12 35.341 85.07-.084.76-.096 1.98-.431 2.53-.505 3.64-.91 6.98-1.715 10.57l-.306 1.68c-1.366 5.63-2.099 9.39-4.57 14.72l1.3 2.31c-3.163 8.33-13.998 27.39-21.165 32.27l-3.1.67c-9.074 10.59-29.163 21.18-42.342 25.35-27.637 8.77-55.304 6.78-81.019-6.8a103.87 103.87 0 0 1-51.586-62.53 104.36 104.36 0 0 1 8.429-79.94l-.604-1.06.973-2.21c2.845-.91 6.989-7.29 9.972-10.6M1205.26 559.038c12.4-17.872 39.65-31.702 60.74-35.481a109.09 109.09 0 0 1 81.52 18.225c12.97 9.26 25.76 23.786 32.77 38.125 10.86 22.235 12.86 57.203 4.26 80.365l-.57 4.565c-1.19.753-1.96.777-1.25 2.187-.66 1.325-2.38 5.045-3.08 6.082-11.9 21.357-30.27 39.707-53.68 47.938-11.34 4.813-38.16 11.311-49.6 7.073-2.34-1.138-10.43-2.913-13.52-3.736-13.35-3.553-23.4-6.934-34.84-14.681l-1.18-.968c-13.05-9.78-20.26-16.754-29.41-30.486l-.87-1.243c-6.84-10.004-13.39-26.892-14.87-38.906-4-32.478 5.04-54.044 23.58-79.059M750.516 725.181c-2.014-1.619-12.822-4.18-15.846-4.988-51.883-13.872-81.663-56.458-76.047-109.925a98.56 98.56 0 0 1 36.588-67.142c78.216-61.812 188.367 7.316 167.23 102.559-1.581 7.125-7.87 21.116-8.203 26.6-2.292 3.918-3.74 6.292-6.463 9.906-8.393 10.836-21.291 24.275-33.649 30.581-17.171 9.565-44.423 17.083-63.61 12.409"/><path fill="#fa0e17" d="M937.461 728.399c12.037-14.548 19.247-20.566 35.849-29.048 63.43-32.407 146.66 4.564 153.69 78.289.77 8.062.32 16.515-.13 24.637l-.33 1.609a99.39 99.39 0 0 1-42.12 64.734c-33.18 22.801-79.46 26.341-114.061 6.575-4.41-2.52-9.049-5.698-13.389-7.912-.322-.768-13.929-14.09-16.651-17.176-28.187-37.786-30.045-82.761-2.858-121.708"/><path fill="#2e7d32" d="m526.655 838.409 1.818.397c3.032 2.288 15.532 3.58 20.623 4.761 13.32 3.093 23.972 6.744 36.638 11.664l.126 215.489c-44.538-49.99-104.257-55.9-157.844-15.76-.424-23.81-.62-47.63-.588-71.442l-1.221 4.123c-.776-13.836-.362-37.526-.041-51.459-.468-24.276-1.234-59.568-.417-83.447l.443-.749 1.147-.007c23.033-14.118 72.233-13.871 98.661-12.401z"/><path fill="#103108" d="M427.339 851.979c.923 6.327.64 83.973-.198 84.69-.396-.083-.114.013-.975-.487-.468-24.276-1.234-59.568-.417-83.447l.443-.749z"/><path fill="#381902" d="m937.987 227.789.25 75.048c1.754 5.048 1.159 23.562 1.147 29.728l-.228 63.807c-.092 14.478-1.285 25.515.672 39.986-23.756 29.577-28.543 64.621-18.477 100.86 2.075 7.472 9.029 14.902 9.482 22.778.029 7.301-10.255 15.25-10.415 21.752-10.74 15.502-32.253 35.868-49.506 43.814-1.08-.614-2.92-1.779-3.066-3.143-2.455-22.937-7.096-41.536-19.942-60.906-1.719-21.191-2.442-223.384 1.104-233.929l-.654-1.173c.219-1.377.417-2.906.949-4.198 19.168-46.578 44.652-72.997 88.684-94.424"/><path fill="#ffc107" d="m937.987 227.789.25 75.048c-.537 38.208.495 77.014-.224 115.011-19.271-40.99-47.107-71.27-89.005-90.264l-.654-1.173c.219-1.377.417-2.906.949-4.198 19.168-46.578 44.652-72.997 88.684-94.424"/><path fill="#2e7d32" d="M743.356 732.804c4.546-.919 12.058-1.012 16.595-.008 11.954 2.771 30.821 2.898 40.422 6.342.411.031 2.209.103 2.509.251l6.523 1.93 1.676.309c11.075 2.807 23.577 6.754 33.78 11.968l-1.606-3.097 5.895 2.381c-4.201 12.668-2.101 58.042-2.123 73.623-.019 12.81-1.818 53.23 1.004 64.963 3.692 15.351 19.634 37.117 18.397 56.885.26 6.651.23 11.892 2.935 18.188-2.374 3.404-3.315 4.44-4.711 8.263l-1.483-.389c4.795-35.136-4.596-70.463-31.74-94.491a107.03 107.03 0 0 0-79.424-27.178c-30.383 1.987-52.587 16.12-72.297 38.326-2.089 1.227-3.57 2.12-5.585 3.506l2.39-5.215c-.927-7.296-.339-32.785-.324-41.073l.114-85.874-.409-13.421 1.704 1.172 1.093-1.472c6.607-8.21 51.869-12.214 64.665-15.889"/><path fill="#081503" d="m843.255 750.499 5.895 2.381c-4.201 12.668-2.101 58.042-2.123 73.623-.019 12.81-1.818 53.23 1.004 64.963 3.692 15.351 19.634 37.117 18.397 56.885.26 6.651.23 11.892 2.935 18.188-2.374 3.404-3.315 4.44-4.711 8.263l-1.483-.389c4.795-35.136-4.596-70.463-31.74-94.491a107.03 107.03 0 0 0-79.424-27.178c-30.383 1.987-52.587 16.12-72.297 38.326-2.089 1.227-3.57 2.12-5.585 3.506l2.39-5.215.723-4.177c.994.988 1.107 1.406 2.242 1.791 4.103-4.235 7.926-8.065 12.438-11.887a105.78 105.78 0 0 1 78.489-24.482c29.85 2.779 56.441 17.986 75.385 40.976-1.26-16.178.426-134.991-.929-137.986z"/><path fill="#ffc107" d="M1112.94 411.947c10.54-22.594 27.09-42.707 46.38-58.433 9.41-7.679 31.62-23.805 43.44-26.154.1 25.626 2.73 224.386-.23 231.511-15.28 17.011-22.59 41.778-23.88 64.239-21.6-11.33-54.83-45.03-63.75-67.278a113.1 113.1 0 0 0 12.14-35.161c5.54-32.989-2.91-58.39-21.67-85.052 1.88-8.906 4.25-15.262 7.57-23.672"/><path fill="#FAFAFA" d="M1113.33 557.669c15.25 25.069 38.46 54.685 65.61 67.498.65 28.519 10.49 47.821 27.68 69.609-.23 3.587-.87 6.538.63 9.689 3.56 1.8 5.66.823 9.68-.279 16.08 12.219 38.84 23.915 59.44 23.931 11.44 4.238 38.26-2.26 49.6-7.073 23.41-8.231 41.78-26.581 53.68-47.938.7-1.037 2.42-4.757 3.08-6.082l.48.757c18.03 28.9 23.26 35.099 50.96 55.498.15 3.299.24 6.379.55 9.68a100.76 100.76 0 0 0 34.03 70.436c17.98 15.892 36.05 23.198 59.41 26.689l.82 2.013c-21.07.049-41.05 6.03-61.27 11.133-.73.183-2.56-1.278-3.02-1.696-2.29-9.843-13.82-25.868-19.93-33.938-26.53-35.042-78.11-65.838-122.13-70.836-6.28-2.703-32.59-3.947-40.05-3.732-21.93-.962-48.27 7.388-69.06 14.08-3.43 1.104-2.31 1.377-4.39-.614l-1.59-5.345c-12.08-50.418-53.53-90.218-99.59-110.979-17.33-6.626-30.97-10.669-49.31-14.344-5.92-1.188-21.89-2.809-25.51-4.23-.14-6.891 19.41-8.019 25.43-10.194 22.41-8.084 41.91-23.734 54.77-43.733"/><path fill="#381902" d="M587.83 853.895c33.077 13.889 53.928 32.081 75.183 59.917-17.455 47.51-9.139 81.698 23.688 118.638-1.254 9-4.827 32.25-11.852 39.88-2.183 2.37-.167-1.26-1.674 1.88l-1.671.93c-6.967 3.81-15.2 6.78-22.361 10.74-15.755 8.7-27.495 19.83-40.106 32.4-.748-.24-2.44-1.35-2.581-1.95-4.031-17.06-8.932-28.49-18.785-43.13-.959-72.97.77-146.529.159-219.305M1107.95 630.17c46.06 20.761 87.51 60.561 99.59 110.979-1.37 3.675-.33 5.764-2.61 12.161-31.83 15.239-50.42 26.97-71.93 56.254-4.06 1.752-2.48 2.03-5.4.933l-1.06-6.611.33-1.609c.52-.568 1.31-2.445 1.39-3.251 3.41-33.368-3.32-48.523-20.22-74.774z"/><path fill="#ffc107" d="M833.695 746.164c14.804-56.226 52.935-93.241 104.86-116.213.243 15.892 2.927 87.853-1.814 96.717-20.085 25.683-21.133 47.641-19.65 79.303-17.557-22.882-42.214-40.519-67.941-53.091l-5.895-2.381c-2.013-1.156-7.213-3.289-9.56-4.335M573.818 848.605c6.118-19.255 21.266-40.28 34.131-55.606 11.645-13.873 50.448-43.091 67.945-44.006l.409 13.421-.114 85.874c-.015 8.288-.603 33.777.324 41.073l-2.39 5.215a88 88 0 0 1-1.517 2.093c-3.876 6.275-6.332 10.546-9.593 17.143-21.255-27.836-42.106-46.028-75.183-59.917z"/><path fill="#381902" d="M1110.06 227.711c33.6 15.817 61.6 38.741 80.54 71.174 5.88 10.071 8.06 17.199 12.66 26.749l-.5 1.726c-11.82 2.349-34.03 18.475-43.44 26.154-19.29 15.726-35.84 35.839-46.38 58.433l-2.6-2.044c-3.32-9.714-3.53-173.335-.28-182.192"/><path fill="#FAFAFA" d="M933.851 561.314c2.447 3.012 4.895 5.568 5.055 9.349-.39 7.958-1.277 49.529-.095 55.773-5.227 4.951-23.503 12.293-31.085 17.149-38.936 24.935-62.491 58.252-75.662 102.377-24.63-8.066-45.805-12.938-72.113-13.166-4.537-1.004-12.049-.911-16.595.008-10.867.115-25.582 2.949-36.614 4.696 2.382-7.97 4.997-14.623 8.03-22.393 10.965 4.498 23.901 9.383 35.744 10.074 19.187 4.674 46.439-2.844 63.61-12.409 12.358-6.306 25.256-19.745 33.649-30.581 2.723-3.614 4.171-5.988 6.463-9.906 7.423-12.016 8.977-24.664 11.79-38.15 1.257-6.028.827-5.9 4.884-8.573 17.253-7.946 38.766-28.312 49.506-43.814 5.696-6.723 9.093-12.81 13.433-20.434M609.404 745.595c20.264-11.514 37.384-25.8 51.753-44.412 4.046-5.241 7.461-13.027 11.421-17.999l1.186-1.461.117 8.865c-.779 6.359-.539 47.157.697 53.33-2.696 5.063-17.33 9.987-23.388 13.173-36.078 18.982-64.602 52.325-79.197 90.821-12.045-3.344-31.245-8.869-43.52-9.106l-1.818-.397c-5.415-.425-15.095-.564-18.853-4.31l.085-1.897c1.961-2.188 3.834-2.337 6.704-3.117 7.892 1.744 28.245-5.516 35.653-9.249 23.069-10.776 41.025-31.791 50.763-55.163 3.326-7.982 2.62-14.24 8.397-19.078"/><path fill="#2e7d32" d="m938.906 570.663 2.244 1.206c22.859 21.557 40.587 32.195 72.85 35.337 2.21.215 20.45-.321 15.77 3.503-1.08 1.031-7.64.598-9.7.571-15.04-.201-30.344 1.731-45.051 4.859l-4.499.995c-10.831 2.384-19.919 6.634-30.128 9.355l-.631-.719-.333-.253-.617.919c-1.182-6.244-.295-47.815.095-55.773M675.913 687.119c1.962.619 2.592 1.586 4.121 3.336 9.651 11.044 21.073 16.546 32.686 24.738-3.095 7.309-5.239 14.938-8.323 22.029l-1.715.445c-9.829 2.533-17.037 5.424-26.307 8.311-.544-.907-.982-1.229-1.797-2.06-1.236-6.173-1.476-46.971-.697-53.33.26 2.09.556 4.219.643 6.321l-.092 1.61.119 1.392-.039.193c.83-2.927-.564-7.107 1.401-12.985"/><path fill="#2e7d32" d="M1088.26 582.415c-3.78 3.571-9.44 7.14-13.94 9.764-40.83 23.817-96.759 14.711-129.133-19.744a100.64 100.64 0 0 1-26.9-72.698c2.019-58.434 50.574-102.093 108.573-99.882a105.77 105.77 0 0 1 73.45 33.933 102.63 102.63 0 0 1 26.14 73.911c-1.89 32.271-12.7 52.352-36.31 73.145z"/><path fill="#2e7d32" d="M942.578 226.063c57.932-21.083 106.762-21.906 164.182 2.283-.26 41.382-.27 82.766-.02 124.149.09 16.391 1.02 58.822-1.12 73.868-.04.876-.08 1.097-.28 1.948-.98 2.595-.38 1.791-2.2 3.713-5.59-2.272-10.27-8.941-14.97-12.435-46.36-34.417-108.165-28.176-146.383 14.675-.582-7.123-1.577-15.768-.964-22.743-1.299-7.987-1.017-27.505-1.051-36.303l.005-64.335.123-53.878c.022-7.284-.348-22.639.529-29.377zM999.723 614.425c34.597-4.835 74.067 5.079 106.307 16.904.55 30.196.04 61.68-.04 91.971-16.92-19.651-32.64-26.938-57.01-34.494-39.55-9.297-78.96 3.542-107.43 31.825-1.584-23.169-.924-68.021-.473-91.791 20.702-8.067 36.752-12.024 58.646-14.415"/><path fill="#ad6e01" d="M1207.57 696.472c4.14 1.97 5.21 3.204 7.04 7.393-7.81 1.114-6.76-.117-7.04-7.393"/><path fill="#FAFAFA" d="M1945.74 1159.77c65.27-24.92 89.17-65.4 102.26-131.19V2048h-958.52c3.91-.68 14.15-.59 18.66-.65l.15-152.68c.02-21.99.95-54.62-.43-75.89 1.61-2.25 16.78-9.22 20.71-11.5 14.86-8.63 25.26-15.9 37.23-28.21 9.55-9.96 17.7-21.17 24.23-33.33 2.74-5 11-24.06 13.07-26.04l.97-1.91c-1.34-6.47 3.74-30.5 4.35-39.74.94-14.32.29-22.48-.29-36.81-.38-9.14-6.06-25.94-3.96-31.28.19 1.4.5 4.76 1 5.87 1.75-20.91.69-54.68.7-76.69l-.22-150.25c43.78-23.01 102.65-21.57 149.12-7.16 4.81 1.45 9.52 3.2 14.11 5.25l.23 232.7.33 63.84c.06 9.51-.14 29.27 1.44 38.01.02-7.61-.14-16.11.56-23.61 36.35-12.14 62.87-37.67 82.81-67.61.82-1.23 4.1-.33 5.68-.14l-1.28-1.16c1.18-4.26 1.03-4.47 1.16-9.04-.62-2.45 8.99-31.1 10.37-37.49 4.9-22.8 5.29-46.34 1.16-69.29-2.93-15.74-8.08-29.46-12.31-44.69.35-.91.7-1.83 1.04-2.75l-.34-.52c-3.46-1.74-13.73-19.8-17.43-24.5-19.17-24.37-41.3-40.07-69.14-53.61l-9.19-4.05c3.28-19.57 5.78-26.26 13.57-43.8.74-.95.81-.9 1.05-2-.13-3.68 1.02-4.88 2.37-8.37 5.61-9.27 10-14.63 16.85-22.77.83-.57 12.93-12.66 13.32-13.24 5.56-4.61 21.06-17.5 27.97-17.33 3.22-.94 11.34-5.08 14.04-7.31l5.56-1.75 1.87 3.24 1.3-2.58 1.23-2.49c24.54-14.35 81.27-19.82 109.28-15.28 1.32.01 1.72-.22 2.62.28l5.4.65c1.07.14 2.2.15 3.11.56l2.07.35 2.99.62 1.99.34 2.95.68 2.06.33 2.22.63c8.15 2.02 13.71 3.72 21.66 6.47 2.01.45 2.73.47 4.6 1.29 2.16 2.84 1.85 3.36 1.88 7.8.13 18.39.08 36.89.08 55.28l.12 106.88.22 113.9c.09 15.47 1.02 33.43.78 48.52.72 5.7 1.09 17.55 1.94 21.57.47-12.95.1-28.29.1-41.39 8.84-3.65 18.25-7.42 25.97-13.11l.96.29c1.48 7.22.58 58.55.51 68.56l81.84-.38c1.12-53.15-.38-107.77.11-160.99.12-13.53-1.43-61.46 1.21-71.6l3.18-1.07c4.67 7.28 3.27 21.21 3.27 29.77 0 18.04-.04 36.09-.05 54.13l.11 150.06 80.97-.15.48-154.03c.05-23.85 1.06-58.32-.64-81.21 6.11.76 30.33 1.57 36.02.69 1.25-4.85.84-20.56.85-26.37l1.85-2.55c1.72 4.3.98 23.79.93 29.59l78.33.19c.06-35.47.72-73-.17-108.31.87-10.33.27-34.61.31-46.09.07-26.44.74-54.47-.09-80.76z"/><path fill="#2e7d32" d="m1461.87 1267.16 1.23-2.49c24.54-14.35 81.27-19.82 109.28-15.28 1.32.01 1.72-.22 2.62.28l5.4.65c1.07.14 2.2.15 3.11.56l2.07.35 2.99.62 1.99.34 2.95.68 2.06.33 2.22.63c8.15 2.02 13.71 3.72 21.66 6.47 2.01.45 2.73.47 4.6 1.29 2.16 2.84 1.85 3.36 1.88 7.8.13 18.39.08 36.89.08 55.28l.12 106.88.22 113.9c.09 15.47 1.02 33.43.78 48.52.72 5.7 1.09 17.55 1.94 21.57 1.35 14.85.57 40.58.47 55.87l.01 91.07c0 7.83.48 35.64-.46 42.47.14 3.88.75 8.08-.81 11.51-20.44 1.72-56.48-.23-79.29.21.33-65.11.16-130.22-.52-195.32-.16-8.59 1.16-42.62-1.9-47.36-3.76-1.13-1.94-1.19-5.67.26-4.75 5.44-2.68 20.13-2.63 27.69l-.02 47.5-.18 167.18c-22.88-.62-48.66.41-70.7-.66-2.8.32-3.68.72-6.27-.31-1.36-2.21-.98-166.39-.87-183.27l-.3-2.21-1.28-1.16c1.18-4.26 1.03-4.47 1.16-9.04-.62-2.45 8.99-31.1 10.37-37.49 4.9-22.8 5.29-46.34 1.16-69.29-2.93-15.74-8.08-29.46-12.31-44.69.35-.91.7-1.83 1.04-2.75l-.34-.52c-3.46-1.74-13.73-19.8-17.43-24.5-19.17-24.37-41.3-40.07-69.14-53.61l-9.19-4.05c3.28-19.57 5.78-26.26 13.57-43.8.74-.95.81-.9 1.05-2-.13-3.68 1.02-4.88 2.37-8.37 5.61-9.27 10-14.63 16.85-22.77.83-.57 12.93-12.66 13.32-13.24 5.56-4.61 21.06-17.5 27.97-17.33 3.22-.94 11.34-5.08 14.04-7.31l5.56-1.75 1.87 3.24z"/><path fill="#ffc107" d="m1453.14 1268.25 5.56-1.75c1.27 10.49.99 25.97.99 36.79 0 19.44-.1 38.88-.31 58.32-.3 34.43.87 69.51.35 103.62-3.46-1.74-13.73-19.8-17.43-24.5-19.17-24.37-41.3-40.07-69.14-53.61l-9.19-4.05c3.28-19.57 5.78-26.26 13.57-43.8.74-.95.81-.9 1.05-2-.13-3.68 1.02-4.88 2.37-8.37 5.61-9.27 10-14.63 16.85-22.77.83-.57 12.93-12.66 13.32-13.24 5.56-4.61 21.06-17.5 27.97-17.33 3.22-.94 11.34-5.08 14.04-7.31"/><path fill="#081503" d="M1411.13 1292.89c5.56-4.61 21.06-17.5 27.97-17.33-36.32 23.68-37.27 27.45-60.51 61.71-.13-3.68 1.02-4.88 2.37-8.37 5.61-9.27 10-14.63 16.85-22.77.83-.57 12.93-12.66 13.32-13.24"/><path fill="#103108" d="m1536.62 1571.96 14.21.09c-1.55 14.66-2.04 52.66.03 67.46l.05 112.58c-.02 19.4.5 42.16-.32 61.3 1.06.86 1.19 1.19 2.37 1.57 13.94.01 64.39 1.19 75.06-.59.12-3.22.63-6.24 1.07-9.42.14 3.88.75 8.08-.81 11.51-20.44 1.72-56.48-.23-79.29.21.33-65.11.16-130.22-.52-195.32-.16-8.59 1.16-42.62-1.9-47.36-3.76-1.13-1.94-1.19-5.67.26-4.75 5.44-2.68 20.13-2.63 27.69l-.02 47.5-.18 167.18c-22.88-.62-48.66.41-70.7-.66 8.41-2.77 56.25-.76 69.4-1.48.86-10.16.4-25.17.41-35.74l.02-65.26c.01-43.2 1.51-98.92-.58-141.52M1458.7 1266.5l1.87 3.24 1.3-2.58c.7 40.33.04 81.74.11 122.2.03 24.49 1.03 57.91-.27 81.92l-1.64-5.53-.34-.52c.52-34.11-.65-69.19-.35-103.62.21-19.44.31-38.88.31-58.32 0-10.82.28-26.3-.99-36.79"/><path fill="#0a0902" d="m1460.07 1465.75 1.64 5.53c13.49 38.16 19.39 74.4 9.59 114.69-6.59 27.08-10.98 26.55-9.45 57.05-.29-4.67-.48-6.12-1.62-10.64l-.3-2.21-1.28-1.16c1.18-4.26 1.03-4.47 1.16-9.04-.62-2.45 8.99-31.1 10.37-37.49 4.9-22.8 5.29-46.34 1.16-69.29-2.93-15.74-8.08-29.46-12.31-44.69.35-.91.7-1.83 1.04-2.75"/><path fill="#2e7d32" d="M1205.65 1388.89c43.78-23.01 102.65-21.57 149.12-7.16 4.81 1.45 9.52 3.2 14.11 5.25l.23 232.7.33 63.84c.06 9.51-.14 29.27 1.44 38.01.85 25.85.1 55.09.09 81.22v140.76c-7.2 1.2-72.61 1.15-80.36.24-2.48-.49-1.44-21.62-1.44-25.23l-.09-142.17c-.01-10.15 1.01-71.58-1.43-75.11-3.47-.09-3.42-.53-6.22.98-1.19 6.81-.61 20.44-.56 27.79l.13 42.98.01 171.38c-24.84-.52-49.91.11-74.85-.39l-1.99-1.63c-1.38-8.95-.84-50.26-.88-60.96V1747.4l-.19-27.7.97-1.91c-1.34-6.47 3.74-30.5 4.35-39.74.94-14.32.29-22.48-.29-36.81-.38-9.14-6.06-25.94-3.96-31.28.19 1.4.5 4.76 1 5.87 1.75-20.91.69-54.68.7-76.69z"/><path fill="#0a0902" d="M1204.17 1609.96c.19 1.4.5 4.76 1 5.87 5.29 21.8 7.38 44.9 4.52 67.18-2.4 18.64-6.39 42.33-4.69 61.36-.8 16.26-.51 33.76-.52 50.14 0-8.59.76-41.15-1.19-47.11l-.19-27.7.97-1.91c-1.34-6.47 3.74-30.5 4.35-39.74.94-14.32.29-22.48-.29-36.81-.38-9.14-6.06-25.94-3.96-31.28"/><path fill="#2e7d32" d="M1011.95 1489.11c6.56-.2 14.91-.9 21.11.89 25.93.72 49.32 6.87 73.2 16.79.77 8.34-.1 17.46.9 26.56 1.2-7.72 1.09-19.72 1.3-27.87 44.65 23.07 75.85 50.38 93.15 99.3 1 2.99.39 2.31 2.27 4.51l.29.67c-2.1 5.34 3.58 22.14 3.96 31.28.58 14.33 1.23 22.49.29 36.81-.61 9.24-5.69 33.27-4.35 39.74l-.97 1.91c-2.07 1.98-10.33 21.04-13.07 26.04a152.2 152.2 0 0 1-24.23 33.33c-11.97 12.31-22.37 19.58-37.23 28.21-3.93 2.28-19.1 9.25-20.71 11.5 1.38 21.27.45 53.9.43 75.89l-.15 152.68c-4.51.06-14.75-.03-18.66.65H951.385c-3.725-.28-8.22-.14-11.215-2.09-1.839-3-1.053-7.45-.868-11.17-.987-22.91-.162-52.7-.205-76.07-.206-43.73-.166-87.47.121-131.2 1.186 7.65 1.105 20.94 1.253 29.09.357-12.52.226-25.23.58-37.92-.848-6.07-.389-46.24-.3-53.76.434-36.82-.624-75.06.404-111.72-1.533-47.01-.168-102.7-.203-150.29 22.545-8.66 46.977-12.43 70.998-13.76"/><path fill="#381902" d="M1108.46 1505.48c44.65 23.07 75.85 50.38 93.15 99.3 1 2.99.39 2.31 2.27 4.51l.29.67c-2.1 5.34 3.58 22.14 3.96 31.28.58 14.33 1.23 22.49.29 36.81-.61 9.24-5.69 33.27-4.35 39.74l-.97 1.91c-2.07 1.98-10.33 21.04-13.07 26.04a152.2 152.2 0 0 1-24.23 33.33c-11.97 12.31-22.37 19.58-37.23 28.21-3.93 2.28-19.1 9.25-20.71 11.5-3.28-8.73-2.19-288.93-1.6-311.99.77 8.34-.1 17.46.9 26.56 1.2-7.72 1.09-19.72 1.3-27.87"/><path fill="#FAFAFA" d="m1018.68 2032.52.33-150.75c.02-10.88-.77-54.94.35-61.64 2.22-1.77 2.32-1.15 5.82-1.29 3.83 3.23.52 173 1.65 194.4.34 6.37-1.18 28.63.87 33.33l2.45 1.43h-11.77c.55-3.71.31-11.44.3-15.48"/><path fill="#2e7d32" d="M1652.68 1077.14c47.41-21.48 113.44-19.64 161.9-1.34 1.86.7 3.68 1.48 5.48 2.32l.2 17.45.09 145.42.09 43.32c.01 5.05-.12 19.7.52 24.16-.6 28.22-.13 57.75-.06 86.07 12.4-7.86 30.09-18.17 43.06-25.8-.01 5.81.4 21.52-.85 26.37-5.69.88-29.91.07-36.02-.69 1.7 22.89.69 57.36.64 81.21l-.48 154.03-80.97.15-.11-150.06c.01-18.04.05-36.09.05-54.13 0-8.56 1.4-22.49-3.27-29.77l-3.18 1.07c-2.64 10.14-1.09 58.07-1.21 71.6-.49 53.22 1.01 107.84-.11 160.99l-81.84.38c.07-10.01.97-61.34-.51-68.56l-.96-.29c-7.72 5.69-17.13 9.46-25.97 13.11-1.99-13.1-1.36-49.88-1.37-64.4l.01-120.12-.02-88.39c.02-8.28-.5-33.73 1.03-39.62 8.21 3.57 14.26 6.65 22.17 10.89l.84-.58.25-108.21c-.81-9.39-.42-60.52.04-70.18 1.12-6.17.78-10.22.56-16.4"/><path fill="#381902" d="M1628.82 1261.62c8.21 3.57 14.26 6.65 22.17 10.89 1.64 4.96 14.34 12.01 19.11 15.87 39.91 32.27 60.49 76 61.54 127.19.09 4.65.3 14.23.92 18.69-.16 1.62-.72 8.53-1.04 9.81-4.81 42.79-27.38 79.1-60.69 105.85-4.87 3.85-9.78 7.66-14.73 11.41l-.96-.29c-7.72 5.69-17.13 9.46-25.97 13.11-1.99-13.1-1.36-49.88-1.37-64.4l.01-120.12-.02-88.39c.02-8.28-.5-33.73 1.03-39.62"/><path fill="#0a0902" d="M1655.14 1561.04c2.19-4.29 14.58-12.26 19-16.24 34.8-31.28 47.06-56.77 56.1-100.76l1.28.03c-4.81 42.79-27.38 79.1-60.69 105.85-4.87 3.85-9.78 7.66-14.73 11.41zM1651.83 1271.93l2.27 1.91c56.65 42.52 84.26 87.09 78.46 160.42-.62-4.46-.83-14.04-.92-18.69-1.05-51.19-21.63-94.92-61.54-127.19-4.77-3.86-17.47-10.91-19.11-15.87z"/><path fill="#16480a" d="M1652.08 1163.72c1.87 11.11 1.7 33.29 1.73 44.72-.08 21.8.02 43.6.29 65.4l-2.27-1.91z"/><path fill="#fa0e17" d="m1126.54 803.886 1.06 6.611c2.92 1.097 1.34.819 5.4-.933-21.07 29.945-27.95 60.92-26.96 97.28 26.75 12.385 46.9 26.121 66.18 48.53 4.6 5.352 14.31 22.678 19.71 24.007l4.58-2.504 1.41 1.913c.03 23.9 4.46 23.61 9.07 44.76 8.42 38.62 3.77 72.83-9.55 109.34-.72 1.79-.67 1.63-2.25 2.68l.34 1.18c1.91 9.56-.23 63.12 1.51 66.03-1.38 12.58-11.56 31.64-10.59 47.46.18 2.87.61 13.62-.81 15.19l-3.06-1.15-.61.79c-26.79-17.98-35.92-29.5-52.65-56.03-6.98 3.39-14.56 7.27-21.66 10.27.25 31.46-.59 64.54.14 95.61-.86-2.73-.33-1.83-2.2-4.01-23.26-23.82-43.34-33.39-76.63-37.03.05-12.08.94-43.73-.41-54.28-2.54-1.83-7.59-1.63-10.61-.98-2.21 6.12-.95 46.11-1.31 56.05-17.878 2.72-27.647 4.86-44.344 12.73-7.286 3.44-30.232 25.19-31.403 25.41-1.947-7.43-.355-65.06-.368-77.35l-.274-219.35-.042-66.304c-.007-11.66.441-28.799-.764-39.988l-1.097-.671c2.409-2.494 8.643-4.698 12.112-6.177-1.549-8.814-2.905-17.674-4.558-26.512-1.3-6.949-5.785-20.9-5.583-26.351 2.722 3.086 16.329 16.408 16.651 17.176 4.34 2.214 8.979 5.392 13.389 7.912 34.601 19.766 80.881 16.226 114.061-6.575a99.39 99.39 0 0 0 42.12-64.734"/><path fill="#fa0e17" d="m1126.54 803.886 1.06 6.611c2.92 1.097 1.34.819 5.4-.933-21.07 29.945-27.95 60.92-26.96 97.28 26.75 12.385 46.9 26.121 66.18 48.53 4.6 5.352 14.31 22.678 19.71 24.007l4.58-2.504 1.41 1.913c.03 23.9 4.46 23.61 9.07 44.76 8.42 38.62 3.77 72.83-9.55 109.34-.72 1.79-.67 1.63-2.25 2.68l.34 1.18c1.91 9.56-.23 63.12 1.51 66.03-1.38 12.58-11.56 31.64-10.59 47.46.18 2.87.61 13.62-.81 15.19l-3.06-1.15-.61.79c-26.79-17.98-35.92-29.5-52.65-56.03-6.98 3.39-14.56 7.27-21.66 10.27.25 31.46-.59 64.54.14 95.61-.86-2.73-.33-1.83-2.2-4.01.97-12.86.37-32.59.35-45.74l.13-77.18-.08-278.781c-5.92-3.315-17.36-7.066-24.17-9.103a199.46 199.46 0 0 0-112.708-1.497c-10.713 2.986-19.578 6.681-29.677 11.209l-1.097-.671c2.409-2.494 8.643-4.698 12.112-6.177-1.549-8.814-2.905-17.674-4.558-26.512-1.3-6.949-5.785-20.9-5.583-26.351 2.722 3.086 16.329 16.408 16.651 17.176 4.34 2.214 8.979 5.392 13.389 7.912 34.601 19.766 80.881 16.226 114.061-6.575a99.39 99.39 0 0 0 42.12-64.734"/><path fill="#0a0902" d="m1126.54 803.886 1.06 6.611c2.92 1.097 1.34.819 5.4-.933-21.07 29.945-27.95 60.92-26.96 97.28 26.75 12.385 46.9 26.121 66.18 48.53 4.6 5.352 14.31 22.678 19.71 24.007l4.58-2.504 1.41 1.913c.03 23.9 4.46 23.61 9.07 44.76 8.42 38.62 3.77 72.83-9.55 109.34-.72 1.79-.67 1.63-2.25 2.68.99-7.04 6.95-20.53 8.92-28.6 21.14-86.4-18.6-157.983-95.13-196.701l-2.98-1.06c-5.92-3.315-17.36-7.066-24.17-9.103a199.46 199.46 0 0 0-112.708-1.497c-10.713 2.986-19.578 6.681-29.677 11.209l-1.097-.671c2.409-2.494 8.643-4.698 12.112-6.177-1.549-8.814-2.905-17.674-4.558-26.512-1.3-6.949-5.785-20.9-5.583-26.351 2.722 3.086 16.329 16.408 16.651 17.176 4.34 2.214 8.979 5.392 13.389 7.912 34.601 19.766 80.881 16.226 114.061-6.575a99.39 99.39 0 0 0 42.12-64.734"/><path fill="#2e7d32" d="M943.339 856.277c2.847 2.619 10.532 10.55 13.631 11.006 8.244 9.46 31.182 19.144 43.23 19.981 1.05.323 4.14.879 4.36 2.114-.5.701-4.41 1.238-5.423 1.456-15.669 2.466-32.805 5.761-47.329 12.054-2.008-14.432-3.314-28.215-7.277-42.348zM1108.56 849.843c.59 3.788-2.4 16.576-2.73 21.67-.75 11.565-1.73 22.789-1.69 34.421-7.58-2.474-15.53-5.474-23.16-7.55l-1.96-.514c-9.11-2.471-16.7-4.171-26.07-5.635-6.39-1.126-12.99-2.265-19.41-3.136 31.7-4.891 53.22-15.373 75.02-39.256"/><path fill="#cb550d" d="M1194.19 979.601c3.07 2.445 1.9 7.115 1.12 10.705-2.82-5.548-4.64-6.201-1.12-10.705"/><path fill="#ffc107" d="M1195.53 1136.75c1.91 9.56-.23 63.12 1.51 66.03-1.38 12.58-11.56 31.64-10.59 47.46.18 2.87.61 13.62-.81 15.19l-3.06-1.15c-1.48-1.98-12.49-10.55-15.33-12.72-17.25-13.2-26-25.01-36.04-43.96 30.31-21.15 47.5-37.54 64.32-70.85"/><path fill="#381902" d="m1106 909.209 2.98 1.06c-1.41 4.132-.85 10.134-.89 14.622-.84 97.439.89 195.119-.17 292.539 29.08-13.68 51.56-30.72 71.47-56.74 3.77-4.92 13.12-22.33 15.8-25.12l.34 1.18c-16.82 33.31-34.01 49.7-64.32 70.85 10.04 18.95 18.79 30.76 36.04 43.96 2.84 2.17 13.85 10.74 15.33 12.72l-.61.79c-26.79-17.98-35.92-29.5-52.65-56.03-6.98 3.39-14.56 7.27-21.66 10.27.25 31.46-.59 64.54.14 95.61-.86-2.73-.33-1.83-2.2-4.01.97-12.86.37-32.59.35-45.74l.13-77.18z"/><path fill="#081503" d="M1282.58 733.028c7.46-.215 33.77 1.029 40.05 3.732 44.02 4.998 95.6 35.794 122.13 70.836 6.11 8.07 17.64 24.095 19.93 33.938-1.39 3.504-1.27 3.263-4.09 5.792l.15.74c-39.8 17.477-63.49 34.329-85.77 72.899-8.74 18.822-12.09 28.863-15.39 49.4l10.48 4.362c-2.31 9.919-.95 22.251-3.08 30.393-.47-9.414-.5-18.062-.49-27.454-.03-3.755-4.63-4.738-7.63-5.711-49.56-16.1-113.51-18.264-160.95 6.835l-1.41-1.913-4.58 2.504c-5.4-1.329-15.11-18.655-19.71-24.007-19.28-22.409-39.43-36.145-66.18-48.53-.99-36.36 5.89-67.335 26.96-97.28 21.51-29.284 40.1-41.015 71.93-56.254 2.28-6.397 1.24-8.486 2.61-12.161l1.59 5.345c2.08 1.991.96 1.718 4.39.614 20.79-6.692 47.13-15.042 69.06-14.08"/><path fill="#ffc107" d="M1204.93 753.31c2 4.404 1.22 17.185 1.13 22.669-19.83 24.803-30.51 49.388-27.14 81.931 1.48 14.266 7.22 32.117 15.41 44.037 2.49 3.614 8.75 11.833 10.28 15.348-.6 7.294-.38 42.589.17 49.71-.44 7.566-.76 6.672-8.27 9.872l-4.58 2.504c-5.4-1.329-15.11-18.655-19.71-24.007-19.28-22.409-39.43-36.145-66.18-48.53-.99-36.36 5.89-67.335 26.96-97.28 21.51-29.284 40.1-41.015 71.93-56.254"/><path fill="#381902" d="M1322.63 736.76c44.02 4.998 95.6 35.794 122.13 70.836 6.11 8.07 17.64 24.095 19.93 33.938-1.39 3.504-1.27 3.263-4.09 5.792l.15.74c-39.8 17.477-63.49 34.329-85.77 72.899-1.63-1.527-3.08-2.671-3.19-5.334-.23-5.673 6.59-15.727 9.51-20.51 16.26-26.555 14-67.285.62-94.598-3.22-6.573-9.9-14.463-12.13-21.38-.7-2.183.88-.379-1.21-2.216-.76-7.156-.83-18.272-1.12-25.712-8.25-3.324-14.89-5.832-23.44-8.243-6.72-1.894-15.19-3.576-21.39-6.212"/><path fill="#2e7d32" d="M1369.99 913.896c.22 16.211-9.17 35.77-12.68 55.857-46.38-16.045-93.87-16.635-140.5-1.918-2.21.695-7.8 2.903-9.43 2.03-.69-.781-1.82-2.118-2.6-2.86-.55-7.121-.77-42.416-.17-49.71.33.935.43 1.473.98 2.187.63.054 1.27-.245 1.87-.381 46.52 45.444 114.06 45.048 159.43-1.935a345 345 0 0 0 3.1-3.27"/><path fill="#16480a" d="M1204.61 917.295c.33.935.43 1.473.98 2.187.63.054 1.27-.245 1.87-.381-.98 6.331-.59 43.447-.08 50.764-.69-.781-1.82-2.118-2.6-2.86-.55-7.121-.77-42.416-.17-49.71"/><path fill="#2e7d32" d="M1282.58 733.028c7.46-.215 33.77 1.029 40.05 3.732 6.2 2.636 14.67 4.318 21.39 6.212 8.55 2.411 15.19 4.919 23.44 8.243.29 7.44.36 18.556 1.12 25.712l-.71 1.999c-2.55-.65-9.37-8.816-13.02-11.593-17.17-13.084-38.55-21.591-60.01-23.148a118.36 118.36 0 0 0-86.66 28.975c-.19-7.578-.15-13.776.15-21.351 27.95-13.397 46.3-13.289 74.25-18.781"/><path fill="#2e7d32" d="M1182.43 826.291c5.98-24.867 21.13-49.721 43.21-63.276a113.95 113.95 0 0 1 85.36-13.842c93.6 22.621 108.52 141.791 25.82 188.2-51.33 28.803-117.67 8.363-144.54-43.494-6.58-12.695-11.7-27.688-11.64-42.153-1.69-2.045-1.66-10.923.1-13.308.57-3.077.97-7.251 1.38-10.442zM1528.98 832.097l2.12-.102q6.825.163 13.65.091c26.81.802 57.48 4.719 82.33 15.563l1.87.829-.53 1.675 1.85 1.519c.73 11.311.21 24.114.13 35.557-.43 60.768 2.16 122.291-.43 183.001-40.65-48.9-101.43-59.78-154.9-22.04-3.63 2.57-6.87 7.26-10.97 9.05-1.22-1.52-.85-.7-1.23-2.4l-1.94-2.48-.78-.29c-25.55-37.88-48.16-58.021-90.08-77.343l-10.48-4.362c3.3-20.537 6.65-30.578 15.39-49.4 22.28-38.57 45.97-55.422 85.77-72.899l-.15-.74c2.82-2.529 2.7-2.288 4.09-5.792.46.418 2.29 1.879 3.02 1.696 20.22-5.103 40.2-11.084 61.27-11.133"/><path fill="#ffc107" d="M1374.98 920.965c22.28-38.57 45.97-55.422 85.77-72.899q.45 21.92.09 43.842c-1.36 37.593.08 76.201-.5 113.812-.14 9.51.79 38.28-.19 46.35-25.55-37.88-48.16-58.021-90.08-77.343l-10.48-4.362c3.3-20.537 6.65-30.578 15.39-49.4"/><path fill="#103108" d="m1528.98 832.097 2.12-.102q6.825.163 13.65.091c26.81.802 57.48 4.719 82.33 15.563l-4.22.498c-3.58-1.734-8.88-3.214-12.79-4.452l-1.63-.446c-8.67-2.919-14.73-4-23.73-5.534-.32-.156-2.7-.443-3.13-.505l-2.07-.31c-2.14-.861-2.13-.823-4.47-1.062l-6.1-.207-2.61-.357-8.27-.238c-6.06-1.536-8.22-1.294-14.33-1.006-21.6-.096-40.11.684-61.17 7.219l-1.58.47c-5.84 1.744-11.67 3.525-17.48 5.344-.94 14.989-.19 29.259-1.35 44.382l-1.31.463q.36-21.923-.09-43.842l-.15-.74c2.82-2.529 2.7-2.288 4.09-5.792.46.418 2.29 1.879 3.02 1.696 20.22-5.103 40.2-11.084 61.27-11.133"/><path fill="#16480a" d="M1575.04 835.838c2.34.239 2.33.201 4.47 1.062-2.23.019-2.67.301-4.47-1.062"/><path fill="#2e7d32" d="M1781.06 858.264c51.76-25.001 108.53-25.181 162.59-7.77l.29 310.086 1.18.23c.83 26.29.16 54.32.09 80.76-.04 11.48.56 35.76-.31 46.09.89 35.31.23 72.84.17 108.31l-78.33-.19c.05-5.8.79-25.29-.93-29.59l1.18-.03c34.86-32.86 53.84-61.88 59.22-110.83 12.14-110.41-67.9-187.55-174.35-195.59-4.11.17-9.21.79-12.96-.53 3.09-1.61 8.84-1.59 12.56-1.84 95.25-13.65 129.42-128.964 50.54-187.304-6.58-4.87-13.63-8.198-20.94-11.802M1575.34 1230.58c-47.34 16.2-99.53-3.4-124.5-46.76s-15.73-98.33 22.04-131.15c37.77-32.81 93.5-34.28 132.94-3.49 39.45 30.78 51.56 85.19 28.9 129.81l1.85 1.89c-10.93 21.01-34.44 42.14-56.81 49.58-1.49.02-2.94-.05-4.42.12"/><path fill="#16480a" d="m1634.72 1178.99 1.85 1.89c-10.93 21.01-34.44 42.14-56.81 49.58-1.49.02-2.94-.05-4.42.12a104.62 104.62 0 0 0 59.38-51.59"/><path fill="#2e7d32" d="M1462.8 659.62c12.63-16.926 40.32-28.883 61.04-31.828a107.33 107.33 0 0 1 80.95 20.743c7.05 5.407 18.05 15.808 22.26 23.612 8.23 13.433 14.54 26.837 15.92 42.933l2.44 1.787c3.51 47.134-19.38 85.44-62.41 105.136-12.25 5.034-22.38 7.692-35.82 8.169l-2.43 1.914q-6.825.072-13.65-.091l-2.12.102-.82-2.013c-23.36-3.491-41.43-10.797-59.41-26.689a100.76 100.76 0 0 1-34.03-70.436c.72.577 1.48 1.173 2.18 1.765.47-8.836-.91-13.696.62-23.102 2.19-13.463 6.05-20.21 11.92-31.727 5.06-9.951 7.18-11.671 13.36-20.275"/><path fill="#103108" d="M1434.72 732.959c.72.577 1.48 1.173 2.18 1.765 1.69 45.527 43.09 89.191 88.5 92.531 2.03.695 1.25.712 3.22.435 8.46.279 15.12.401 23.56.013.48.029 1.87-.316 2.41-.429 9.28-.162 18.96-3.743 27.73-6.651l.68 1.38c-12.25 5.034-22.38 7.692-35.82 8.169l-2.43 1.914q-6.825.072-13.65-.091l-2.12.102-.82-2.013c-23.36-3.491-41.43-10.797-59.41-26.689a100.76 100.76 0 0 1-34.03-70.436"/><path fill="#cfb05c" d="M1531.85 830.137c4.64-.186 10.64-.076 15.33.035l-2.43 1.914q-6.825.072-13.65-.091z"/><path fill="#e9d7ac" d="m1528.16 830.084 3.69.053-.75 1.858-2.12.102z"/><path fill="#2e7d32" d="M939.256 1320.91c46.532-72.81 168.374-53.55 185.204 34.94 18.11 95.18-82.68 152.66-160.161 102.89-8.769-5.71-20.138-16.44-25.096-25.56l-1.778-2.71-.948-1.32c-11.747-17.91-16.318-35.75-15.408-57.07l-1.937-.67.695-3.54.486.4 1.828-4.75c-1.661-9.46 8.864-30.7 14.375-38.87l1.473-1.9zM1197.92 978.79c47.44-25.099 111.39-22.935 160.95-6.835 3 .973 7.6 1.956 7.63 5.711-.73 65.854 1.24 132.004.24 197.804-52.9-41.29-120.83-34.8-162.28 18.98l-5.18 6.82c-1.16.34-1.33-.44-1.84-.22-.13.58-.27 1.15-.4 1.73-1.74-2.91.4-56.47-1.51-66.03l-.34-1.18c1.58-1.05 1.53-.89 2.25-2.68 13.32-36.51 17.97-70.72 9.55-109.34-4.61-21.15-9.04-20.86-9.07-44.76"/><path fill="#16480a" d="M1197.44 1132.89c.34 6.61.28 13.08.94 19.61 1.61 15.79-.4 33.11.9 48.77-1.16.34-1.33-.44-1.84-.22-.13.58-.27 1.15-.4 1.73-1.74-2.91.4-56.47-1.51-66.03l-.34-1.18c1.58-1.05 1.53-.89 2.25-2.68"/><path fill="#2e7d32" d="M1530.16 432.917c9.58-.855 38.05-1.299 46.32 1.848.22.198 44.89 12.339 52.92 16.358 1.27 26.103-5.06 40.844-6.64 66.074-.81 13.031 6.16 28.718 7.35 41.634 1.17 28.676.9 59.674.83 88.418l-14.01 8.943c-23.65-22.047-48.9-32.582-81.63-31.434-29.2 1.025-48.9 11.403-71.1 29.162-.92-6.766-.65-13.643-.64-20.456-.13 6.129 0 16.928-1.36 22.432-1-22.893 1.23-50.72-.36-73.013l1.56.016c-.48-1.198-1.5-3.58-1.25-4.803 2.17-10.382 7.66-24.42 8.99-34.618 3.11-23.711 3.51-49.525 2.61-73.396-.3-7.979-4.81-23.689-3.99-30.889l1.33 2.273c2.37 1.114 7.69-.801 10.84-1.578 16.58-4.091 31.07-6.905 48.23-6.971"/><path fill="#0a0902" d="m1469.76 439.193 1.33 2.273c2.37 1.114 7.69-.801 10.84-1.578 16.58-4.091 31.07-6.905 48.23-6.971-10.97 3.359-26.16 2.165-37.62 6.262l-1.66.367c-6.95 1.593-12.41 2.891-19.19 5.052 8.54 47.953 5.26 84.686-6.89 131.221-.16 3.597.26 3.994-1.29 7.023l-.11.057c-.48-1.198-1.5-3.58-1.25-4.803 2.17-10.382 7.66-24.42 8.99-34.618 3.11-23.711 3.51-49.525 2.61-73.396-.3-7.979-4.81-23.689-3.99-30.889"/><path fill="#2e7d32" d="M1730.17 624.217c3.42.023 7.39-.229 10.59.557l-1 .679c7.13 1.258 11.46.763 17.23 1.656 11.77 1.821 26.13 4.63 37.45 8.09l1.62.475c4.84 1.29 10.54 2.104 13.69 5.789-1.29.697-1.42.806-2.61 1.715-8.03 5.842-13.45 10.338-20.27 17.545-32.38 34.227-33.39 90.099-5.41 127.245 11.52 15.294 24.02 23.455 40.45 32.505l.02 20.73c-16.24 4.885-28.3 8.393-43.7 15.933-29.26-9.551-60.9-9.962-88.79 4.291a108 108 0 0 0-17.41 11.291c-7.6-4.807-13.11-8.733-20.31-14.153-1.31-6.15-.85-43.295-.86-51.659-.24-39.155-.13-78.312.31-117.465-.41-16.303-.2-33.121-.19-49.469 18.93-6.648 34.65-10.487 54.73-12.626 6.56-.7 22.72-.525 27.87-1.918z"/><path fill="#381902" d="M1946.5 849.521c58.5 24.252 86.15 57.906 101.5 118.718v60.341c-13.09 65.79-36.99 106.27-102.26 131.19-1.3-12.88-.6-38.03-.61-51.93l-.07-96.65.06-113.572c.03-8.439-.35-41.223 1.38-48.097M1822.02 1078.94c40 15.82 72.06 46.92 89.08 86.43a177.27 177.27 0 0 1 2.07 134.88c-17.02 42.02-49.28 71.58-90.18 89.95-.69-15.12-1.09-30.26-1.18-45.39-.03-7.91.37-30.29-.85-36.34-.64-4.46-.51-19.11-.52-24.16l-.09-43.32-.09-145.42c1.39-6.51 1.45-9.99 1.76-16.63M1373.16 1387.12c27.84 13.54 49.97 29.24 69.14 53.61 3.7 4.7 13.97 22.76 17.43 24.5l.34.52c-.34.92-.69 1.84-1.04 2.75 4.23 15.23 9.38 28.95 12.31 44.69 4.13 22.95 3.74 46.49-1.16 69.29-1.38 6.39-10.99 35.04-10.37 37.49-.13 4.57.02 4.78-1.16 9.04l1.28 1.16c-1.58-.19-4.86-1.09-5.68.14-19.94 29.94-46.46 55.47-82.81 67.61-.89-14.02-.24-35.64-.26-50.09l-.09-96.08c-.03-23.83-.05-49.9-.26-73.55-.12-13.85-2.62-84.64 2.33-91.08"/><path fill="#d1c7cc" d="M1459.81 1619.97c-.13 4.57.02 4.78-1.16 9.04-4.33-3.81-2.19-4.26 1.16-9.04"/><path fill="#ffc107" d="M851.237 1592.35c18.638-44.72 45.986-65.77 86.987-88.25 1.32 8.77.859 27.09.851 36.59l-.077 63.76.183 207.97c-38.28-18.11-71.53-47.09-87.327-87.31-11.734-28.43-13.108-48.5-12.926-78.44.207-17.41 6.211-38.11 12.309-54.32"/><path fill="#381902" d="M1370.07 974.727c41.92 19.322 64.53 39.463 90.08 77.343l.78.29c1.07 9.5-.6 10.35-6.46 17.88-30.09 38.64-25.06 87.43.79 124.91-11.66 25.73-29 52.47-53.51 67.76 1.22-36.03-9.32-59.66-33.55-85.9-.48-.52-.96-1.03-1.46-1.54 1-65.8-.97-131.95-.24-197.804-.01 9.392.02 18.04.49 27.454 2.13-8.142.77-20.474 3.08-30.393"/><path fill="#FAFAFA" d="M1107.66 1219.31c7.1-3 14.68-6.88 21.66-10.27 16.73 26.53 25.86 38.05 52.65 56.03 8.67 5.66 7.03 15.73 10.59 25.05 1.75 4.57 3.1 7.75 5.31 12.09-1.11 9.06-.81 24.5-.82 33.96l-.02 53.98c-45.69 24.5-67.79 51.25-86.59 99.35-.49 2.62-.45 2.16-1.55 4.67-1.38-2.67-.96-4.22-1.04-7.47l.18-47.67c26.93-39.95 28.04-84.42-.23-124.11-.73-31.07.11-64.15-.14-95.61"/><path fill="#ffc107" d="M1203.05 1389.26c.21 2.92.1 7.19.12 10.23 1.41 17.94 1.19 41.82.73 60.01-1.27 49.28 1.78 100.73-.02 149.79-1.88-2.2-1.27-1.52-2.27-4.51-17.3-48.92-48.5-76.23-93.15-99.3 5.29-38.88 38.33-83 70.99-103.34 7.56-4.71 15.63-8.87 23.6-12.88"/><path fill="#2e7d32" d="M1456.48 1196.83c.48.67.98 1.33 1.49 1.98 16.32 20.87 46.16 35.33 72.19 38.57 7.45.93 16.44-.45 25.07.7 1.68 2.75 1.03 1.29.68 5.37-1.7 1.58-32.15 3-37.62 3.76-12.8 1.74-25.43 4.56-37.75 8.42-5.76 1.78-24.82 7.75-27.4 12.62-2.7 2.23-10.82 6.37-14.04 7.31-6.91-.17-22.41 12.72-27.97 17.33-.39.58-12.49 12.67-13.32 13.24-6.85 8.14-11.24 13.5-16.85 22.77l-1.92-5.47c-.46-6.04 5.08-12.72 8.21-17.99 7.75-13.06 11.42-24.06 13.5-39 27.94-20.18 41.63-38.81 55.73-69.61"/><path fill="#ffc107" d="M1634.64 647.546c4.35-2.007 10.12-3.955 13.78-6.6 1.41 18.698 1.11 43.94.64 62.9-1.25 50.409 1.85 103.53-.23 153.681-4.9-3.628-9.19-4.907-14.82-7.26l-5.06-1.789-1.87-.829c-24.85-10.844-55.52-14.761-82.33-15.563l2.43-1.914c13.44-.477 23.57-3.135 35.82-8.169 43.03-19.696 65.92-58.002 62.41-105.136l-2.44-1.787c-1.38-16.096-7.69-29.5-15.92-42.933l1.96-1.569c-3.43-5.184-6.68-8.489-10.88-13.044 5.58-3.714 10.7-6.657 16.51-9.988"/><path fill="#16480a" d="M1629.01 670.578c8.73 12.763 14.74 30.961 16.4 46.289l-2.44-1.787c-1.38-16.096-7.69-29.5-15.92-42.933z"/><path fill="#ffc107" d="M1650.47 1077.58c2.48 3.09 1.65 11.41 1.65 15.96-.46 9.66-.85 60.79-.04 70.18l-.25 108.21-.84.58c-7.91-4.24-13.96-7.32-22.17-10.89-15.36-5.52-26.74-9.43-42.79-12.74-7.26-1.49-22.1-1.68-26.61-3.58-.78-3.69-.45-4.46.18-8.09 2.15-1.71 13.99-4.29 18.97-6.26l1.19-.49c22.37-7.44 45.88-28.57 56.81-49.58 12.04-24.97 16.09-47.32 9.15-74.9-2.03-8.06-5.13-14.62-7.68-22.44 4.19-1.88 8.33-3.87 12.43-5.96"/><path fill="#381902" d="M1631.99 1073.23c-.15-32.08 3.12-71.93 1.38-103.703 8.94 33.033 19.74 54.133 49.91 72.433 18.14 11.02 31.9 14.78 52.89 15.71-2.48.94-17.07 2.36-20.63 2.51-15.6.68-53.88 8.76-66.2 16.93l1.13.47c-4.1 2.09-8.24 4.08-12.43 5.96-1.64-3.31-4.11-7.11-6.05-10.31M1634.64 647.546c-2.69-6-1.85-76.892-1.51-87.506 4.28 6.552 7.91 12.711 12.78 18.962 18.69 23.996 49.78 39.343 80.06 40.343 1.68.056 3.01 4.324-1.42 4.94-7.66 1.062-14.97.078-22.55 1.58-2.22.439-5.2.492-7.51 1.037-6.39.448-13.89 2.382-20.01 3.907-3.71.923-26.38 7.815-27.44 9.631.3.421.85.381 1.38.506-3.66 2.645-9.43 4.593-13.78 6.6"/><path fill="#fa0e17" d="M940.842 1500.16c-.407-5.66.013-55.83 1.329-59.05 15.209 18.52 36.207 30.78 59.799 35.18l9.1 1.6c4.58.81 1.89 8.53 1.22 8.63-14.875 2.06-28.919 2.82-43.807 6.34l-1.931.44-4.028 1c-4.467 1.12-18.548 6.35-21.682 5.86"/><path fill="#381902" d="M1634.01 850.267c5.63 2.353 9.92 3.632 14.82 7.26 1.94 4.17 16.48 12.375 20.99 16.563-21.13 19.497-25.76 31.245-35.4 57.069l-1.47 4.002c-1.16-11.592-2.12-74.498 1.06-84.894"/><path fill="#2e7d32" d="M1824.09 821.155c21.8 8.268 43.73 12.139 66.93 7.049 2.63-.576 5.81-1.538 8.38-1.766.88.821 1.73 1.694 2.58 2.547.86 4.212.97 4.491.66 8.746-.59-.098-.91-.075-1.45-.113-27.93-1.97-49.39-1.609-77.15 3.013z"/><path fill="url(#a)" d="M1377.54 1339.27c-3.78.79-2.13 2.74-4.25 3.1-1.32-.48-4.03-23.82 5.75-18.94l1.92 5.47c-1.35 3.49-2.5 4.69-2.37 8.37-.24 1.1-.31 1.05-1.05 2"/><path fill="#2e7d32" d="M1192.68 1224.32c3.89-11.32 7.3-20.11 14.62-29.74 28.54-37.57 77.04-53.45 121.95-38.04a102.86 102.86 0 0 1 60.19 53.6 100.46 100.46 0 0 1 3.85 78.11 104.9 104.9 0 0 1-54.96 59.49 108.83 108.83 0 0 1-84.31 2.8c-45.9-17.8-67.61-59.12-64.71-106.83-.23-1.3-.17-.43.4-2.59l.54-6.27c-.2-1.11-.34-1.56.36-2.41l1.69-6.41c.02-.89-.09-1.01.38-1.71M1731.4 851.036c56.94-4.176 106.42 38.731 110.35 95.684 3.92 56.95-39.2 106.24-96.17 109.92-56.62 3.66-105.54-39.14-109.44-95.743-3.91-56.602 38.68-105.71 95.26-109.861M1838.51 630.114c25.23-7.3 56.1-3.756 79.09 8.846a88.5 88.5 0 0 1 14.96 10.178c1.45 1.101 3.7 2.524 4.57 3.926 3.75 3.33 5.6 4.876 8.79 8.8.52.553 1.81 1.799 2.12 2.383a96.1 96.1 0 0 1 16.59 27.928c19.31 51.912-7.64 112.27-60.7 130.448-85.74 29.377-169.91-54.159-130.43-138.996 11.54-24.816 37.79-44.682 63.42-52.996z"/><path fill="#2e7d32" d="M1199.19 1316.58c-.1-2.73-.44-4.49.67-6.98l1.52-.05c4.67 4.91 5.92 9.55 11.73 15.7a108.31 108.31 0 0 0 77.62 34.74c29.92.67 56.48-10.85 78.96-29.98.42 16-.14 19.86-4 35.38-.08.98-.05.83-.43 1.74-1.3 3.73-2.7 10.69-3.66 14.77-57.23-19.62-107.47-17.23-162.52 7.33-.57-17.06-.6-39.71-.04-56.65-.36-6.04-.16-9.98.15-16"/><path fill="#fa0e17" d="M1105.7 1441.69c4.04 13.4-.1 43.86.9 58.78.33 5.01-2.57 3.73-5.63 2.5-13.53-5.52-27.6-9.64-41.98-12.28l-2.99-.48-1.28-.2c-4.19-.7-15.15-1.14-17.04-2.44-1.51-6.35-2.51-9.6 4.81-10.43 27.69-3.14 44.95-16.14 63.21-35.45"/><path fill="#2e7d32" d="M1019 1219.22c1.76.01 8.37-.36 8.51.72 1.37 9.94.45 46.05.22 54.06-1.43.05-7.45.95-8.54-.24-1.32-1.45-.42-49.01-.19-54.54"/><path fill="#FAFAFA" d="M1014.96 1478.19c4.31.24 10.19.73 14.4.41 7.79-.58 5.94 1.55 5.84 9.46-4.49-.45-10.68-1.26-15.06-.97-6.84.46-5.25-2.21-5.18-8.9"/><path fill="#381902" d="M1631.97 452.317c10.27 2.399 11.45 3.747 5.6 11.726l-.95 1.327c-.5.932-2.75 6.07-4.04 5.828-.94-1.11-.54-15.867-.61-18.881"/></svg>