<svg xmlns="http://www.w3.org/2000/svg" width="1024" height="1024" preserveAspectRatio="none" style="display:block" viewBox="0 0 2048 2048"><path fill="#FAFAFA" d="M0 0h2048v2048H0z"/><path fill="#040704" d="M698.887 252.5c70.333 17.546 158.368-53.965 215.103-87.752a468.7 468.7 0 0 1 138.61-54.2c9.57-2.123 23.62-5.192 33.27-5.937 15.74 34.812 33.61 71.151 48.49 105.89 64.12-15.718 112.33-58.734 174.3-79.225 11.4-3.769 22.57-6.864 34.24-9.69-26.3 34.362-45.59 82.287-55.61 124.54-.33 1.417.7 1.994 1.56 2.893 5.86.494 11.45-.828 19.18-2.215 48.31-8.678 97.42 7.492 136.37 35.92.18.25.37.5.55.751-4.67.724-8.83-.082-13.32.444-47.37 5.558-98.49 33.404-136.17 62.177 26.67-10.374 79.78-28.41 107.38-16.549 12.32 3.895 14.11 15.966 20.84 23.348 18.76 20.581 67.32 6.233 88.66-.417 43.57-13.58 73.76-39.685 109.75-65.198 42.22-29.922 96.09-45.217 147.01-52.56 11.44 27.731 25.4 54.255 36.6 81.282 38.41-4.751 52.8-17.903 86.32-36.082 28.22-15.299 60.37-30.08 92.38-33.357-5.87 9.103-14.03 18.745-19.32 27.883-7.18 12.427-33.39 73.219-20.15 83.705 9.72 2.674 20.64-1.817 30.57-2.03 27.13-.582 58.77 2.561 72.5 29.279v6.933l-15.6 4.157-2.17-2.404c-24.94 8.079-49.12 17.863-71.61 31.48-30.85 18.68-58.3 42.246-88.17 62.121-18.76 12.481-67.32 32.013-88.41 17.126l-2.43 1.63c-9.37-13.677-15.2-34.466-22.73-50.205-21.67 8.352-48.18 25.643-67.51 38.875-45.47 31.141-95.37 61.211-150.91 68.808-11.28 1.543-26.72 2.814-37.83-.967-11.44-3.887-6.26-18.843-16.55-23.677-20.05-9.413-44.89-1.377-64.76 4.764-41.62 13.845-78.22 39.469-112.81 65.778-8.72 6.633-17.39 14.406-26.02 20.813 7.43 15.763 19.31 32.537 27.88 47.993a57.8 57.8 0 0 1 43.09 10.161 56.7 56.7 0 0 1 22.46 37.675c2.08 14.875-1.24 25.311-7.7 38.101 5.69 10.155 31.63 53.478 38.17 60.932 16.64-4.87 32.34-5.149 48.06 3.378a57.58 57.58 0 0 1 27.53 34.921c6.45 23.926-2.53 42.238-18.18 59.517 16.17 27.001 41.82 71.83 59.58 96.28-11.53 6.23-28.45 15.39-39.04 22.89-9.59-15.9-38.23-67.757-47.46-77.672-36.6 21.468-72.1 45.532-108.54 67.342-19.67 11.76-39.44 27.09-61.03 34.58-31.73 11-71.15 2.16-94.94-21.7.63 12.37-.35 45.01 3.06 53.98l-2.07.92c52.74 73.07 110.2 143.34 163.75 215.84 10.39 14.07 20.74 32.32 30.17 47.4l52.49 84.14 125.29 197.37c-19.23 8.72-38.33 17.75-57.28 27.09l.95 3.17c7.95 18.29 14.37 41.2 21.65 60.28 15.57 40.8 41.88 28.8 75.13 27.28 31.4-1.43 69.52 8.1 90.24 33.19 7.22 8.81 10.42 17.92 14.51 28.44l-197.91 93.14c-4.39-7.29-6.03-13.09-8.48-21.09-7.94-2.3-16.11-6.03-23.78-9.29 4.47 12.79 9.09 25.53 13.85 38.22-22.78 11.5-47.81 22.75-71.04 33.65-6.65-24.72-18.59-51.54-26.54-76.31-4.49-14-11.37-17.72-13.89-34.86-34.36 18.43-79.62 35.61-116.49 53.91l-.68-1.29c-3.28-6.1-4.27-11.37-6.02-18.09-7.41-2.25-19.13-7.43-26.63-10.47 4.67 13.53 9.58 25.08 15.34 38.13-21.06 8.17-42.1 20.5-64.43 28.48-5.58-16.33-11.77-32.99-17.56-49.3-3.28 12.03-7.8 25.81-11.36 38.02-11.16-2.58-37.88-12.32-50.08-16.24l-137.909-45.37c2.891-6.01 5.641-14.6 7.92-21.09-3.09-6.48-5.703-14.16-8.198-20.97-4.661 10.77-11.134 26.23-14.288 37.41-21.137-7.96-46.439-15.17-68.419-22.72 7.362-21.12 25.954-47.16 29.909-68.45-1.395-19.26 15.083-21.92 20.057-32.17 9.08-18.72 26.096-48.43 33.539-67.14-14.756-4.99-63.595-20.63-74.983-26.67-26.354 43.01-49.045 91.98-75.42 135.93-17.075-8.81-37.011-17.1-54.875-25.89-5.826 9.22-11.381 22.78-16.747 31.76-11.188 16.55-8.406 43.97 5.271 58.94 21.34 23.35 47.644 44.09 57.74 75.88 9.564 30.11 1.452 47.06-12.562 73.57-17.47-8.77-36.502-19.76-53.75-29.24L610.7 1904.17c-17.041-9.37-34.839-19.73-52.152-28.2 10.904-18.91 9.366-21.66 8.491-43.1-4.778 6.96-22.23 28.27-24.181 34.14-6.262 18.84-10.321 33-19.465 51.4-9.259-4.43-19.231-9.68-28.236-14.6-50.96-27.82-104.582-53.15-154.815-82.11 3.118-6.71 5.774-11.67 9.428-18.12-1.131-8.37-3.149-18.07-4.684-26.49-7.604 11.56-15.064 23.13-23.212 34.31-21.407-10.22-41.575-22.78-62.991-32.99 12.786-19.06 25.174-42.2 37.808-61.8 4.058-5.87 7.213-15.69 11.267-21.23 19.789-27.04 34.632-56.82 52.45-85.01-24.554-14.9-51.924-28.99-75.671-44.07-1.917-.72-1.567-.79-3.215-2.31.244-5.61 20.939-30.04 26.087-36.08 61.91-72.73 140.561-124.27 225.118-167.04 22.562-56.39 46.646-122.34 67.363-179.78q10.72-29.85 21.788-59.58c8.071-21.9 13.259-38.59 25.271-58.87 5.357-10.98 10.919-20.27 15.752-31.81-10.045-.43-20.284-.7-30.258-1.85a10306 10306 0 0 0 32.487-121.038c-19.528 14.949-51.535 34.421-73.078 48.454-20.559 13.391-53.466 36.275-74.337 47.524a96 96 0 0 1-19.886 8.17 90.18 90.18 0 0 1-69.379-8.39c-22.096-12.462-37.7-31.962-44.416-56.494a92.96 92.96 0 0 1 1.26-52.228c5.52-17.129 27.229-50.989 37.048-68.398 25.078-44.462 53.005-88.947 78.063-133.265 3.249 1.996 7.746 5.618 10.904 8.005l8.158-11.287c-3.041-21.152-2.702-29.901 6.26-49.267-41.011-66.63-79.478-135.26-120.505-201.931-17.454-28.362-33.49-57.718-50.969-86.085 13.748-10.164 27.506-21.004 41.404-31.441 61.736-46.185 131.9-87.421 207.783-104.532 23.577-5.316 53.566-10.225 69.556 11.853 9.754 13.583 9.59 16.764 25.891 23.87"/><path fill="#2e7d32" d="M730.266 258.277c71.59-10.683 123.68-52.224 182.319-89.23 46.915-29.607 116.075-54.631 171.365-61.402 11.75 26.824 24.62 52.558 36.64 79.098l64.89 145.551c-41.44-12.7-127.66 20.029-162.67 41.871-69.79 43.55-135.741 93.884-220.191 108.062-3.364-.368-3.888-.11-7.199.746-10.856-.9-12.239-.95-21.465-6.696-3.813-9.831-4.687-14.057-12.204-21.612a35 35 0 0 0-9.257-2.404c-12.602-1.482-33.167 2.481-45.478 5.35-84.855 19.777-146.185 73.54-211.442 126.662L358.588 353.261c5.627-3.305 13.772-10.12 19.115-14.25 69.235-53.512 146.735-103.967 234.263-121.234.882-.39.699-.343 1.668-.379 17.119-1.953 47.351-5.821 57.111 12.912l2.251-1.68c9.754 13.583 9.59 16.764 25.891 23.87l-2.079 2.056c5.898 1.534 10.864 3.053 16.956 3.6 5.5-.153 11.004-.113 16.502.121"/><path fill="#173008" d="M672.996 228.63c9.754 13.583 9.59 16.764 25.891 23.87l-2.079 2.056c-12.62-3.95-19.951-12.945-26.063-24.246zM713.764 258.156c5.5-.153 11.004-.113 16.502.121-6.207 1.147-10.314 1.196-16.502-.121"/><path fill="#2b48fe" d="M1171.36 1099.93c52.74 73.07 110.2 143.34 163.75 215.84 10.39 14.07 20.74 32.32 30.17 47.4l52.49 84.14 125.29 197.37c-19.23 8.72-38.33 17.75-57.28 27.09l-208.89 103.27c-6.18-20.24-15.79-45.47-22.87-65.76l-53.87-151.63c-8.02-22.45-15.89-44.95-23.62-67.5-2.79-8.04-12.75-37.66-16.68-43.66-14.08-21.57-34.74-41.27-50.14-63.12 11.54-61.78 27.46-132 41.38-193.63l12.88-55.24c2.51-10.7 6.01-23.86 7.39-34.57"/><path fill="#fe5a02" d="M650.776 1061.66c.977-1.12 2.469-2.89 4.004-3.28 27.008-6.75 54.935-11.12 81.963-17.65 27.159-6.57 56.029-4.03 83.572-.54-9.314 19.21-22.776 38.89-30.004 58.92l2.849 1.14a7958 7958 0 0 0-65.848 166.82l-22.462 58c-4.447 11.6-12.05 30.84-14.911 42.73-20.768 10.14-41.684 23.24-61.117 35.74-77.091 49.6-143.918 110.78-193.275 188.46a7984 7984 0 0 0 78.013 43.51c5.534 3.06 30.952 16.77 34.631 19.75l-.523 2.85c-3.802 4.85-3.782 6.54-5.095 12.7-25.723-8.11-52.129-13.95-78.46-19.68-10.861-2.36-31.854-5.32-41.295-8.23-7.3-2.25-28.906-15.87-37.016-20.43-30.605-17.21-65.101-40.72-96.493-56.11l-4.572-.06c-1.917-.72-1.567-.79-3.215-2.31.244-5.61 20.939-30.04 26.087-36.08 61.91-72.73 140.561-124.27 225.118-167.04 22.562-56.39 46.646-122.34 67.363-179.78q10.72-29.85 21.788-59.58c8.071-21.9 13.259-38.59 25.271-58.87z"/><path fill="#040704" d="m790.311 1099.11 2.849 1.14a7958 7958 0 0 0-65.848 166.82l-22.462 58c-4.447 11.6-12.05 30.84-14.911 42.73-20.768 10.14-41.684 23.24-61.117 35.74-77.091 49.6-143.918 110.78-193.275 188.46a7984 7984 0 0 0 78.013 43.51c5.534 3.06 30.952 16.77 34.631 19.75l-.523 2.85c-35.593-20.9-83.027-43.83-116.215-65.33 50.272-80.77 126.8-150.2 207.626-199.32 15.615-9.49 31.538-19.85 48.044-27.6 5.012-17.37 13.26-37.98 19.81-55.06a7500 7500 0 0 1 36.679-93.63l31.307-80.44c4.012-10.1 10.665-28.42 15.392-37.62M532.727 1360.87c22.562-56.39 46.646-122.34 67.363-179.78q10.72-29.85 21.788-59.58c8.071-21.9 13.259-38.59 25.271-58.87l3.627-.98c-14.03 26.58-23.92 54.03-33.876 82.36-25.762 73.31-55.774 145.98-81.487 219.2-88.541 41.79-191.217 113.83-249.43 196.91-.309.44-.179 2.14-.154 2.74 1.506 1.85 1.594 2.08 3.48 3.49l-4.572-.06c-1.917-.72-1.567-.79-3.215-2.31.244-5.61 20.939-30.04 26.087-36.08 61.91-72.73 140.561-124.27 225.118-167.04"/><path fill="#ffc107" d="M801.041 1082.76c26.596-15.75 101.609-31.73 133.394-31.61-29.992 40.71-51.34 101.38-72.216 148.4-29.347 66.09-59.927 132-86.644 199.2-68.511 34.11-209.167 147.55-245.423 216.01 20.212 11.58 40.68 24.03 60.877 35.33-3.138 6.65-7.335 16.89-10.941 22.67-9.762-5.32-22.2-12.92-31.897-17.5-3.679-2.98-29.097-16.69-34.631-19.75a7984 7984 0 0 1-78.013-43.51c49.357-77.68 116.184-138.86 193.275-188.46 19.433-12.5 40.349-25.6 61.117-35.74 2.861-11.89 10.464-31.13 14.911-42.73l22.462-58a7958 7958 0 0 1 65.848-166.82c2.404-5.91 4.645-12.01 7.881-17.49"/><path fill="#2b48fe" d="M1977.7 250.075c-20.66 27.347-39.7 69.173-39.17 103.946.2 13.347 24.75 6.089 32.49 5.628 25.2-1.498 66.87.553 74.53 30.511-3.77.455-4.28.663-7.92 1.847l-7.4 2.079c-24.94 8.079-49.12 17.863-71.61 31.48-30.85 18.68-58.3 42.246-88.17 62.121-18.76 12.481-67.32 32.013-88.41 17.126 10.27-16.867 66.44-43.023 76.49-65.786 1.49-3.423-.2-10.274-1.6-13.505-15.6-36.148-33.97-71.249-50.25-107.11 42.34-4.028 63.41-24.545 100.38-42.977 26.08-13.002 42.27-18.9 70.64-25.36"/><path fill="#040704" d="M2037.63 392.007c3.64-1.184 4.15-1.392 7.92-1.847-2.96 1.957-3.01 1.883-6.52 1.847z"/><path fill="#173008" d="M795.42 482.973c3.311-.856 3.835-1.114 7.199-.746-2.13 1.106-3.535.795-6.033.755z"/><path fill="#2b48fe" d="m1162.75 1052.52 3.62.22c2.89 3.69 2.37 34.86 2.61 42.76-33.08 58.76-60.26 121.48-93.34 180.81-32.16 57.7-67.52 111.36-101.676 167.74-16.214 26.75-30.862 57.63-46.037 85.41l-132.21 243.9c-18.802-14.25-43.848-28.54-64.226-40.94a4737 4737 0 0 0-91.011-55.18 3587 3587 0 0 0-106.502-63.89c56.311-80.76 157.569-166.78 244.422-212.51 5.796-12.82 11.387-28.3 17.327-41.89q37.8-87.96 76.857-175.38l24.487-54.92c3.77-8.36 10.141-23.27 14.742-30.66 68.806-19.58 180.047-44.23 250.937-45.47M1759.68 239.329c2.32-.47 4.02-.46 6.37-.589 2.74 1.715 11.16 21.896 13.35 26.647l74.14 159.782c-46-1.363-106.44 28.552-144.58 53.534-60.84 39.858-120.58 84.881-197.54 83.486-19.16-.347-13.58-10.59-21.38-21.958-3.39-4.937-17.25-8.548-23.04-8.172-64.62 2.47-121.67 44.144-170.91 82.364-14.76 11.455-29.49 22.389-42.64 34.431l-14.36-24.597c-13.76-23.997-29.37-48.306-42.44-72.529 20.14-19.285 9.69-25.437-13.35-22.497-3.93-7.978-11.58-20.431-16.17-28.417a2687 2687 0 0 0-29.19-50.11c11.39-7.721 23.78-17.828 35.15-26.155 60.64-44.432 119.46-85.305 195.91-95.384 18.79-2.476 35.33-.728 45.87 16.327 3.25 5.25 7.46 10.902 12.43 14.719 10.65 8.185 26.82 6.712 39.57 5.533 41.25-3.818 87.38-25.353 120.99-49.389 22.75-16.269 38.57-30.617 64.69-43.628 35.35-17.603 68.32-27.213 107.13-33.398"/><path fill="#FAFAFA" d="M1052.95 362.903c8.57 6.47 27.2 65.211 43.9 73.194 18.19 8.699 36.13 5.87 54.44 1.334-5.41 4.111-12.03 8.283-17.77 12.087 14.88 23.159 31.52 54.377 45.8 78.828-16.63 3.714-30.79 8.288-46.65 14.394-44.47-51.878-105.29-55.779-157.692-12.439-22.268-1.013-57.912 5.92-78.953 13.377a103.7 103.7 0 0 0-27.932-26.103c-22.077-13.938-51.026-18.818-76.456-13.039a102.64 102.64 0 0 0-63.69 45.148c-18.782 30.257-15.652 55.966-8.054 88.231l-1.14.744c-41.185 27.327-35.309 79.943 13.39 94.391 4.597 1.364 10.582 1.98 15.393 2.69-8.976 1.578-15.786 3.68-24.113 7.145-26.648 12.474-38.588 26.963-53.097 51.438-10.086-14.363-20.856-33.776-30.313-48.848-5.46-8.702-17.601-28.296-21.4-37 32.297-46.281-3.303-100.526-55.872-92.742-12.228-17.169-23.523-36.702-34.396-54.88 40.217-30.505 78.413-62.281 125.913-82.387 15.553-8.203 98.171-35.702 108.454-17.888 14.756 25.563 15.875 30.97 58.422 20.79 71.3-17.059 138.337-61.837 198.896-102.127 8.2-5.456 23.43-11.841 32.92-16.338"/><path fill="#fe5a02" d="M1052.27 1324.53c6.39 3.59 30.25 32.41 36.84 40.65 20.66 25.84 49.29 56.14 67.84 82.84 4.93 7.09 16.46 44.2 20.3 54.67 20.56 56.77 40.74 113.68 60.53 170.72-39.72 17.9-79.24 39.52-119.03 58.05-21.55 9.94-43.27 22.21-64.95 32.69-5.51-11.84-17.48-53.76-22.17-69.06l-47.678-156.63c-5.159-16.77-15.333-53.95-21.087-68.49 27.082-49.5 58.905-97.8 89.405-145.44M1063.29 794.205c32.55-2.912 46.52 10.899 69.07 31.747 10.68 9.87 21.5 19.967 32.1 29.926l75.65 69.862c26.69-18.342 55.22-35.302 82.48-52.858 13.4-8.629 30.88-17.864 43.12-27.42 23.01 32.369 53.56 79.443 73.77 113.359-15.46 7.513-39.18 23.677-54.27 33.381-22.05 12.268-45.63 28.788-67.62 41.938-19.79 11.83-34.79 24.8-57.82 30.88-23.55 6.21-48.77 3.11-70.06-8.77-7.83-4.36-24.91-20.52-32.26-27.23l-54.2-50.042-49.07-44.733c-19.8-17.841-40.62-31.677-46.73-58.961a66.12 66.12 0 0 1 8.96-51.148c11.67-17.935 26.53-25.68 46.88-29.931"/><path fill="#FAFAFA" d="M501.084 698.02c5.055 2.712 10.547 6.758 15.422 9.938 37.339 24.359 73.047 51.494 110.444 75.694-7.741 12.167-114.331 182.213-114.393 185.114 5.965-2.103 36.994-55.41 42.556-64.408a11594 11594 0 0 1 66.922-106.842c11.775 21.461 27.909 46.626 40.79 67.676 1.315 2.078 1.257 1.93 3.306 3.328 4.021-.185 7.325-3.106 10.782-5.451-3.406 13.438-6.753 27.278-10.544 40.576-27.221 19.421-57.13 38.539-85.501 56.43-46.817 29.524-93.065 73.945-150.787 41.415a91.2 91.2 0 0 1-42.987-54.374 92.1 92.1 0 0 1 .991-50.915c5.821-18.469 22.244-41.769 31.994-59.483 25.54-46.408 55.299-92.655 81.005-138.698"/><path fill="#fe5a02" d="M1038.41 728.407c27.57-3.12 67.14-.765 89.35 17.08 30.58 24.581 30.8 67.969 34.39 103.899l-7.06-6.762c-24.63-23.44-50.7-53.148-85.68-51.991a68.17 68.17 0 0 0-47.55 21.739 70.7 70.7 0 0 0-19.05 51.64 69.1 69.1 0 0 0 11.23 34.679c8.8 13.353 35.15 35.194 48.24 47.115l73.49 67.434c7.3 6.72 33.2 25.78 31.77 35.31-3.51 1.64-26.91 1.33-32.14 1.4-39.64.55-79.29.33-118.92-.66-38.195-.64-88.783-1.9-126.331-6.62 9.869-42.986 25.561-90.411 37.661-133.419l22.475-79.7c4.345-15.667 8.409-31.191 13.099-46.785 9.915-32.969 41.936-51.41 75.026-54.359"/><path fill="#FAFAFA" d="M754.175 737.275c10.788-1.502 25.549.172 36.704.815 33.19 1.915 55.339 4.445 82.305 24.928-19.071 21.771-21.007 32.47-29.1 59.747L829 873.862c-15.462 52.45-32.651 107.206-46.295 159.858-21.869-.93-42.537-1.39-64.542-2.65-24.651-.12-55.866-3.41-81.792-4.24 15.266-54.81 29.148-112.884 44.928-166.974 7.397-4.068 12.236-7.037 19.201-11.805-2.781-6.387-6.005-11.452-9.592-17.404 1.474-6.314 4.361-14.656 6.371-21.016-5.408 6.497-5.805 8.317-8.9 16.133a2282 2282 0 0 0-16.1-27.33 120.4 120.4 0 0 1 10.825-18.954c17.936-25.666 41.239-36.802 71.071-42.205"/><path fill="#040704" d="M779.802 791.33c19.792-1.966 44.644 11.052 51.998 29.829-8.456-4.605-11.684-17.549-32.019-24.191a50.94 50.94 0 0 0-39.966 3.612c-13.793 7.348-22.133 18.504-26.744 33.156-3.888 15.263-1.672 33.886 9.696 45.251 2.976 2.974 7.395 6.614 8.49 10.268l-.793.851c-11.841-5.228-19.928-22.358-21.597-34.628a56.23 56.23 0 0 1 10.986-41.689c10.333-13.552 23.278-20.134 39.949-22.459"/><path fill="#ffc107" d="M1482.83 1676.96c6.16 2.81 20.38 60.53 30.18 73.86 18.94 25.75 41.65 16.2 68.24 14.93 12.19-.59 24.4.29 36.38 2.62 24.89 4.93 44.74 14.96 58.92 36.35-63.42 28.16-129.3 62.59-192.51 89.3-9.6-2.94-22.28-9.06-31.71-13.26 5.3 11.93 11.6 30.55 16 43.22-6.53 2.74-13.51 6.23-19.95 9.3a3721 3721 0 0 0-45.64 21.45c-8.65-25.03-17.44-50.01-26.37-74.95 9.75 5.87 20.27 9.5 31.51 6.61 49.93-12.84 31.94-85.77-19.2-73.27-12.77 3.12-19.43 11.93-25.76 22.72-10.22-28.27-19.8-56.78-28.72-85.49 49.16-25.22 98.71-49.69 148.63-73.39"/><path fill="#2e7d32" d="M1135.97 213.122c47.09-12.546 78.89-33.299 120.7-56.071 23.35-12.717 52.85-23.583 78.36-30.451-20.68 28.252-32.14 62.067-44.04 94.592-14.51 39.653-6.21 32.068 26.99 26.854 6.28-1.018 14.86-1.683 21.14-.714 36.4 2.039 65.69 12.698 95.81 33.159-61.38 4.961-107.42 41.355-157.2 72.593-32.19 20.202-66.47 37.067-96.31 61.532-16.68 13.668-33.95 23.396-56 23.734-15.83.279-25.57-.172-35.48-13.834 10.2-7.404 21.89-13.248 32.13-21.001 26.32-19.921 52.15-36.396 69.72-64.959-6.28-11.012-10.41-23.307-15.81-34.611-14.03-29.331-25.89-61.881-40.01-90.823"/><path fill="#173008" d="M1317.98 248.046c6.28-1.018 14.86-1.683 21.14-.714-5.35.551-15.82.848-21.14.714"/><path fill="#ffc107" d="M589.774 1660.32c2.919 1.31 27.727 17.84 31.26 20.31 35.346 24.77 78.411 51.95 111.68 78.71-4.985 11.52-11.674 22.56-16.569 33.56-7.323 15.85-1.397 41.71 10.675 54.1 33.289 34.19 75.705 71.06 54.645 124.21-12.183-4.61-37.795-19.63-49.95-26.3l-96.996-53.67c-20.259-11.7-42.835-23.36-63.51-34.59-.917-11.31-1.16-20.92-1.347-32.24-8.408 12.04-18.602 26.69-27.85 37.87-17.536-8.09-41.695-21.34-58.161-31.15a1007 1007 0 0 0 43.183-57.45c-.102 55.6 63.96 56.26 75.824 18.25a39.77 39.77 0 0 0-3.111-30.79 38.67 38.67 0 0 0-24.069-18.92c-13.246-3.57-22.512.06-33.475 6.58 16.355-25.94 33.505-60.57 47.771-88.48"/><path fill="#ffc107" d="M362.835 1612.73q71.778 41.745 142.927 84.57c-27.527 44.18-51.393 58.32 2.111 98.65-9.516 12.02-18.777 24.16-28.724 35.83 17.399 11.16 41.884 23.35 60.414 32.68-2.816 7.71-6.032 22.03-8.47 30.7l-110.575-57.04c-21.683-11.23-46.383-25.15-68.069-35.36-.81-8.5-4.557-25.85-6.234-34.8-4.888 10.51-18.238 29.96-24.842 39.85-18.869-9.14-39.314-20.73-57.897-30.77 12.183-21.48 26.383-42.73 38.812-64.45 5.806 64.65 90.241 42.61 71.426-12.43-7.628-22.32-31.616-27.49-52.579-18.47 11.42-18.58 30.351-52.81 41.7-68.96M1238.01 1676.1c4.34 5.6 32.38 88.87 37.36 102.93 22.7-1.28 39.39-2.97 61.28-9.53l19.35 56.17c-39.21 14.8-81.58 39.37-118.88 53.5-9.85-3.16-24.7-9.48-33.08-15.3 5.57 14.64 11.88 29.74 17.72 44.34-13.66 6.41-27.36 12.73-41.1 18.98l-17.01 7.42c-8.43-22.68-15.33-41.47-21.87-64.78 16.28 6.62 29.47 5.76 43.28-6.05 7.64-6.53 12.28-15.29 12.76-25.4a38.17 38.17 0 0 0-10.75-28.09c-19.56-20.32-43.54-13.47-60.86 5.23-8.45-22.91-15.7-48.69-24.14-72.41z"/><path fill="#2e7d32" d="M913.006 743.832c2.175-1.351 2.923-1.07 5.606-.705 8.435 19.427 24.421 27.488 43.656 32.425l-42.945 153.039c-10.279 35.645-24.265 77.579-32.208 113.509-32.928-3.39-67.58-5.01-100.964-8.26 10.271-41.935 23.837-83.269 35.749-124.887a3443 3443 0 0 1 22.876-78.129c12.845-41.898 21.355-72.513 68.23-86.992"/><path fill="#173008" d="M913.006 743.832c2.175-1.351 2.923-1.07 5.606-.705-2.677.584-2.938.682-5.606.705"/><path fill="#ffc107" d="M948.526 1671.12c24.05 10.2 55.654 20.27 81.124 29.49 7.31 21.69 14.19 46.53 22.15 67.48l9.8-4.06c.27 3.21.7 6.4 1.29 9.56 5.88 31.97 32.42 43.33 57.68 60.83 1.16 7.07 2.61 16.85 7.03 22.31 15.42 19.05 16.25 24.98 8.56 48.42-42.28-16.45-96.78-32.83-140.847-47.67-12.802-3.86-26.819-8.94-39.582-13.29-5.16-10.63-7.508-18.95-10.787-30.16-6.209 14.72-11.371 28.32-16.868 43.35-18.708-7.41-43.137-14.33-62.968-21.49a1170 1170 0 0 0 26.422-55.29c3.332 7.06 6.844 13.78 12.71 19.12 14.352 13.07 38.807 10.64 50.988-4.21a35.18 35.18 0 0 0 7.655-26.81c-3.206-25.82-24.26-34.34-47.568-30.39 11.118-23.32 21.385-44.22 33.211-67.19"/><path fill="#FAFAFA" d="M1193.1 554.722c4.05 2.242 75.65 126.17 84.08 141.304-1.76 2.21-3.44 4.485-5.02 6.82-10.02 14.937-11.34 26.869-7.78 43.914-3.55 5.387-7.67 10.15-11.77 15.119-5.77-4.887-12.12-11.092-17.72-16.302-24.06 23.945-49.21 57.092-72.61 79.831-1.06-16.67-4.42-36.197-9.93-51.953-17.58-37.839-47.91-48.432-87.58-48.341-17.9.04-29.81-.129-47.95 3.558 7.16-6.704 11.41-11.086 17.8-18.514 21.99 6.774 45.29 8.146 66.73-.543 38.86-15.749 63.43-55.135 56.82-97.055-1.96-12.457-5.6-21.226-10.33-32.74 20.11-6.174 29.55-10.722 45.26-25.098"/><path fill="#2e7d32" d="M1234.33 750.669c5.01 2.193 97.23 85.044 107.15 93.838-7.65 7.209-19.26 23.205-26.11 28.617-16.08 12.683-39.77 26.277-57.53 37.194l-17.4 11.559c-22.96-23.378-51.24-45.783-75.03-70.14-1.29-7.667-2.04-13.987-2.8-21.739 10.73-10.311 17.94-19.983 27.74-30.937z"/><path fill="#FAFAFA" d="M1120.69 564.8c3.4.473 14.05 9.622 21.2 13.088 2.69 4.78 5.45 9.637 7.61 14.681a85.86 85.86 0 0 1 .69 64.932 88.54 88.54 0 0 1-48.49 48.587c-25.22 10.43-48.45 7.783-73.03-2.287-26.84-12.468-38.144-28.872-48.194-55.645 44.274-23.544 97.744-56.815 140.214-83.356"/><path fill="#fe5a02" d="M961.292 1473.66c3.041 8.33 5.541 19.37 8.183 28.09 4.876 16.07 9.814 32.13 14.685 48.21l44.83 147.08c-22.61-8.44-45.185-15.74-67.686-24.04-28.241-10.97-60.897-21.34-89.906-31.19 29.089-57.16 59.305-111.82 89.894-168.15"/><path fill="#2e7d32" d="M1038.23 504.365c38.71-4.088 70.32 11.884 92.96 42.688a256 256 0 0 1 34.4-13.094c3.37-1.013 11.59-3.18 14.53-1.615-.53.668-111.17 53.052-121.37 57.704a7649 7649 0 0 0-103.736 46.604 116 116 0 0 1-5.806-23.255c-7.826-56.31 34.6-101.722 89.022-109.032"/><path fill="#ffc107" d="M722.052 636.991c-7.716-36.415-8.662-67.864 17.261-97.702a99.36 99.36 0 0 1 67.919-34.101c36.783-2.465 65.701 13.259 87.143 41.257l1.161.937c8.713-3.366 13.74-4.799 22.853-7.092-6.298 3.665-15.477 8.644-21.043 12.956-14.199 13.75-49.758 26.352-69.074 35.255-36.033 16.609-70.776 30.114-106.22 48.49"/><path fill="#FAFAFA" d="M1310.53 681.292c3.78-.342 7.59-.424 11.38-.245 13.82.716 27.51 7.679 36.52 18.139a52.96 52.96 0 0 1 12.77 39.294 56.6 56.6 0 0 1-6.92 22.455c-14.23 25.626-31.41 20.742-53.26 39.781l-7.92 6.792c-14.36-14.376-32.75-29.27-48.03-43.861 4.48-5.41 8.24-10.464 12.4-16.124-7.47-33.808 10.98-57.585 43.06-66.231M533.22 636.664c19.482-16.928 39.011-25.856 64.565-13.13 38.083 18.965 40.794 69.77 6.214 94.186-6.708 4.037-12.196 6.186-19.44 9.226-2.975 4.213-8.301 12.209-11.454 15.832-18.722-12.694-41.333-26.937-59.291-39.882 3.077-4.296 6.248-8.432 8.751-13.076-3.691-17.662-3.262-32.558 7.214-48.408a82 82 0 0 1 3.441-4.748M878.673 568.901l.818 1.409a166 166 0 0 0-5.41 8.744c-17.088 30.237-18.399 51.703-9.339 84.809-17.399 9.746-27.961 24.317-18.49 44.085-28.788.448-42.077-2.089-65.647-18.203-17.839-14.63-26.374-30.625-28.852-53.454 39.715-1.276 57.712-23.422 87.338-45.587 5.753-4.304 32.234-17.887 39.582-21.803M976.827 649.936c2.33 2.274 5.109 11.561 7.101 15.424 11.351 22.009 26.062 32.353 47.182 43.608-21.09 30.962-53.034 39.13-88.231 32.334-31.865-10.786-52.148-31.362-56.083-65.585 23.989-2.455 21.962-8.113 39.269-15.061 17.802 5.369 35.474-1.939 50.762-10.72"/><path fill="#fe5a02" d="m960.406 533.413 11.645.045c-25.344 29.009-31.487 57.557-22.842 94.638-18.653 6.498-53.857 24.172-72.608 32.932l-9.089 3.591c-20.07-69.38 21.407-126.279 92.894-131.206"/><path fill="#FAFAFA" d="M1418.18 825.268c47.05-2.462 75.3 39.927 52.77 82.433-7.65 14.436-20.39 20.466-35.61 24.468-3.26.777-4.13.844-7.37 1.117-2.54-2.315-13.8-20.213-16.43-24.234l-37.5-57.076c12.61-14.436 25.16-23.211 44.14-26.708"/><path fill="#2e7d32" d="M616.636 710.905c22.355 44.08 57.419 90.895 79.81 135.827-6.746 5.095-21.749 14.88-29.31 18.675-16.035-23.421-28.49-46.9-42.728-71.103 2.368-3.833 5.182-8.139 7.373-12.009-21.554-12.795-38.856-21.428-46.779-48.33-.328-1.114-.252-2.052-.232-3.18 1.007-1.375.888-1.407 2.196-2.252 13.357-4.712 19.515-7.669 29.67-17.628"/><path fill="#FAFAFA" d="M544.186 1675.63c7.454 3.63 20.373 8.14 28.23 10.87-12.848 31.48-43.527 79.08-63.089 107.22l-10.099-8.01c-37.349-34.99-14.437-50.37 8.436-86.08 6.735 6.38 13.837 13.43 22.047 17.76 5.7-12.48 10.502-28.53 14.475-41.76M558.495 1744.53c19.245-4.03 38.152 8.16 42.413 27.36 4.26 19.19-7.71 38.25-26.852 42.74a35.91 35.91 0 0 1-34.57-10.59 35.92 35.92 0 0 1-7.835-35.3 35.91 35.91 0 0 1 26.844-24.21"/><path fill="#ffc107" d="M570.253 1859.45a9021 9021 0 0 1 138.309 76.34c20.422 11.3 51.912 29.92 72.3 38.23-2.573 5.71-5.478 9.96-8.851 15.22-5.214-1.64-42.031-22.68-48.752-26.37l-103.035-56.95c-17.966-9.91-39.912-22.74-58.264-31.22 3.908-6.05 5.314-8.69 8.293-15.25"/><path fill="#FAFAFA" d="M1152.74 1801.38c19.05-3.65 37.48 8.76 41.26 27.79s-8.5 37.54-27.5 41.46c-19.19 3.95-37.94-8.48-41.75-27.7-3.82-19.22 8.74-37.87 27.99-41.55M1391.27 1815.21c18.9-4.62 37.96 7.01 42.48 25.94 4.53 18.92-7.2 37.92-26.15 42.35-18.81 4.4-37.64-7.23-42.13-26.02-4.5-18.79 7.03-37.68 25.8-42.27M333.36 1680.53c18.658-3.45 36.603 8.8 40.19 27.43s-8.527 36.67-27.131 40.4c-18.802 3.76-37.072-8.51-40.698-27.34s8.783-37.01 27.639-40.49"/><path fill="#ffc107" d="M1677.51 1807.09c2.86 5.28 4.45 9.94 6.54 15.56-22.66 11.22-47.9 22.13-71.17 33.16-40.11 19.01-81.17 39.58-121.57 57.49-3.36-4.43-5-11.18-6.57-16.57 9.78-3.79 20.65-8.73 30.1-13.36 53.2-26.08 110.2-49.13 162.67-76.28"/><path fill="#FAFAFA" d="M803.225 705.807c15.335 4.779 28.967 6.141 44.765 4.103 15.74 15.539 38.571 20.496 59.725 14.643 4.413 3.63 8.835 6.267 10.311 11.602-.576 1.701-.896 3.523-2.79 4.205-13.775 4.964-22.17 7.986-34.302 16.497-8.079 7.229-11.33-1.335-19.279-5.845-28.604-16.226-65.471-15.504-97.709-17.309 18.962-6.852 27.305-11.668 39.279-27.896"/><path fill="#ffc107" d="M352.043 1805.5c18.773 9.16 39.508 20.94 58.516 30.75a6178 6178 0 0 1 118.864 61.72c-2.47 6.37-4.43 10.52-7.488 16.63-58.094-32.06-118.89-61.77-177.316-93.79 2.005-4.96 4.985-10.47 7.424-15.31"/><path fill="#FAFAFA" d="M925.232 1739.29c18.01-1.1 33.586 12.42 35.028 30.41 1.442 17.98-11.78 33.81-29.735 35.6a33.13 33.13 0 0 1-30.419-13.99 33.11 33.11 0 0 1-2.676-33.37 33.11 33.11 0 0 1 27.802-18.65"/><path fill="#2b48fe" d="M1468.88 942.82c2.79 2.119 42.91 67.31 48.33 75.68-8.87 4.96-23.64 13.12-31.65 18.74-.39.14-1.55.61-1.64.48-9.79-15.09-37.7-63.441-45.83-75.457 14.37-7.32 18.04-10.162 30.79-19.443"/><path fill="#ffc107" d="M955.369 1847.27c8.438 2.24 19.014 6.05 27.431 9.11 50.07 18.21 103.25 32.54 152.89 51.52-1.03 4.77-3.28 11.12-4.82 15.91-14.8-5.49-30.78-10.48-45.86-15.19-45.52-14.2-90.706-31.16-136.409-44.64a556 556 0 0 1 6.768-16.71"/><path fill="#FAFAFA" d="M1098.84 1744.87c3.09 1.93 22.07 64.58 25.45 74.04-1.55 4.19-2.67 7.96-4 12.19-5.8-4.67-10.96-7.7-16.65-11.95-3.72-2.5-19.3-12.21-21.35-14.45-12.45-13.62-16.58-25.26-17.38-42.7 11.08-5.87 23.03-11.03 33.93-17.13"/><path fill="#2b48fe" d="M1363.57 768.738c3.84 3.669 31.35 49.25 37.44 58.175-15.24 7.86-17.53 13.271-29.33 22.646-.65-1.252-2.4-4.075-2.15-5.535 1.17-7.111-3.44.943-6.21-3.347-10.66-16.491-19.73-33.726-29.48-50.692 14.9-7.122 18.3-8.305 29.73-21.247"/><path fill="#2e7d32" d="M525.435 563.269c12.421 16.792 21.094 35.933 34.273 53.255-15.512 7.099-14.374 5.415-27.605 17.752l1.117 2.388c-2.492 1.291-3.023 2.555-5.449 1.869-9.493-17.015-20.525-34.769-30.742-51.418 9.113-7.876 19.076-16.193 28.406-23.846"/><path fill="#173008" d="m532.103 634.276 1.117 2.388c-2.492 1.291-3.023 2.555-5.449 1.869 1.943-2.189 2.115-2.506 4.332-4.257"/><path fill="#ffc107" d="M1354.56 1828.82c.81-.02 1.75.42 2.62.71 2.68 4.5 3.62 9.29 5.01 14.39l-113.79 52.28-2.38.58c-3.98-2.96-4.66-10.57-5.59-15.59 36.63-15.53 77.39-35.66 114.13-52.37"/><path fill="#2b48fe" d="M1276.28 633.787c3.66.871 25.41 39.427 29.07 45.439-12.63 5.551-11.99 5.079-23.47 12.895-.02.014-2.02 1.621-2.39.98a3852 3852 0 0 1-23.77-41.436c7.63-7.259 12.44-11.255 20.56-17.878"/><path fill="#FAFAFA" d="M1329.36 791.792c2.68.844 29.44 47.458 32.13 52.779-.79.588-41.68 28.574-35.46 20.774 6.41-6.614 13.32-13.992 19.64-20.761-11.8-11.303-26.62-23.952-39.18-34.728 8.84-8.455 12.17-11.842 22.87-18.064M581.335 736.826c1.543 1.739 10.849 16.457 8.906 17.802-.534.058-.72-.155-1.272-.456a579 579 0 0 1-13.55-9.507z"/><path fill="#040704" d="M1173.43 1099.01c8.05 7.9 32.84 43.58 42.69 55.97 29.08 37.22 57.82 74.72 86.21 112.48 12.15 16.16 28.17 35.03 38.82 51.51 36.45 56.38 71.27 114.79 107.53 171.25l61.68 97.37c9.99 15.72 28.46 43 36.23 58.41-20.06 9.46-40.04 19.63-59.86 28.94l-.95-3.17c18.95-9.34 38.05-18.37 57.28-27.09l-125.29-197.37-52.49-84.14c-9.43-15.08-19.78-33.33-30.17-47.4-53.55-72.5-111.01-142.77-163.75-215.84zM1782.04 504.813c21.09 14.887 69.65-4.645 88.41-17.126 29.87-19.875 57.32-43.441 88.17-62.121 22.49-13.617 46.67-23.401 71.61-31.48l2.17 2.404c-27.58 8.788-51.81 19.233-76.73 34.254-47.34 28.544-86.72 74.498-144.16 81.853-10.54 1.35-23.3.639-31.9-6.154z"/></svg>